<mxfile host="app.diagrams.net" modified="2022-11-16T01:02:14.215Z" agent="5.0 (Windows NT 10.0; Win64; x64) AppleWebKit/537.36 (KHTML, like Gecko) Chrome/107.0.0.0 Safari/537.36" etag="n3B4Jfat4k98iULt92n-" version="20.5.3" type="github">
  <diagram name="Page-1" id="dd472eb7-4b8b-5cd9-a60b-b15522922e76">
    <mxGraphModel dx="723" dy="407" grid="1" gridSize="10" guides="1" tooltips="1" connect="1" arrows="1" fold="1" page="1" pageScale="1" pageWidth="1100" pageHeight="850" background="none" math="0" shadow="0">
      <root>
        <mxCell id="0" />
        <mxCell id="1" parent="0" />
        <mxCell id="0B4loqaDKJ7nYiXQ2XOH-5" value="" style="rounded=1;whiteSpace=wrap;html=1;strokeWidth=2;fillWeight=4;hachureGap=8;hachureAngle=45;fillColor=#1ba1e2;sketch=1;" vertex="1" parent="1">
          <mxGeometry x="220" y="520" width="120" height="60" as="geometry" />
        </mxCell>
        <mxCell id="0B4loqaDKJ7nYiXQ2XOH-31" value="" style="group" vertex="1" connectable="0" parent="1">
          <mxGeometry x="500" y="310" width="110" height="110" as="geometry" />
        </mxCell>
        <mxCell id="0B4loqaDKJ7nYiXQ2XOH-30" value="" style="ellipse;shape=doubleEllipse;whiteSpace=wrap;html=1;aspect=fixed;" vertex="1" parent="0B4loqaDKJ7nYiXQ2XOH-31">
          <mxGeometry width="110" height="110" as="geometry" />
        </mxCell>
        <mxCell id="0B4loqaDKJ7nYiXQ2XOH-22" value="" style="shape=image;verticalLabelPosition=bottom;labelBackgroundColor=default;verticalAlign=top;aspect=fixed;imageAspect=0;image=data:image/png,iVBORw0KGgoAAAANSUhEUgAAAfQAAAH0CAYAAADL1t+KAAAAAXNSR0IArs4c6QAAAARzQklUCAgICHwIZIgAAAAJcEhZcwAADsQAAA7EAZUrDhsAAARvaVRYdFhNTDpjb20uYWRvYmUueG1wAAAAAAA8P3hwYWNrZXQgYmVnaW49J++7vycgaWQ9J1c1TTBNcENlaGlIenJlU3pOVGN6a2M5ZCc/Pgo8eDp4bXBtZXRhIHhtbG5zOng9J2Fkb2JlOm5zOm1ldGEvJz4KPHJkZjpSREYgeG1sbnM6cmRmPSdodHRwOi8vd3d3LnczLm9yZy8xOTk5LzAyLzIyLXJkZi1zeW50YXgtbnMjJz4KCiA8cmRmOkRlc2NyaXB0aW9uIHJkZjphYm91dD0nJwogIHhtbG5zOkF0dHJpYj0naHR0cDovL25zLmF0dHJpYnV0aW9uLmNvbS9hZHMvMS4wLyc+CiAgPEF0dHJpYjpBZHM+CiAgIDxyZGY6U2VxPgogICAgPHJkZjpsaSByZGY6cGFyc2VUeXBlPSdSZXNvdXJjZSc+CiAgICAgPEF0dHJpYjpDcmVhdGVkPjIwMjItMTEtMTU8L0F0dHJpYjpDcmVhdGVkPgogICAgIDxBdHRyaWI6RXh0SWQ+ZTJjODEyNWUtMzRmZS00YmVkLWIxOTUtNDdjNWZlMmUzNjBhPC9BdHRyaWI6RXh0SWQ+CiAgICAgPEF0dHJpYjpGYklkPjUyNTI2NTkxNDE3OTU4MDwvQXR0cmliOkZiSWQ+CiAgICAgPEF0dHJpYjpUb3VjaFR5cGU+MjwvQXR0cmliOlRvdWNoVHlwZT4KICAgIDwvcmRmOmxpPgogICA8L3JkZjpTZXE+CiAgPC9BdHRyaWI6QWRzPgogPC9yZGY6RGVzY3JpcHRpb24+CgogPHJkZjpEZXNjcmlwdGlvbiByZGY6YWJvdXQ9JycKICB4bWxuczpkYz0naHR0cDovL3B1cmwub3JnL2RjL2VsZW1lbnRzLzEuMS8nPgogIDxkYzp0aXRsZT4KICAgPHJkZjpBbHQ+CiAgICA8cmRmOmxpIHhtbDpsYW5nPSd4LWRlZmF1bHQnPkJvaSBOYSBMaW5oYSAtIDE8L3JkZjpsaT4KICAgPC9yZGY6QWx0PgogIDwvZGM6dGl0bGU+CiA8L3JkZjpEZXNjcmlwdGlvbj4KCiA8cmRmOkRlc2NyaXB0aW9uIHJkZjphYm91dD0nJwogIHhtbG5zOnBkZj0naHR0cDovL25zLmFkb2JlLmNvbS9wZGYvMS4zLyc+CiAgPHBkZjpBdXRob3I+UnViZW5zIEx5cmE8L3BkZjpBdXRob3I+CiA8L3JkZjpEZXNjcmlwdGlvbj4KCiA8cmRmOkRlc2NyaXB0aW9uIHJkZjphYm91dD0nJwogIHhtbG5zOnhtcD0naHR0cDovL25zLmFkb2JlLmNvbS94YXAvMS4wLyc+CiAgPHhtcDpDcmVhdG9yVG9vbD5DYW52YTwveG1wOkNyZWF0b3JUb29sPgogPC9yZGY6RGVzY3JpcHRpb24+CjwvcmRmOlJERj4KPC94OnhtcG1ldGE+Cjw/eHBhY2tldCBlbmQ9J3InPz6CRa97AAAgAElEQVR4nOzdeXhU5fUH8O+5d5ZskJDMBFAQLLihghhDMgkW3LW2dUWtS6uigcxAhVbtz1Zb7G7dhUwAl1KpS8W1FdeqQSWTEHChLrWIGyjCTEICZJ2Ze35/TNaZO5OZyUzW83ken5r73vveNxbmzLudFxBCCCGEEEIIIYQQQgghhBBCCCGEEEIIIYQQQgghhBBCCCGEEEIIIYQQQgghhBBCCCGEEEIIIYQQQgghhBBCCCGEEEIIIYQQQgghhBBCCCGEEEIIIYQQQgghhBBCCCGEEEIIIYQQQgghhBBCCCGEEEIIIYQQQgghhBBCCCGEEEIIIYQQQgghhBBCCCGEEEIIIYQQQgghhBBCCCGEEEIIIYQQQgghhBBCCCGEEEIIIYQQQgghhBBCCCGEEEIIIYQQQgghhBBCCCGEEEIIIYQQQgghhBBCCCGEEEIIIYQQQgghhBBCCCGEEEIIIYQQQgghhBBCCCGEEEIIIYQQQgghhBBCCCGEEEIIIYQQQgghhBBCCCGEEEIIIYQQQgghhBBCCCGEEEIIIYQQQgghhBBCCCGEEEIIIYQQQgghhBBCCCGEEEIIIYQQQgghhBBCCCGEEEIIIYQQQgghhBBCCCGEEEIIIYQQQgghhBBCCCGEEEIIIYQQQgghhBBCCCGEEEIIIYQQQgghhBBCCCGEEEIIIYQQQgghhBBCCCGEEEIIIYQQQgghhBBCCCGEEEIIIYQQQgghhBBCCCGEEEIIIYQQgwUNdAOEEP1rTEleZluqISWlVTFomqJqapvBpCmqm31fYPUW70C3TwgRH8NAN0AIET2Lw/YIgQrArDJIBWAgQG0h37T9ZZtqo6lDNZifSfPhJKiAojIAI6AAFvARHuB/yf0NhBDJIgFdiKGEcTAIU0DUY3gthdm4P/pK/HqDc8yKmoAWCiEGiAR0IZJsVEmexWgyz1E1nqsBn9Q6XSv6UJ1P76JfVaL+u0xh6tAUStznQUleWo5iGkNam+ZpG7UXaypaEla3EEKXBHQhksTiKLqTGKcz+GhiEIigMKoAxB3QicIEY02NunfNIL/e4hmDRn3qoWcvLhhNGt2gQPkRM3+HiAiqGVZjG+AocoOxncHvAXjPr9HGvSsrPwTAfXmnEKKLBHQhkoTABSA6pvvgOBNOwPXT03HH1sZ46gwXjFmJ6e+y7pcC7kMPPXNx0RRFw+sEHAIARCGttIJgJVAhABhUwGov8jDwGpH2tDu1aX28/02EEAHKQDdAiOFKY6oIvkaAIbspo7gP1eoGY6Pmi7p3TWC/3nVmf3w99HnTTEY/1ncE86gRLES4GFD+YW1O3211FN2X5SiaFFcbhBAS0IXojaUkb7zFUXSJxW5baS21zYv6QdYq9C6rxHPjbUu4YKz5ou9dc7hhe4pvxM5iHe0gwhHxPNuF0gEsNjJ/lGO3LepbXUKMTDLkLoQOq6Pge8zquSDMIeBwAAARmPhai70oy+OsvL+3Omr93koLmbxEZOxRwJjTh6bpD5cbY1ihzvDrZaAwxLfKnYgURxzPhastTQGWWx2Fo91lVX9MWL1CjADSQxdCB0M9jwjXdgbzdgRSiLA6x277v14rWb2liYCa0LqRj5K8tPjaRbo9dIMvhi/nCeyhZ5cWFACYolfGQLnXrx3aZPCPA2MmE1/GrN0JRhUzR0xgw6z8dswi27GxtkeIkUx66ELoYa0CpFwTrlgh+pPFXjTG46z8RaRqNKIKBSjqfo2IjNlGQ3Ed8Grs7YJPr3fNhuh718Sk20OPZw5dIfU8vevMeMvjrHSgfRV7I7AbwHsAHgUCK+JVP53FRHYCfTekjQRV0TAfwJJY2yTESCU9dCF0sBa6oC0YEW60OIrux7Lwf48Yft16iNW4ht2Jwsyh+319nkNXtdhXuRPwPd32KLgXEbak1S2v3ud2Vv3DU+aao4Ef0rtHAeXF2h4hRjLpoQuho3al62uro2g7wgwndyDgGuseW5Z7XsNlWPdRW3B5XWpzpaUpPWQeXYlzYRwzfKE7wgBFUedb7EVnMmmqwmTgwN9tlYgMYE1lIgMYKhEMzFwEnUpYiW0futWePw6EY3Ra2VxnxAvR18SrAbpapyArlvYIMdJJQBciDGauIKKIAR0AQHSh1Zo12n399PND9lLfsbWRHEWbAdh61N0xj756S1NMjSLo9tAJuAYEEBQE/rd7oRL4mTqaq181a7F9HrBiOJn0+uCMDbjb1Rx9RdinOwVAHNt/GyFGOBlyF8PTPKjZi4ouyFo8a0a8VbDOPvKwCKdbmzNezSydPUanppB6CGTKMZpsoff28hpm3eHyRGCKccidabbeZQ38RizVEFOufv3YHVN7hBjhJKCLYcVydfEoq912nTXXtk1lPGn0qzfHWxcb9Oe/I7CZFP8Gqz1/XPeLfsKGMG+YG3OjSNHtoSeCCi2mIXdi1k+QE/b3DUPhw3SrIXwVUz1CjHAS0MXwsNSWarEX3oEUbQeI7gHoUABg0HlZCwsnx1Nl3fLqnWB8FttTdCzI+HbmolmHdtaT0vg26+wfJ1ZiXhjHyeyhxzAFZ7VPy2C9+XNGS63X+05M72XSmYcHwNgWSz1CjHQS0MXwcLerBURnEVFm98tEUA0qXRd3vWF6m4yIi76mGDXDxjELiwKB6o6tjcTYHFo3F2CpLTXGFoVJ24pPAN7IzBsYeB2MV8D8IjP/i5mfBfOTDDzOjEfAvFX/d4p+URxzZh6B9D4/NmP1loh7zIMRQXdaRGP+MJZ6hBjpZFGcGC4YTPeAsDq0hOZnLy74Td3y6n2xVqoxVyhEVwVfJ+BlZrxOhDv0niPCeFXlDdmlBWfXlVdXtX8xKOxZB5lyvLDVAq9H255wR58ytF96yqqejqYOi8N2KwHTg68rsSSWIeTrtoOwKeo6OmpizNRbFNdi4v/EWFdCWByF13isKWuwrCJpoyFCJIP00MWw4WkyrQXgDr5OhFGKpoZNEhOJ5lMqdAuY53iclXcyo4TBmt4tBMpWFeXfOaWFp/o5dGEcABBzTMPuGukPuSsc05azML38GOogzNS9zFpMAT1nke2I4FGVQFv468Z7q/t9UVxmaf53CMr9VnfrO1ZHUUjCGyEGMwnoYvhYU9HCzCv1C/mnmIeYM6HtXb3xKzB/EVpC3wVAgZzudJneHHn7femk0HoCjwtzz9xY2kOsvyiOY+hdE/S/FMRUB+vtPweYtHejrSPwABfov4C2xFRPghjI0L5yn44FsMFiL/q7pSRv/EC0RYhYSUAXw0qzUSsD0Bp8nUCTrLmFF8RXq872NYJlzMKiowHAU1b5OMDngdGi+zTIRKCHSGeKi0AFuHJuStQtCZPlLZbetYYwK+WZo6tjHlQQhZ6uxtzksW76NNp2AACxortSnjjmofuEIKITe/6My2Awf2JdUKC7El+IwUQCuhiURpXkWawO24oxJXkhw7GRtA/TPqpbyMrSeNqikf4xqIrSte3MU+Z6nhXtLDAO6N1LFC6dC8yWjJbCMGU6jdFP/QrSYuld634poCh76GPGFB8MwKxTwTYsg+70Q4TG6AZ0VrSNMdWTMBy6t56Q6mbf1wPQGCFiIgFdDDqWRbZLUwzmjwFyqAbz7bE+7/PjLt0CQmG23VakWxaBH/rz6Ap6HoPqWVFVoZF2KjP2xvQCTZkb7a2s6AdjJYYV6giTDx5R9vINBt8huo8zx7RvPGNhUS6BpunU4/UYqTqWuhJhVEmehUBHhpbwOzFn9BNiAEhAF4NG9uKCCRZ70fPE9AgIlsBVvsZiLzgplnr2rqz8gJn/rVemAjH30uvLKr9k8JchBUQhC9pqy6qq/QrPAfO30b8hlgQz+senMkW/PoDC9PKjnUNnhbL1K6ZG3ethpKg4WbcaoCam1LEJYlJNupnvwPxWPzdFiLhIQBeDAVlKCxcqmvIhEc7uUUBEROr9se7XJmbdXnq8iWYIqNC5bM125B8dfHHvCtd/AJyo+yVAt24qwOKpoUPY+u0IN4ce9ZC7pihhevnRZYoLN19PwFHRtiFQUc//r7suU+zHyiYAkc5wOwAmRQK6GBIkoIsBZV1QcJjFYasgRSkn0Ogwt02xtPBPYqnXXV71EoM/Cr4ed6IZjXQTzBAbdbeduZ2uTzX2nRhI+NILQorFZ41qHl2Dfu9a4ejTtlKYOhhRfinwI9x88gyrvehXWDa393pK8tJA/EPd6hVtQAI6ghbEAQAzc5u3dYDm84WIjQR0MTDmQc2xF94IVd1KgS1guhioB3i+p7wqzHa0sAKJZnRLaH724oJwXx50tam+Cr3rkY5BrXPW7GjR8F0A7/f6AgVR7UcPt6Attm1r4bbYRTdsXzvO/A4YnjCV/966p3WH1WFbYbEX/mD0fJvu8HyO0XiT/hc43r3XUuWKph0JVZKXBtbZW0/4eP/qLfq/qxCDjAR00e+yFs+aYbHaqhVSbgMh/JYt5qeJvUe5y1wPxfOeRCaaaVix6XOGzmEhHDqP3t2BlZV7vMamuQAiBymmuVE1JNyCthgWxYXr5UfdQ19W4WNofwxbTjQOIAeR8k+TGR6r3bbNaretszqK/mwttd1kcdj+oUDRPTSHGc/EvFI+ASwGQ0HwmfWBBiHm4fbsxQWjxywq1D+4RogkkoAu+s/iqeYce9HvDZphMxHlhb+Rd0Pji9xO1wVuZ00Mi8uCJDzRDIcOuxNyc+yFEeeO6+95r96deuA0Zn4t3D0E2KKZR9fgdzFrPwNwncZwMPNChnatX8HL0fwGANDm9a7XGLMYWp5P88/ww3uMRnxUG3z6uwN0eHKr7gXzw73dR0QEoqkguhDAL6DQHwl0UdgHFOXBaNuQUKSEDLcDADO9HUs1lpK88apf3WBg5W2Lw/aIJKUR/Snc3lghEirbbitSCA/qbwvqhvnh1lYs3fegqy4R702/rmBsmk/9Enr7pqFd7C6reiLauqwO29UAhQQc1rTSqKYEFk81W/y5/yDCOSF1MG8j4HtupyumxCwDjCx2WwkIfySEWfkeA2a84XFW6q58Tzaro+gVAKcFX/cCk+vLKqNa3GgpLT6CSHsJRJM7rjFjPwjLPFbTfZIbXiSb9NBFUlnt0zKsdttyhfBWr8EcXNvG6pJEBXMgsYlm2hT9hXEgZW5UFSz/tNWTa7qQGX9n4H8MXs3Ml7K39SCP03X4EAvmAMAep2uVx9s2sX20oCbuioB6VtieyMZFbR5UMGzBl5mxI9pgnl1aUEiKtrF7MAcC0zsE3Glxt1ajJC8tMQ0WQp/00EXSZC+ynaEwVhFoUvRP8d/cZa4rE9mOMQuLjjGo0D25y89cXOd0VUZbl8Ve9BURJva4yPyt2+mSoVUAY0qKD1FV//fav+R8lwi9/ndh5m1QlEs9KzaGHjHbDyylBXmkqCHvZvCjnjLXZb0+77B9nxj/AJFuwGbwPgbOry1zhZ1yESIRJKCLhBs935ZtNuNuEP04nuf9jDPqnJWvJLJNFrvtVSI6NaSA+Um30zUv+nqK1hLh8pBqNDrSU76x9y1qI4xlUfFB8PNMVnAMAZPAOIiAVID9DHxJjNfdBvc/sfzTkPz7/cVqt10HCt0REc1UisVReA1YWUlhEvsw89d+1r63t7xa9wx6IRJJzkMXCWc202MgnB6unAEfmO8BaD4RxgSXK8Srcf30o3HH1pgyj0VCzHdBJ6B3JJqpX1n1RXQVaRsApUdAZ2aGgplAFHvORxjPio3fAPgGwPqBbktYOvvPAUBT/BFXuFsctl8T6Naw3SLGBxp839tbXrOjz20UIgoyhy4Sjkm7iTncmdu8xaf4TvA4XTcQ4+d69xBokrU540+JbFOiEs0QUwUzMxgfgHmFn3Bhq68tN3DimhiSOPSAGAbX1ZXVhPx5AQDMg2px2FYR6NawVYIrfL7W2XVOCeai/8iQu0gKi73oNiLc2HWFmzXmZbXuqjuxrivYh1tdzGBNY5wYy/x2FG26lgirQ97F2K+p/gl1y6v3RVPPKMesnP1lm2oT1S4xcKx221QQbQu+zsz/8jhdoZnsltpSLW30OAG6We7an33M4264Eus+aktwc4WISHroIik8TabfMPM2INBbAWN6rbPqL92DOQB4/VoJwCFD6wRSFOCBaHOcR9mmhCSakWA+jLD+cDsoNKHMKMesHGsbvRYxmINv9zhdl0kwFwNBArpIjjUVLQTtamZe6ClznRxuS1b9yqovwPiVXhkRHZWjWXQzisXbpsQmmhFDnaboH8iiaVqPgJ7lKJpkhvo2ELq9DWgfUQIv8pS5bgTAiW+pEL2TgC6Sxu2sftvjdK1CLx9w7lzXcoRJjUpMvxhTWjA9UW1qNmplAEJWVBNokjW38IJEvUcMDQTSCejcXOf3ben4KWvxrBkGhit8HgVuZg0X1Ja5yhLRJutCW2hOeSGiIAFdDLxl0DTW5jM4ZJiSiIyqoj6YqN5zhEQzLmYOGY4Xw1fGwqJcAg4Pvs5MVVi9xQsAOYuKTjZo6pth99MzPH7QKbXlrmcT0Sar3TafFWyxOGy/TkR9YmSRgC6iNnq+Ldu6oOCwZNRd66z6GIzf65URcIIl1/azRL3L58ddQGD7HIOf0KAVussqizzO6jcS9Q4x+JkVTXe4HeC3AcDiKLqEmF8Me6wv4zP4/UV1ZZUJOR0ue1HRBQxaRYEE+LfmOIruhSxcFjGQPywiKhmLZ1pTtdRXGbAS85ykpCktyTNaDabNINIZYudmMKYn6r2W0sKFfr/6wt7VG0NPUBMjgsVhu5tAS4Kv++E/XWE6BqA7iUj3M5KZa1o0+v6BlZV7EtGWHIftFAW0HkFnDjB4rcdqvlrywItoSEAXvUq/rmBsqk99jYCjgUCOa6/im9OwYtPniX6XZVHxCdC4Si/zFjNv8DhdJ0EWHYkEsDiKagg4IaSA+eFIWQ6Zsd6TduDiRCU+yllom6Uo9BoIGfrv4395mswXYU1FSyLeJ4YvCegiIsui4oOg8etEOKL7dQZ/6fcq301GD9dit91ORNfrlTHzwvaFdkLE7/rp6ZbmjHqKMVsmg1d79rjswdsv45W9oGCaYlDe6u20OmbeoKnaD6PNlSBGJplDF2Fl2/MnkqZtCA7m7cYbjL5jkvFejxm/BrP+0DrhLzkLbQcn471i5MhpTLPFGswB3OIpcy1IVDDPWlg4WVGVV6I5epaI5ih+pSJj8UxrIt4thicJ6EJXlqNokkqGDSCaqlPcCo3Od5dVv5CUl9/tamaFr2XmkKF1Ao0mFb2fPS5EBERKmAVxoZjZqzH/xF1WqbtoMx7p1xWMNSr0KhFF/eWUiGamaKlvjykpPiRR7RDDiwR0ESJzcdEUA/AmQIeGlnKzn/gcT3llUg/b8KyoqgDhfr0yAn3fYrf9KJnvF8MbsVbNzF/3dh8z9muknV3rdD2cqHePKcnLTPOqL4X5sgwwPMy4lcFacBEBh6tGbWPOIluYPfFiJJOALnqwOGYdbvTzBgJCewHMTRrwg7oVrpf7oy2aot0Q7kOXiO4dVZJn6Y92iOHHXV71IqHhSGa+g5m9evcw8I1P9Z1YV1b9asJevNSWajCYnwfhON13MvazQmd5nJXLSMMlurkZQBMUjd6yLCoOXdAnRjQJ6KJTjr3wKGJ1g+4wIOMAiM6qLXO91l/tCSwA4tIwxVaz0XRvf7VFDD9u50cHPE7XDQyewcDr3csY+FBjb2H98k3vJ+yFy+YaLG30JAjhhvtbAf85nhUbNwOAu9y1TmP6gd5ZByBYoPHrOYuKTk5Y+8SQJ7mrBQBgzCLbsSorr4NobHAZg/dpwJm1Ttfb/d2uppqd/0ubNfFIAnQW4JHZPDN3bcuWXSGpXIWIVnPNTk9TzY6H02ZN/ATMNgDv+kzNp+9d/k5C9pi3I8vR49cS6Hy9Qmb4mfmi2vKql3q2bcf2lBMOfp2IzidQao8KCWYCLkk9YcIHzZt3/jeBbRVDlGxbE4Hc0SpeBSgnuIyBevbzGbUrXZvCVjAPqiXX5gQp93f0LhIpY/FMa6o/9SMQLO1t8hFwp7vRtEz25opEstqnZbjVNi+Wf5rQL4lWh20FQI5w5RprV9U6q9aEKx+zsOgYVcXLBBwUXMYMPzGudZdX/jVBzRVDlAT0Ea49kcsrRBgTXMbgOmja6Z7y6i16zwLoyO72KIguZMZeAk52OyvfS3g77YWXESl/B+M9Jm2+p6zqnUS/Q4hksNhtvyWiWyLdw4y/eJyVv4h0T+aiWYea2PAqgCmhzzODsNBT5lrdx+aKIUzm0EewbEeRDZr2b71gDobHp/hPjhjM500zWQymJ0B0IQC01/NqtiP/6ES31eOseoSZL3XnmvIlmIuhwmq3XddbMAcAItxocRTdH+kQooYVmz4He2eDeWvI86BaZg45w12MLNJDH6GspcUngvgFvXSTge0yHDlwLp5qtvhznyLC2aGFvLu1BdP2PeiqS2ijhRhCchxFVxDz38Llgw/jKfee+kux7qOQ1e0dspYcl2X0pj4PUDEQWBkPhU5OxnSXGFqkhz5CscL54XJHE0gBlN+gJM+o+/BSW6pVsz6nH8wBZrpdgrkYySyLCn9IwENhD3cBwqVMvsBizVyP66enh6u7/p736t3ettPB/CKCVsaLkU1WuY9QTTU7XGn5EzQiOkmvnIAj0hX1qKazpz6Dii+6ElyU5KVZYHieQKeFqfo6j7PynmS0WYihwFJqm0NQniOCSfcGxisedU9RmpaWTkS24GIi+k6az3iKYfrEp1vf3dmsW8eWXd6mmWOfSFWVl2ud1f2++0QMThLQR7Cmmp1vps462ECg7+reQDQtrdF3WNPknc/iI7DVPi0jTU1/gUBzg29lZmYih6essizZ7RZisLI4Co8H0ctEFK6H7XL7Ws9G+YctTTU7X07Pn+gDIWQvOYEmqAb6flrBIc82bdqxX7emLbu05pqdvWa7EyOHBPQRrrlm5xvpsyamAvrJLojo2PS0CZNNxZYK1Z/xIhGF3MdgjYASjzPyCtvMxUVTRp0w4Zams3e+igo5AlUML5bS4iOI6PWwh60wb21j9fTWVdWdAbqpZsdbqbMm7gH4LELP4XkCcon5gvT8ieubanbKFJbolSyKEwAAi8N2N4GWhCtncJ3eBxWDNWZc1Vuua4tj1uFg9fVAFjr+m7vMdRXkXHMxTGTb8ycqMG4kwsQwt2wHe2e7nTXf6hVaHEWXgPlhItJZt8K7fYTT9q5w/SeBTRbDkCyKEwAAT5lrKcBhh8t1gznDD8blvQXz7AUF03qmlKWfWOxFqyBfKMUwocB4UYRgDg3aZeGCOQB4yiofJ+ZzwNwUXMZAi+KD9NBFr2TIXXRqqtn5Ylr+xIOIkNfbvQz4iPlST7nrH5HuG7PIdqxBUd4ITilLhLy0/ImpTTU7/t3Xdgsx0JpqdrjST5jQBqJTdG9gzDHNOuSfLTU7GsLWsXnnp+aCCRsIdD4BKe3P7SG/dpJnVdUXSWm4GFakhy66Y4+zcgEYayLeBNZY43nucte6SPdZF9pmGhhvALDq1FEH0iJ+GRBiKHGXu/7E4AW6x54SHWZg3pi9oGBapDr2rqja6Nf8c8D8LYP3QeMz3auqtyWv1WI4kYAugrE7t3I+gx8NdwOBFCgcsRdvWVR8Aiv0ml5+eABuv6adJBnfxHDjKXOtJvCPdI89JTpYNShv5iy0zYpUx97y6q0ATvQTf8+90vVuots4piQvM9F1isFB5jCFvnlQrbm2xwCaF+4WBv/GU+b6bfD17NKCQoWUl4hI54ODd/vhO6WurObDxDZYiMEj2150ukr8NKCzfY1xQCM+tz+PIgYAy9XFoyiV72Wg2ONtnYnVW0Lm68XQJnPoQt9H4Kazpz6T1uibTkRH6t1CoJNS8ye0Ntfs7ExsYbUXzCZSXyKi0cH3M/ANNOWkWmfVx8lsuhADrfPYUygXEKHHsacgmAh0cWr+wR811+zsl78L2Y4im2LAKyCcTEBOmqLmNNXsXN8f7xb9RwK6CK/iC61p8uhn0tLNMwl0uN4tRHRq2qyJ+5tqdrgsiwrnEpQXiCg0PzxjB4FP8pRXynygGBGaN3+905w3cT0RziPCqKBiA0AXpudP+LqpZmfCh9U7LZtrsEwbv4xAfyVC5/QXEZ2QdsLEzU2bd8jfx2FEhtxF7xZPNVs163MAnRHuFgbKCXwlQKmhhfxFm+I/uWHFps+T2UwhBqNIx54CAINv9JS5bk/0e60LCg5jg/J3AoWZs+fdzUrLsQeWv+tO9LvFwJCAPszkOAoLFNA5DEwiUK2f8Wadmdfjbpd+TuhoLbWlWtroeUJomspebPd56eS9qzeGO4xCiGHPas8fBxheBtH0MLfc5i6r/L9Evc/isJUQcJfuHH43DPzTU1Z5TqLeKwaWBPRhYvR8W7Yphf5KwA9DChkeEO51px64G3dsbYz7JSV5aRaj6cWwud9DXov/sZ9Prl3pknzTYsTLWnJclrEtdT2IivTv4DJ3mWtRX96RsXimNUVLfUD3cyAMBi/wlEVO2yyGBtm2NgykX1cw1pRCrrB/iQkWAL+zNKV/klNqOzfuF63e0kTccDYAV2+3MvgjYu8cCeZCBNTf816929d2GphfCi5jsOYneqMv9VtKi85O1VL+E0swBwAC7rIuKDisL+8Wg4P00Ie6K+emWNJbNxLo+Ogf4r+5Uxsd8fbWsxcXjFb8yr+JKF+/et7arLacKnNzQugoyTNaDOa1RLi44xJDu9ZTVvVAnPWlWYzmOwgojXQbAz4C/wug80LLeJPHai7GsgpfXG0Qg4L00Ic4a1rLnbEFcwCgn1ib0iuz7flhc09HUre8ep/P1Hw6M4eszmXmd1vIf7IEcyHCWL3F68mtvJSZVwKABvxfvMHcUlqQZzGY3+ktmIP5U/ZzsbvMdT6Ynw4uJtAsi7v1lnjaIAYP6aEPYYHkFXg53r9ctwoAACAASURBVOcZ/KWmaLPrllfvjOf5UY5ZOSmsvt6x0IeZa7ysntFQ/vbeeNskxEiSbbedWed0hQzB92oZFKu78P+YaZn+CW1dGHjAk3pgSceI3CjHrBwzG/5DhPE97mP4NfbPriuvroq5PWJQkIA+RAWGvdUP9E54YmAzwE+AKQ+ECwgwhKuHmd/1+NoKsHqLN552BBbhpFQQqMGv+M+sW169L556hEigX7b/78sAtgxkQ5Iha2HhZKOirAVhdsQbGR6NcE1tWeVzwUXZ9qLTFfBLRBQcA7a7Uw/M6NPiWTFgZMh9iFI19R7d4xqZn/TsqSz0lLlu9zgrL/H7MROMt3WqAAAQ0UyLwXxlvO04sPxdd7NBOxlcf7oEczEIbAPwh/Z/NgPYC/QS+IaQHLvtxwaV3u89mPOLgPdYvWAOAHXOyleIaIVO0ZScpvQ/JKKtov9JD30IsjoKvgeooWkbGR+4zTwrZM/5MigWt+1mMJbpfCMHGK+4nZVhk8YIMURsAzBV5zoD+BGAIXu6X2bp7DEmxb8q0tkK3WngRbVlrrKINy21pVpa8T4R9VjhzmBNg2+6nLcw9EgPfYjJWnJcFrMSsmeUwW0+9l+mm0BmGTRPmeu3ILpet1LSz2AlxBDyLtqDOQGYf14+skaldJQRgL8CmDQwTeubHIftFCP5/xNtMAcABbg9Z5FN9wyGTne7mjUFi4MvE0hRYPh1HE0VA0wC+hBjbEu9l4gODr5O4Fvbj10My7OnfgUzh8yVM4ce9SjEEPIAgOM6frjrhh/ggVvnYe/G32LqxM705akA/jYQjYvb4qlmi912FzFe1fs734GZOfQqpRLjEZTkRVwwV7fC9TIz1+gUnZu15LismNssBpQE9CHEYi/8AYh+HHydmWvce6pu6+35jHHmTN0VsYT/JKiJQvS3BwDM7/hh/nn5WHLFiZ2F29b/Aga182NuDobIfPqYRbZjrZq1hoiW6k6TtWPgKzBOYsYjwWUEOt5qMIUcb6wjZOEggUyK16yfZ0IMWhLQh4jM0tljAGWVTlErg3+CdfD3VkeqP7VEv4Se6WPzhBgIIcH8gVtDR6Vv/9nZ3X9ck/RWJYCi8VkAHRvpHgY/6ve2TveUuzb4fa0OBn8Zcg/hRsuiwrnh6rDap2WASPd8BoUUa8wNFwNKAvoQYVT8K4L3jQIAM/89mvPFrfb8cQz8IuR54CuPt/WpRLVTiH7yJ0QRzAFgyRUndp9PnwJ0ZWgbrGpzq+5g8Jt6ZQzUM/AjT5nrsr2rtzQAwN7VWxoI9GMGa93vJZACTXnUUpIX8tmRfl3BWEbWCwToHo3Mft6TiN9F9B8J6ENATqntXAJdqldGRPNzHLYHsxcXjI5YCRlX6JzJDLD2y3j3oAsxQC5Gty+nc0/4Tthg3uG4Iw7q/uM9yWlWAi2D5gP9mJkbul9mxhsae6d7yiofD37EXVb5JjH+EnydCOPJaH4xY2FRbse1HHvh+ale9V0inBh8PwAweF9tCm1MxK8i+o9sWxv8yGK3fUhER0W6iRk7NPLPryurfjW4zGovvBikhHwAMPC6p6zylEQ2VogkuxjAY2j/7Jo6MQfb1ocMPPVw2Nm34dMdtd0vvQdgZrIamEg5pUWXKwrWAmhl5ps9TtedCGzD01eSZ7QYTVV66aCZuQGE9cQ0DdS1iFAX8xK303VvX9sv+pc60A0QvUubOfZpqOoRBNIdGgMAImQqUK5ImzXhoPT80RVNNe42AMhYWJRrJFoPQlqPBxgHfJp2ZsvmnfVJbr4QiRJTMP/qmzocdc4d+OrbHn/ENwCwJbORidS8ecfW1FkTTX7Nv6SuvKr3tS5bdmlpsybmESgvuIiIUgh0LAjjItbBWON2um6Kv9VioEgPfQjJsRdeSaB7iCgz4o3MXzC0qz3O6jesdttTIDo/9BZe6HG69BbZCTEYxdwzT8v/JZpbOw8P8wO4DEM4uUw0rPaC2QzlzUgr4yNhoNxjrVyEZdB6v1sMNhLQh5ichbaDFQUPgOjMSPcxMxPwcpj7XnWXVZ6epCYKkWiTAHyK9jMJxltG4ZvXIx8MFjTM3gLgSAAhq8CHlSvnpljS2t4jwhExP8toYdaWesqrViahZaKfyKK4IaZ2petrt9N1FkO7lsFhc6cTEekFcwbv87N3vt4zQgxCkwB8jPZgnmo2wLXWEfGBERnMAVjTWn8TXzDnSg3a8RLMhz4J6EOUp6zqAb9XOZaZ/x3LcwQsrXPW7EhWu4RIoI5gngoEgvnHz16PSQdnh33g2mXrRmYwX2ibyWFSOzO4Aszf6hRU+QkXup2u4mi2vorBL+yxmmLw27t641cATrOUFi4kUm4HISPiA4wWn8Kf9E/rhOiTmIP5Ey+9jwee7pHF9DSMgGCOZXMNvKf1Qb1jkpmxy2dqPq++SW20mIzFrNEhYOxjg7a5bnn1zoForkgemUMfJrIWFk42KMpDRDgp0n0M1sB8t6cp5WasqWjpr/YJEYOYg/lX39Rh8pl/7r6f6xIM8wVwHayltpug0B/1yvyEC+tWVEriqBFCAvrwQjl2m0Mh/Bmg9Eg3MuMTjf1X1pVXV/VX44SIQlzB/Mhz7ui+ov1BANcku6GDgcUx63Biw/sgpASXMfOzHqfrvIFolxgYMoc+vHCt07WiTaEZzHgr0o1EOEIh9W2Lveg2LJ5q7q8GChFBzMEcAAovL+sezLdjhARzAAQ2PKAbzMH7WMOigWiUGDjSQx++yOKwXUfAHwFKjXQjM3/MoJ/UOiv1jlEUoj/EFcyDVrQ3ABgxR35aSgvySFE365WxppXKqvWRR3rowxd7ylz3wKfNAHNlpBuJ6CgCXDmlRZf3V+OE6CYRwbwFwIxkNnKw8ZRXbwHzwyEFjLc95VX9kjTKap8WeSGu6FcS0Ic596rqbe5c14nMfAMY4RfBEfaTSq/3Y9OEAOKcMz/o5N8F52e/EiNhRXsQblEWAfx5t0utmsLXIlK+9wQYs8h2rMVuKweydmWXFhQm810iejLkPoLkLLIdSYw1BCoILtOAH9eWVa4diHaJIWcSgF8B+D7aAzGAzwH8FMDbMdbT1wVwwAha0a5nzKLCYlVTNhBBZeZfe5yu3yXlRfOmmSzWzAsIZAdhdsdlZvzd46y8IinvFDGRgD4YLJ5qHtWaOWr/6i2epL9rHlSrxXYjFPoNADMAMPBPT1nlOUl/txjqJgH4K4C5CP/ZUQ/gVvR+RGlc+8wvu+kx+Pw90oyP6GDeIcde9HsinOvxts5M9HHIY0qKD1GMvEBhXANCrs4trS3e1gn98vklIpIh90EgR7PcnGI077TYbY9aSm1zkvqydfC7y11/8sObx8xbGFxH7F2Q1HeK4WAJAvnUT0LkjkAWgLsBbEMgaOuJKwPcJTc+0j2Y+yHBvFNtrmkZszYvgcGcshfZzrA4ip5TDfyZAvwyTDAHALPJaJZ00oOA9NAHmKW0+Ago2lYCmTquMeMTze8/v25V9UdJffmyuYYxntaj9q5w/Sep7xFD3VMAep7YN9oA5TvpoDQVlKZC87RB+2g/0Naj98wAbgPQ/SjOmIL5V9/U4ZRr7w+eL/8WQCFG4Jx5so2eb8s2mekqAi8E0dTon+TP3VbXVDmlbWBJQB9gFrvtGSI6N+jydre39ahED50JEYdtALo+2E0KjGeNhTJefyekb2s9/NV7AX+PNVnvAjg+uL7egnmYIfYNCAz5iwTKsRflK4AdxBf3ts01HNbwfU955fpEt01ET3K5D6AcR2EBISSYg5lvkWAuBoEewZwmp8F05riIDximZ8EwPQtt63aCa9s6Ls9sr+vrjvoIiBjMr122Dg8+XRO8VPvP6NnbF31x5dyUnLSWSwhkJ0J+4GIf+ngK7AAkoA8g6aEPIIu96HkinN3jIuM9t7PyeETYdmJdaJsJlc7WAKsCbbefaEtdW9tbWL2lKdltFiNGj2BuONUKdeooAIC3wg2kKDAW5kSswFtVC+29hpDrBOCxv1yGi88M3TYeZoi9AYE95jLEngBWu20qB4bUryJQ5M3+QRi8j4C10PB1cP54BmtezXdYQ3nNZ4ltsYiW9NAHyJjSgukhwRyAX8HvESGYW+y2uxhYQgAFVjQqUBmwGk3NbLc9C2j3e5zVbySv5WIYmQSgY3fDbnQtMNMN5v5P98P3Zi2QosB86SG9Vm4szIHfYoLv3+4e168+L183mD/x0vu48pZ/BG9JkyH2RJgH1TK28GxisjPjdCIlts4c81ZmLifa93e386MDmDfNZLVmLem+UI5AipGMCwD8ItHNF9GRHvoAsTqKHgJwVc+r/Ll7j+swrINf/5nCXwLKH3qrm8HvMHBjbZnrtYQ0VgxlkwCUALABmAjAAiAD4b/MN6NrbzkMp1pBuanwvfwtuLYN0Qy7B/N/ur9HUJ86MQfb1vf8zH/ipfdxyY2PBH+TXYret7+JCDIWFuWmqto1DGUBAb1/C+uGwW1gPEXQnG5ndUh+AavD9keAbgp6aI8713QwllX4gu8XyScBfQCMcszKSWHDzpBDFZiXuJ2ue/WeybEXHkWg94nIGPWLGGvcZrbjbldz31oshpiOxC+Xo1twjtloAyjDAP4mkGBQLcqGYXrPVOnaPh98FXtg+uFBEasKDuozjzwI7zyxBIBuMG8BUABga9xtH+EsVxePQoq2CoQLuu+giQaDvyTw6ma/8sCBlZV7wt2X5SiaZAB/Rh2Dhe00jc+rLXc9G2/bRfzUgW7ASJQ5a9K1IPyg+zUG70OLckXTuzva9J7JmHXIo0R0WEwvIhyX5kNh0+TRj+Mjt26vXww7SwA8DyAfQMiXvzQjwagSplpMsKarsKarqGvydwZTg0LQOn5o1YD9PiBNhXHeBKiH9DyR1//pfvie/xaGWWOgZEc+sE/JNoOyDNA+Cyzz+NazH1/vrkdLiy84mG8HMBaBKQARp6Z3d7Sl5R/yByIaG839zMxEeIWJf+6xVjmabt/5ZtvmHY2Rnmmp2dGQnj/RFry9jQjmppqdkh9gAMgc+gBg8GUUOjjyuOehjfv17s9eZDsDjNPieRcRnWKxZt3kCWTvEsPbxQgkdemUmaJgqsUI26RU2CaHdtY/2dOK375aByAQzBufPx/3PbsNt6z5AC0de8qb/OA9LcDoru8H3go3tP/uh3LkqM7Fcr1Rp46CtrMF2n8Df8wffLomeCX7dnTfIif6hMDlAEWcsmBwHZj/6lWV8oblldtjfwuvAejMoErPwFJbqowM9j8Zcu9nmYuLppg0fBpSwP4T9eapsAyKdY/tXRBND3kErBGoGsyHgijsxCYzN3jMGC9/wYa1SQjkUycAyEpR8NMTs3BEbuSe890b6rB5ZysA4KozJmPldXmdZbMW/Rvvf9a1Sp0mp0Gdmh5YGNemQTlyFIxzrTE3tO2f33QO43cjwTzBxpTkZRoMpm9AlBZcxsw1DHbWNqU8jjUV4Q9t6k1JXprVYK4Nnj5k8A88Za7n465XxEVSv/Yzg5/PCrnI8Lhzq3WPOLXuLvqJXjAHAGKUuMsqi9xO10Ea+FRm1l0ER0SZ1lYtT69MDBu3oD2Yj81QUXbB2F6DOQDsqO9au3TTJUf2KNu04lRceXpX9lb+oikwD+7VYDjVGlcwBxCYb0/rMdvXAAnmCbd39ZYGJno0+DqDd3pyXYW1zqo1fQrmALB6SxMDruDLBBT1qV4RFxly72dEsAVfY6BaN2XiUlsqt/LvdIbnweA3PU7Xgx0/tq9of83isD1CoEtD76cxfW+9GCB6K9WDdZ5LXdfsx7VPfBtVxU3ergHv/EWvwTLahGMOzcQTNwf+mK5acgIAYM0rXVvAVVt21MPs4RjPPQjeR3d0/JgJYDZiO6lNRIEYZSBc0+MaaIJ1d+EZblS9mKCXuEMGexkzE1K3iIn00Pvf8SFXiHUXn1hb6WdEdHDwdWZmZrpev3r6l95V1kgWGQ09sxHYE/4FgF8icDDKVAQOQAn+p/PLudcfCNTR/NNdQ6MX23c14rnKb3DR77o6XauWnNCjp+6vrIO2q2+zN8poI2hyj5Fg3T+3om/czsr3oNODZqLSRNRvteePA1PI+h4G4hu+EX0iAb3f0Wida6db7UXHdb8ypqT4EBCHSXNJT9Q6K2v0Shgckr6LAV9tRuOH8bRWDJiLAbyJARqKfs71DabNfwkbPwyciLlqyQmYMSWzs9z7/LfQ9vVtq7HpzHGAqfMjKAvAn/pUodClaXCGXCScnbWwcHJf6s1xFBYwDG8SIXT0jyhsciyRPLIorp9ZHLYqAhUEX2ewRoxnNfAjxPwlFMVJoFk697V5Nd9R4dIrWh22JwCaF/TQ225n5YkJ+yVEsvVY4GYA8OOcHPw4OxuzR+kPdb+9fz+2NPWe+Xec0YgJRiMerqtDxf792N6mu0uyEwF47fY5KD46MMo/bf5L2L6rfUBJJRgvnghldPwzd0H7033Q2Won+mjxVLNVy92BoF4zM9/hcbpuiLW6bEf+0QobbwH4IiLSjSEMXuspc/04zhaLOElA72cWh+3XBIp7CxmD7/GUuZbqFpbkpVkM5m+J0ONTnxnXe5yVd8b7TtHvngFwLgCkEuG63FzkGkKDZl5aGoqDAvzGoMC+x+eDq7ERDX4/Pm9rwz6/PzgbW6+mjE/HRw8GdiZ9ubsR0xe80rWlLQFBvfXRr4Cu3v6DQM85X9F3elndGLzPZ2yeVH/Pe/XR1JHjsJ1CwBIwzg4XyDv4mc+qc7pe6kubRexkUVw/a2vBCnMK/xSgyCdb6GCgvhX+34crzzGYLtQJ5n4o9Fg8bRUD4k9oD+YA0MyMP+9O7vIHFeiRa9gAYJLJ1Nl7376rERs/9KD4aAsmjU3H1lWndwV1P8P75E6Yr54c9/uNJ1nhfW5Xx49XA/gd5CCWhNL8KCOFr++eaZJAow1tqT8D8Otwz2UtOS5LbUu9nAA7gY5qf7A3T0kwHxgyh97P9j3oqtOILgJz7CejadpN+8s21YYrVogWhl7lFzwrNn4T87vEQAnZBZEoo9v/KVZVXGE04oX0dOzNzIQnMxNXGLtGuv0APjnmGMzJ6Fw4j2vv2tz575PGpmP9H07s+lxv0wK97Dgp41NBB3VuYyYAf4u7MqGrdqXra4BCsrcR8POcRbae+xXnQc12FJxmsRetNXpTv1GIlhO1B/Ne8Tp3o+nyhDRaxEyG3AeIdaFtJqu0loCjo7mfGc95nJXnIcxJbBZH4fEEZUvwdT/xmXUrXC/3sbmi/1QAmAMAhxLhIEX/O3e+qiI3TBkAjCXCHg78Udno86Geu/7Y7GPGj0wmLDT33Kd+/L59+Lz9vjsPPhjXjR2LlHfeQcdg+Ovd5tIBYN2GHbjitk1dfyBHG6I6hU2Pts/bfRsbAzgU0ktPqGxH/tEKDFuDc6+DsYeJV4K5HkQzKZD5LaZV6sz8NYAbPE6XjAYOIAnoA2nZXIPF3Xo1QD8n4PBwtzHwgsfEF0bK9Ka3/5yZt3mcriMQ4ThWMehUoD2g/yklJSTodtihaVjv9QJA5//+xx8YOA89gTzQM5+kKDhOVfEjkwk2nTn53zY34+72YfZzMjPx1JQpuGD7djzXEKhxxpRMbFp+ao9ngoN6PKexdQjKIPceIHuZE81qt/0NRIlbrMbwaIQ7ak18n2SiHHgS0AeJ7NKCQoWUi0AoAnAUBaY239PA99eWVT2MCEF5TEnxIaqRt1PQmgiN4ah1VoZuWRGDWQWCAvrK1lY81taGLzUNBwD9s3URCNoAcKyqIosIxQYDvm80YmKEnnx3OzQN0/cH8qxPMZnwyTHH4MvWVkz5MLDjkQC0vHBByHPrNuzA5bdt6vw53pSwQb10ADgRkmwmobLt+RMVGD8MXmsTM+YvANzj9rXdj9VbYp8+FEkhi+IGibry6ioAVfE8azD4fwEoPf+/ZHhqzfzXRLRNDKyFZjMWms0ob20NKSsN04OPx0RFQQoCZ5d+1t5Tn2Q2Y5zBgG99PjCAhfdu6ZHvHQDmzZmIf7+7uzObnPbf/fBPSIk5m5wy2gjKMYFrO7fSLYf00hOqzlmzw1JaeCNIKY/neQZXMHBfba7rOd3slmJAyaK4Ic5SkjceUK4Ovs7Ey2UIbHgpNZtD/km0w9p78wzgV19/DQD4XmZXQpmn3/5a97lVS07AlPFdx6v6XnNHTDyj7WqGt8Idcl2dmdn9xxnRt1xEy1NetVIDPxTDI25m7U7W6EhPmeuk2jLXMxLMBycJ6EMcGUy/DD3pCPV+b9u9A9UmMXQ809aGHVrXZ/OlJlPnvz+5dy8AYPWkSZ1zcw2N3s7sccE+evBMpHRkfmPA++RO3fvaXvoW3hd3Qz0+K6QsqFdPCJzvLhKs1mpewMBdzKw7lcdAPTMeAfxnu62mgzzOqus95Rs/6e92ithIQB/CshcXjGZCyAIXAu7cu3qL3tooIXo4wWDATc1dAzndF+Ftb2vDV+1D7zNSu85SX/Zw+CzCW1ed3mM7W9tLXYfEaLua0frQF+AdzTBeeDB4Twu8VT13Yer06sfG9AuJ6Cyr8HnKKn/O4KM1xh/A/CQz/g5ov2KN53qsJqvHWXm5u6z6BSyr6FuOX9FvZFHcEJexeKY1RUu5khglIJrKwDceb+thslBlULoYwAIE5oXNAFIj3x5ZJgIr15eYzTivW886VuMbGrCr27B69+1rV+fkYPWkSXh7/37M3bYNAGBQCI3Pnx+2vpv/+gFuX9fVmTOeMx6+mr2BFexpKoznHgSA4H3sKxh/NBHK6K498DpnpcvCOCGiJAF9+KAch+1khqbUlVW/OtCNEZ0mIZDK9VgkcRHqFUYj7ktL6/1GHZMbGvB4ejoK27eylbe24pctgaCaSoT9MwPr0nLefx8N7Vvj7iiZjsXnHha2zkmXrce3e3setU0HpcD0w4Og7fPB+48doLHmwNno7Xxb6+GvrOv+iGxdEyIGEtCFSJ6nAJwHnb9nCgEpBkKGWUFOmtqjbNc+H+pbuua1U0wKzMae9zQ0ekNeFm9Q/8GBAwCAf3XLDGdpaOjcHrfhsMNQPGoUfvX117itPQ1t9/zuer7c3Ygjrnqpa396jgmmeRM6gzkAmK89tPP+oENaAGA7BuikOSGGKgnoQiTeJAAfQ2dI/YfT0nHxTJ0TdNt5Dviw9J9uaO2RMFLgvO/ZbbhlzQddB6UAeCg1Nebh95Wtrbi5pQWebsPulzc2Yr0vMHV6XGoqNh8VyPzZkTmOAPxvzVk4JDf8F4iF927BX1/+ovNn4znj4X3+W8DPMJ4zHsr4wH8eb4Ub2n/3d39UgrkQcZBFcUlitdumZjvyj8ayubLXf2TpEcyVoK/M1V+1hD7RzUpXQ2cwHzcmJWIv+KfnHoatq07vWlkOYGlz7DsVF5rN8COw4r2Do9viuPe71Xl2e9BnAH987OOI9a68Lg+Z6V3z497ndgF+huFUqwRzIZJAeuhJYrHbVhLRAgCtDP6QmLb6FO2BvSuqNg5020RSNaE9mI/NUDHrkBRUf9WCaWNN+O53UnFEbuS941c8uqszoD/8i1m4eM7EXl/45e5GTJv/MnztD8Yz9H7kvn3IJcKb3Y5j1Vsc1z1znEEhTBqbhi93N3W+GwAy042YO8OKO0pm4NnKr3HD6q2dZcpxmTAWBg4abHvpW/AXPdZuSjAf5qz2/HGsmBQ5MCo5pPeYJATqSIphJtDxIBxv0CBHCg5vf0K3nvld5+QCAGYebMYLHzfivrfq0eZnjDIrnWXdNbZp6BYXowrmQOD0s6UXHN65svxRrxf3xdjw0w0GrPX2nJe/1mzuXBz3VH09Vk+a1CNznE9jbN/VGFJXQ6MXz1V+g/VVu7DmxnxMGZ/eeZ/2WSNQmBN8BjogwXx4WTbXMMbTepTipxlEPIOIZoAxA4RcsHYPgKUD3cThSAJ6chCIjw0eANEUen+A2iP6R+fRp9/JCQw1319Vj4rtgSFrowpMH2/GFXn6c+jppp4zYB1nkEfj91cdg9UvfIaGRi/8CMyB/z09vdfnOtyQkoK1Xi9+2tTU2bsvNZtxS0sL/AAa/H5s3L8fxaNG4Sc5OZ2L4zp+L2P73IJXY3jbV9P5NMYVf96EK8+Y3BX49/nQev/ngL9HPpNnEVg8KIagUY5ZOWam6SBlBjHNYPAMuFuPJpApMKnb/jnY8XHIJBkAk0SG3JPAuqDgMBjU//W8ys3uPa5RWBd6tka2I/9o9htp7zjTf6NJ4pC15Lis+nvea4CcojbYPABgPgAclWvCvBkZuPetesw82Ixzj8kAAdi8M9DjPfPIDN0Krnx8V2dA7G0lebC3P/TglBs2dP68ddSoqA9mAQLD7i3M+KLb4rifNjV19tznZGTgtcMDhwJ2P1b116dl95hK+GRPK+57q77HSn1C2D+sSwHcE3UjxcBZBsWyu/gwUvwzNCgziDEDxDMINCGWahhc5ylz5SSrmSOZ9NCTwK+qM9Sga8z4QC+YA4DCxltIxcUWd2sb2Ys+AvH7mh/O2pWuTXr3G9pS11kctlnEtBXE7zPT+wTvv9zOmm/17hf95oOOf/H6GUfkmuG8YCw8B3z442t12H0g8H//3Cnh88mceUQ6/vVRoDe7fVcj1r25A/O+G93Q++yjLZgxJRPvbw8kCbyssbHHnHhvOobdq3y+zj3pHT13ANjYvr0NAIozMrCh/edVroYeUwhH5JpRdsFY/Oy5PZ2/s04wbwFwGiRpzKCUvbhgtOrHdK291w3iGeTGsVA4FVC6dbxj7xMSKDt7ccGEuuXV+rmBRdwkoCcBkTYjZAMBRRhuJ54BEAhkAuE4gI5TVP8T4eunGQBGgzAboNlEAFg5EYAE9EHC3RgIZN23oR2Va8ICWyasGeH/2l0yczTe+qy5s3d7zV2bUXBkTsTtYd2tu9nWuUDuP5qGZ9raot7Gdl9aGtY2NMDeEo3Q9AAAIABJREFU1IR3RgemBSYqCg4lwufM8AG4d/duXDd2LG4dP74zc9zuA354DvhgCfq97jonF/dX1ePNz5p7rA1odxMkmA8Ko+fbso0pmENMMwCeQYQZ0OhQEPoUuCNRfOoMABLQE0y2rSUB6cwRkaZt1bsXS22pYApJuaX5Fd0vAIHT1RBy2LRfhX79YkB0fPz95uVapBgIvz4tGzeflhMxmHdYdkYOOvLItLRpuPB3lVG/t2OBXIdYt7Edqyj4nLnHgS03p3Sd/eN0B5K/zB41CuMMXb/LSlfPowOufHwXfv9qLc47JgNrLx2Py/NG4ajcHl8szo2pYSJpDClangJ6mgi/IaJzATq096f6hhRN5tGTQAJ6MpDOog9FP0DntNIxRAgaoefa2pUu3XMqNYNJ5y8Cf163vHpfHC0VidUZpMaPDgS7y/NG4/6LxoXdrnbFo7tw2SO7cPeGrpSn1gwDFhR2nUT2/vYGLH92W9SN+P1Vx2DcmEAQbkBgHjxat7UfwtL9wJbzTabO4/w+67ZX/Sc5XdOgn7i7rgNA8eRUfLynDUv/6Ybry2acdWQGFth6HI16XNSNEknV5lcTvliXGfvBXAnWnGB+MqQcsjAuGSSgJ1jWkuOyCDgk+LrX2KTbgyadDzZG+OF5Ak8PuZ8hq+cHh1kd/3LKYYEhcttk/flyzwEfPtnTiptPzcakMQa883Ur3Ae61kPaJqf2mGv/3SORk7gEe/OuuZ2jBGu93h497khsBgMyAbzk67k285T23nj3c9L/cPDBnXN2GgdW9APA3RvqcG1hFhYVB76UrHi7Hq4vm2HNMCArpfMjp0d0FwPnwMrKPWDu83QdMz/oJ1zYpmCqx1mZ6Xa6it3OKofGvCr0ZgnoySABPcEMrakhf1AZ/GX9Pe/V691PxKF/sJnDB3S93n+ELwCi38xGtz3o4QJ5h4e37MNvX63DHRV78YOjA8PSwcPx1xZmdQ69NzR68VLNrqgbM2lsOq48Y3Lnz/YYeuk/NBrhB/Dbbr307pnj/lbbdeRpcbf875vas+C9v6sV1z7xLUDA2kvHY+6UVHywqxVA18iFGGQoik4BcxODNzHjfjB/GlJM/Nb/t3ff4VFVeR/Av2dm0hMCISEgJaGFDoqIJICggIruIi3qqri4Ksuqy6K7ln133VdXVl10196x7GKPCPpaQEQDQhJ6F0IoSWhphIS0yZR73j/ulDvJzGSSTDIp38/z5GHu3HPvnCHlN6f9TunLGavKX8o4Bs08yFpDbf17CzkYiy5t2m5C5BEDup8JXSMDrptPqlJ4Duhw01XlvTy1kmX2B2N7u+9eL6m0YO3hSpRUWvDAlBjcdmkUjBaJlzeXOVq3dU3UfDB4Z21uoyqkTb262WpFlsW3ba1fDA+HHsA7mu71ZIMB8UJt8xdYLI590t9JSHCUqTZLZBfV4rcTujre17L153D3hK64WzOEQG2PlPX/RkmJkwrwJKDcJBUxtLhHZlTJK5mXl7yasQgC6+qWdzd3CAAqX9pdLCVcPo0KCF13XfBI/70DAhjQ/U5B41rcUtTvQtdJ9+Pt+P2gEABD6j5tUSwM6IG1BMBE+8F1w9wndJEA/u9gFf7wRTEWfnwWhwtNuHdiNC7tE4Ldp2vdXjN7pLMFvPVwqdsy3rxyn3P30ca00pP1epQDLh8CrtZMglt2Vv37bM8cZ/fNoSokJ4bh37PiMKxHMA4VmbBsvbNFX232reufWpnO3d8oWXLulYy/FL+S9WnJa1uy8Rgc3zx3HwDczh2yn0L9+7tv/FBzMKD7mZCo90PqKUNc9H3j+wsIl7RhErAUF5f97K58rBI7QtRZaiglKspf236iOXWmJnkTat52CeAFaL4vf19figUfnsW9qwqxbP05rD2srteOizTglXnxuO3SKIQH6bDjVC1e2lyOU2UW/P0a93k24iINjm73knL3Qd+b1Cl9MbCX+gHjhJQ+t9JftWWLe0jT7f6gZrb7N+XOWe3ayXF7bV3rcZEG/HVGdzx/Qxwu7av2WJRUWpB33vH6xxr9ZqjFKLJ+o0AIMdzT5lJS3avetby7xozzZm7u76U8NQkDuj+lQi8gRtR9Wict+90VN1j19Ze3QR5C2s8md+WFoqtfXsh9YMa41jQJaiC/G262R7VTJFBmVHCoyISVOytw6wdqgH8rqwwDYoLw6rx4/G1GDKYODIPRIvG3dec83QoxYWpEtygSaZtONrrCbz4wzvHY11a6ff35fkVxTKjrq9O5dLtvqVB3SftH796OCXhmqxq47eIiDZhpy4r35AaXHoaXG/1GqMWUxkVkA6j7iTGkW4FpqLvy50LkASnrJsoS3bsvTu7trrxU/07VfZIB3c84Q8WPYmIuHwKB0LrPC+h3xd2Tsl9C7oWUexSdbm9pWOU+Ue1mPNxdV5aNIuQYXd0ED16688nvbgLwETSpNuINBgwJDcXlEREosVhwrLYW5VYrTphMuGC1unzSKjMqSD9Wg/RjNQjSA2N6hWBCYliD48vD4oNRWKm2lJ9Jy/Y5c5zdpBGxuGJULDbtL3G00icYGv7V/2toKO6sqcEzRqMjv7t2E5d/FxVhoi0T3ZiwMOyxteY35FTX2/NdmzUO6mo6pnttSx5Lt8h7kw8KiLHap/XqevED9co/l1mDe5NzAOES8HV6ZQyAektuFWnZq0eQy3O24UYvWYGpsdhC9yOdvn4LWiUiIDBBCPFbodO9pgcyYqsjKoSQD9cv622Ge/3ufOktAx350yRogjmg/hUqt1pRbrXi4rAwvJmQgA1JSdgxbBjOjRkD89ix+CAxEVMiIxGtd001YLYCO07V4uXNZVjw4Vk88EUR3soqc2nd2l0xwNkRsO9YOfKLfB8Lt1uhaaUv9LGVPjc4GNEA0jS7sGm3Zf3ugjP1wYKYGMfjnBJn+bWHK7Hw47PaYA4Av/C95tRahNvJu7p6c3wc3DU+3PQiAu57AAREl+j7xic2rpbkDVvofuR+SZnHsgLuumwFHo29J2WWgNwrhdwrpW7vuRB5AM9l1gCovwbdywcA8huXlrlWjZTYU1ODW3JzcWtuLrro9egfHIxovR432DY5sW9okldbizdKSrDq/HkcN5kczRJFqulTCyvV1ntCNwMeuKKbI5XqkB4hCA8SqDZLSACTH/gRee9f36g3kBAf4djGtFBKvF5bi8Uh3vdmB9QlbCvNZpcUsvZUsDVSOnZgm921K/5oW59+9JwJz20sxd6ztY6NZjRuBlO+tk1S7oVw/RH3Ns4t1PI3udzC099ADz0AtmFHzgHyE7bQ/Uk2f5KHgOgiBCZDiPsEdG/pBLbFmlAZe0/yEQERoy0rIZVzYdX1u8PIn+oF8y5A/XEVOFvse2pqsLGyEg+cPo0HTp+GYdcuhO7ahbGHD2NrVRWmRkXhg8REPBQfj4vDwup9qs47b6k73uxIVAMABaVGDL9zbaPfiHYs/WnbPucNsS9he67W2biaHeTsOv3DKTUdd0JICMJswcDe+1AnmBcASATwSaMrTq1Cupvp7maSr4NOcbe+3MtMd3cT4ziO7k8M6H4kBWIaLtV4AkInRP1874A4imf3VbXEa5LDu9AE831RUciLjsbZ6Gicj47GNxERWBAUhFE6ndsgb2eBGuw3Vlbi7XPncEtuLpYXFuKEye38RxRWWh2z4wF10xZNljUcO1uFhNu+blT3+6QRsY516eUAXq/1bdZ8sl6P/ZpMc38LC3PkKt6rmQUf7H6r1gKoW6T2ApDnc2Wp1ZmtBndL0XpGLk7p4aa4p/0mknB/svvJom7m+3Cmu38xoPtRySuZl5uDqrtJRU4F8AcF8h0p5U5I+NYcaiR3azvJr5ZCMywySa+vt794ssGAF8PDsSkqyhHknwwNxdLgYEzU6xEvBLrUvatGudXq2FfcAODiMOffwu+yncG6pNJSL8taQakRSQu/xe9e2OnzG/rrrcOcj31spduXsGkzxyXb5gRIAIvy1DjdxfX/5m2oLfJe4AS4dqH8tc3npUS9ZRTBeqvboKvuNyFdlmcICF33WuE2YYzbHgBgUJMqS25xDN3PbCleN9q+VI9NNcQUVw3RCcMYKGKMEHIMJMZAiJ7NejEvM+LJZzcBmAb1D0smgL9ozt2nLfhqeP1MlY/X1OB1k8nxiU0PIFYIDNbp8IugIJdx6pOKgq/MZmyxWJCvKMhTFGh31PlvYiJujIlBn337UGCxuGxL+u9N51FcaUV4kNpZUG1WR+AlgHfW5eLDH/Ox4oFxDc6AXzJ7MJZ9cAjlVWZYAdxWVYX3I9wnwrGzL2FbYzbjb7YPHP8TGorrqtTOoVVlZXgzIQElzjXuRgB3eb0ptU1C7gWEyw+RTurGAFjvtrzEjxLoDiH3CkXskzpl77niC26HAc1Ww94goXwBIfdKKfda9Lq95S9lHvf/m+i8/LvJLTVK5OKUHsF66xj1F0YN9FJiqBAiqOGrAQn5y5JXMr9q6Xp2UEsBPIn6ExMlgH9C3a+7DLZNRBYEBbnM8K7rpKLgndpabLBYkKMoLl0yoQCihcBlej3uDQlxWTJ2W1UVvrYFwn/17o0/xMdj3rFj+MKWuGXW8AiXJWDZRbX4z44L2gQtLq4YFYv1/5zi9Y1vPliC6Q9udEzK2xcVVa/nwW61yYTna2uxT1EQCuBstHNPlaEXLqBQqnfpaTCgwBnQNwKY6rUS1CZ1vydlmU64fKiFlHi/5NWMBYGqE/mOAb2tSR0eHBfXdbgilDFCijEQYoyagUnUSyVmleZ+pa9ub3ymEdoF4JIGyhyFm+7AAULglfDwBtdx21vjX2uWfB21jUOvj4x0BNDXa2vxZ1vX95TISGxISsInpaW4NTcXABAfqce/b1CHMJetP4dDReqYe49IPRYnR+N4qRkf7qqAolnJO7BXBH5++1qv9bvxiUx8kXkGgDprfVcX54eGk4qCe6qrsd9qRagQGKfXY25QEOYGu+xnjr/X1OC5+nMAjACGguPl7VLc75JToROfuj4r9xe/kul5+Rq1GQzo7UT3xcm9dXplDBTdGCnEGAjZv+SVzMsDXa92KAeaQN2zWyimjI5Fvx4RWPl9HgrO+zau/AuDASsb6Kr2xUlFwWhbxrWBwcHIHqkOP4bu2uUYW//g1l7ILqrF65nlGB4fjFG9gjEhwbW3QBvsAd+CevTs1TCa1A8Z74SFOZalZdpa2skePrQ8UVODNWYzjst6+UAYzNu52HvHJwkYsrXPSSnNJcXlkZ4yWFLbwYBOnUk6gCmA+oO/fNFoLJntunjgt8/vwHvf+RaPogF8HBHhU9a1urRj191s3ethQqDiErXjYNyhQ47Ma1MHqtnkMvNq8PJm565sf5sRgyE9nGP0b2WVIf2Yc+LaHdck4vU/XOqxDi+uycGDb6oZOeOFwOEunqfv2bveDypK3XyfdsegzkVgMG/PHoMurij5mASOAnKvlLo9il7uPf9y5gEwo1ubx4BOncVSAM8B6g/9yofHI3WK+wlkmw+W4GxJjcv5zQdLsHJ9LlZvOYPyKrNL+YbG192JLS9HiW08OrG8HPatTixj1bwb2m73rqE6vDIvHgCQmVuDMqMVXUP1bvdc17bUDTqBqq/meq2HtpX+re3DSZbFgj1WK7ZYLNhutTrGyd0wAlgL9f+WgZwowLhsjTqLZ+wPli8ajdQpfZFfVI0ZD290SdKStukkPvg+D29+cxxbDpY4np80IhZvLB2HorRZeDB1iMsn4ZVmMy69oJ2v3rAgOLcmHaVJC/tCYSEA4KaYGMcSlDKjguwidc14cmIYZg6NdBvMAeC3yc5Ja75s5jJ+iDN1wsyqKnQrL8fMqir82WjEVxaLu2BuhbrT1s1QJxTOAYM5UZvAgE6dwQrYlmgO7BWBJbMHI7+oGqMWrcNP+0vw+O0j8NKaHETPXo3bnt6Gd9florzK7LF/cdkdI5H97rWOJC0AcFxK9Covd+xM1pAQAB/aJpRdpgnomyqdyWSu18wo/+aQb/mD4iINiI903q+g1PucgG6RwV7P2xjhDOIGqBMKmfGNqI1hQKfOwJH43J7+9M5/bYfRpGD5otEoOG/En97cB4tFYuHVCTB+Mw/bXp6OSSNiPd4wIT4CRWmzcMUoZxkjgPEVFT4H9T1WdTR6hiaV6gFN8pb7ezgTdO067fte6DHhzoBeVeN9//MDueXaQyvUJHL2PAr3Q00OEwYGcaI2jwGdOoN4AOjeJdgRpLdll2LMwGgsmT0Yj6zYj+iIIPz89jV4Y+k4rzeqa/0/p2Dh1QmOYyOAybZZ696M0uuRbwv8yQaDI5VqnmYZ2KSoKPS0TbhTJFxSwXrTLcz5a71hT5HHci+uzsGxsy4t/2cAdIW6hnwq1Axv7E4naicY0KmjmwTb5M8RCa6zuNP+mux4vP3laUiIb9oytDeWjsP7D493jKuXA/hlZcPBV1uin21jEwuALZoPBL/u7kw/oE0F683AWGeLP+PgObdlHn33AB56a5/2qXKoyXSIqJ1iQKeOzm2Tu3zNHEcAX/fPK5oczO1Sp/TFSk1Q32y1Nrj5iXb51yTN0rf/lDp3WvtH796OyXF19hR3YZ80BwD9Y5wB3aJIJNz2tcsEv0ffPYDladnaOQIFgJddtYioXWBAp45uh/1BebXZbQFvY+WNkTqlL36t6X7/q9HocTz9etu4uX2m+680Wdg21umyH6nZsOWT3e5n0z/1g/NDgH3/dLuCUiOuenAjIn7xOXqkfoln0lzyhqwBd0Ij6hAY0Kmj22x/sO9YeaO2G22KN5aOw8BeamvfCuCeau+vZ58Ypx1HP14nneqD8fGOx1vz3c9atyrAcxudQf3J62IRpHctY1Fk3dn7x6AuOyOiDoABnTq6BKibrEACGLzwW4Rctwo9Ur/E8DvX4tH3Dvg9yH/75GQYdGoLebPV6miFa9l3YdPmeh9uy+8u4VyPDriuSXfX7f5WVhm6hOiw41QtMvPUWfJxkQa8d3Mv/HJ4BHpE6l1a7BrpjX5zRNRmMaBTR/YU1E1WutY9UV5lxrGzVVj+aTYGL/wWw+9c6zLO7M6j7x7AjcsykV9UjZfW5Dge15UQH4Gn7hrlOL65yvMa8tOaLvnpmnH0lZpxdACYGBnpeOyu273MqN7n5c1lKKl0foC4+ZIueO6GHnjrxp744NZeSO4Xqr2Me1ETdSAM6NRR7QLwCABnlAzXQ1wUCnFRKBCsc0l8fOxsFa56cCN6pH7pMbCPHhCNr7POImnht1i3owBfZJzBqEXr3Ab1JbMHO7reywEscdP1Hi8E8jWZ2P6mGSvXrkcHgMd79XI8tne7ZxfVYu3hStw9oSt0mvfyp6+KXYK6Vn6593XpRNR+MaBTR5QDzfaoonswgm7pi5DbExA86yIEz7oIIb9JRMhvB0CfEgN0ccb88iozrnpwI2Y8vLHeTVOn9MXPb1+DkGAd1u8qwuVDY9A1IghbD7lfGvbtk5MdnxlWms31JsiN0+thBVy65Ptrlq99qmmlT4qKQpjtXGGlFSWVFpwoNWPlzgpk5tXglrFRANS871bFfVDPzKvBadeAnum24kTULukbLkLUbiQAyAVwkf0J3dAoBF/fCyLE/Y+6Lj4UhlHREF0NUE4ZAavaYs4rqsazadm4YlQc+vVwbrzSNTIYf755GD76IR8Hci9g9+tXI8XDLPmukcEwmhRk/KwG/A9NJiwNdXZ599Lp8IHZjDIpHXuNFyoKsmwT5fZUV+P3mmxxO6urkW1bCme0SNx0cResOVCJ7SeNeOjK7iittuJwsRmPzohBwQUrNp2owbTBai9B3Z3aoObAubLB/1Eiaje42xp1FAkADkFNUwoA0KfEwDC63vC5V+b0YiiHncvGBIBnFo3G7+tsswoA4+/7HonxEfj00eR657R6pH7p2KHteoPBsW0qoO60Flpn69LY8nJYba99bORI9LMF+7zaWgw8eBAAoBPAylt6ITO3Bq9mlOHWsVG4dmgkMnNrMCg2CHGRzl6HT3ZfwJc/1xvHvxlM5UrUoTCgU0dwE4D3oRkvN0yPg35QVJNuppytgfmrAkdrHWh4b3Fv8gqrMOSOtY7lYk+FhjpmuS+prsZKs9mxdSmgZpnbbGul/6Z7d7yZ4FzbPuTAARyzLWubNTwCN13ieQ/z7KJaPLfpPCpqXbaZsQK4FQzmRB0Ou9ypvXsK6j7n6s+yXiDoV32h7+V+e1FfiKgg6AZHQjlWBZjVYLjnWBlOl9TgFxMuauDq+up2vW+wWDBEp8MwvR4zg4LwbG0tSjXd7v1tXfEAsL+mBn/VTIhTpMR3tsQzx0vNmD2y/oeWtYcr8eqWMnxzuBom11VuG6F2s29p9JsgojaPAZ3asxUAlsDe09TFgKC5vaHromZhU87WQEQFeb7aCxGih2FMV1iPVAC16mS25gT1qy7pgf/LOoPC8+oY+BeaoH5KUbDaYsFDtvH1vjodPjWZUAZAARCt02GCbdnahMhIvFlcjEpFgSKB/PNmJCeGIbuoFit3XMCrGWXYe8aEKpNLq7wAwEwAf4c66Z6IOiB2uVN7lQPNOmpxUSiCZ6mBVjlbA/P6IhhSYprc7a5V+2E+cME5O/z9R8Yj9Yq+TbrX8DvXuuxw9k5YGOYEByO2vBzLNF3xr9XW4n+M6vK0aL0e58Y4U61vrqjAlTk5Hvdr1ygH8BjUXdOIqINjQKf2yCWY64ZGIWhqHADAnHUOyt5yGKY1fQzdHW1QFwA2PDMFE5uYAz569moYTc4lbAuCgjBMr8dbtbXYpZkcl1he7mhO/6t3b/xBkwJ22pEj2Oh5R7djAF4GAzlRp8J16NSeJAA4D00wN0yPcwRz05dnoOzxfzAHgJBb+gHh6giVBDDnsYwm32vfG1cjOsI5FLDSbMY3ZjMihXBZq/6wZonb3wsKXO5xyjXfuxFqEH8bQCLU/x8Gc6JOhgGd2gv7sjTHOjT7THblggW1/82DPGNs1uz2hgTNvgjQq51a5VVm3PhE0/KyJMRHoChtFsYMiHY8t9lqRZF07UT/XUgI7CXKrVYsylM3RNtSUeGY6Q61Wz0MahC/C9w1jajTYkCn9uJ7aNaYO4L52RqYPzkJVFs9BnPTl2f8UgFdlyAYrnR2s3+ZeaZZG7tse3k6Fmq2Wy2UEuMrKlxa6f/WpIN999w55JtMmHX8uPY2jzW5AkTUoXAMndoDlzHzoBt6QdcrDNajFbB8XwzA87rz2g/zoR/ZpdEJZrwxrS2AzFUD+cBeEfj57Wubdb+0jSex8JntsChqCz0UwLaoKPS17b52RUUF9tuCfLRej3KrYy1aOdxsPENEnRMDOrV15+EuaAXrAJOirju/qY9jqZpW7Yf5gEUi5PaEeueaq/adXPX1AfzQjAlydnmFVbjsvg2OjHKT9Hr8n22p2klFweiKCneXTYZmv3ci6tzY5U5t2Wp4aoHaZ4lbJSzpxVDOuu5OVvthPlBhUce9W4Dhiu6Ox3f/e0ez72cfV7fv0LbZanXpeh8g6n323ggGcyLSYAud2rIyQJ0XJgTQv380qqvNKCyshnS3CDtcD92QSCjZlV7H1P3FlHYK8pw6Oa0xrfRH3z2Aa8f3dFs+r7AKSXesBaBur2qU0l0mGCu028ISEYEtdGonli+fjEOHfo28vLtgNC7BwoXD0bNnuGuhaiuU3eVAtRW6oVEtGswBwHCNc124r630tE0nsTwtGxJwO6EuIT7CsaSt0H0wNwKY2oTqElEHx4BO7cKSJZe4HL/xxnTk5d2FI0cW4ooreqNuj7RyuMJvs9s90XUJgrhIXSt+7GwVthws8Vo+bdNJLHh6Gwb2ikC/uHCMWrSusS+5EcBQsKudiNxgQKe2zBEh167NdVsgIaEL1q+fh+zs+oFdnjGi9o3jsOwrc3utP+gSnb0E97++x2O5xS/sxIKntyEkWIdvn5yMcfd+j64RwW7L2ifGQW2N32/7ElBb5lxnTkRuMaBTW7bf/mDLFu+tbW1gHzMmznlCAtaMUpjSTrVIBa17nJ3i+46V1+tGT9t0Ej1Sv8S763IR3y0U+964GjP/5yeUV5nxx9Qk5BdVY/ELOx3lX1qTo718K9SMb8z6RkQN4m5r1NbNBwC9XuD224c3WLhr1xDcffcoDB3aDd98cwIWi232XI0V1t1l0F0U2uQd2OpSztZAOXBBXUJn2zu9ssbishtbZKgB8d1C8cjNQzGgZwRSl2WiuNyEhVcnYNF1AzFq0TqcrzDh3hvUZfZ3PLMd5ysdLfQNAL70S2WJqMNjC53ask/sD7ZtK2zUhampSSgvvxdXXNHb+aRVwvzFWZizzvmlcuYfiwEBhPwm0bFe5KMf813KJMRHoPh8LeY+loE/vbkPFovEg6lD8MbScRh37/cwmhQ8fvsIAMCWgyUuO7EBeM8vFSWiToFLX6itKwDQ02i0ID//Avr169LgBVrr189DWtoR3HXXehiNaoY1ZU85TCdrEJzap8mVsuwrAy5YoE+JAQDohkRBOVwBo0lB2qaTLturXjO+J+K6haBXt1CkTlGfX/zCTlTVWPDMotGO5+ps+FIATn4jokbgOnRq61YAuBMA7rhjBF5/fVqTbpKXdwGpqV9j795i55PhegTN7g1dl8Z9rlUuWGD+MB8iMRzB1/a0PWeG+cOTAIAxA6Ox7aXpjbrnjU9k4otMl3kCzAJHRI3CLndq656wP/j88xxv5bxKSOiCbdt+hQcfvNQ5E77aCvMnJ6HY9jn3RDlb45KJzvzZKaCLwRHMAXUJm3171X3H3Kwe9+LGZfWC+dtgMCeiRmILndqDowAGAsAPP8zHxInNS+e6efMZXH/9akcXvJoPvq/blrr1aAUsGaWOfPCmtFOQZkXdH70O7aYtBp1wbLYCwJEsJrZLMHrHqjuonS6pQV5htUs5qMH8rma9QSLqlBjQqT1YCuA5AIiODkZngepLAAAfTElEQVRR0eJm3zAv7wJGj17pDOrBOnVym4b1aAUsG4oRNEvd3c2cdQ4wKgiaGlf/hlDH1a0Zpc2p1tMA/tycGxBR58Uud2oPnoe6VSjKy0146aXdzb5hQkIX7Nu3AKGhtpWbJsVlrbpywQLLhmKIhHDoeqkt6qAJ3T0Gcw/2QE0K8zTULG8FUJPFaJUDWAMgEQzmRNQMbKFTe+FopRsMAocO/Rr9+nXBli1ncMst3yAiIghvvTWj0d3xeXkXMHz4fxzr1fUpMdAlRsL8yUkgRNeorVe1m7WAe5UTUStjQKf2ZDeAiwGgZ89wPPvsFViwYK3LzmsXXxyHrVt/1aibpqUdwW23qTucQQDQqb8WnvZZ96T2jeOAsy4M6ETUqhjQqT1JAHAYQKi3QqGhBuzff1uj1qzPmLEKmzadVg/0wmswVy5YIItqXHZzM315BvKMS296AYBePleAiKiZOIZO7UkegIV1nxzUtzvunHMZDHr1x9lotGDYsP8gLe2IzzdesWKGczmbIj0Gc+vRCpg/O+USzJWzNWowD3fJpPy1zy9OROQHDOjU3szQHgzq2x05Xz+MFY+n4uhXD6FXrBpoLRaJBQvW+hzUExK6YPJkW5pYCbdbrypna2DZUAzDFd1dnjd/Wwh0MQA1Vu3TT4CIqBUxoFN74sgaBziDuV1C7xic+eFRDOqrBlwpgdtuW4vFizf4dvMVzs8K8ozRJZmMcsEC81cFEL1CXbva1xYAoTqIIJ12/HwjuM0pEbUyBnRqL3bBSzDXyvn6YVw8xDnb/d13Dza4/SqgttJ79nTub27+1rkhjPkr9frgWc77KhcskGeM0A2I0M5uB4BfN/hiRER+xoBO7UEOgEvsB96Cud3CG8Y5HgsBl5nw3syc2d95YFKgnK2BOb1Y3Yjl8m4uZZXcSujHdYWyxyXV69tg65yIAoCz3KmtywEwyH7gSzD/dO1e3PzQB44e8IULh+ONN3zfLCU09EXnB4BwPVBthbgo1KV1Dti64T856dgLHVyqRkQBxBY6tWXNDuYDB0Y3KpgDwIAB0c6DaisQrq8XzAHAsq5AG8wB4BeNeiEiIj/SN1yEKCCaHcwBoKysFkOGdMOIEd09XleX1Sqxfn2+4zgotQ9EiOuvijm9GPJkjfapNQCe8flFiIj8jC10aot2ww/BHFDHzhcsWNuo/O9LllwCg0EzGlXlur2q9WgFlMMV2qeOAZjj8wsQEbUABnRqa1bAlt4V8C2Y3/1YGm5yDebHoG52UgCoQf1Pf/oJw4f/B/n5F3yqxIgRsY7Hlu3nHY+tRytg+b5YW9QIYJpPNyUiakEM6NSW3AQfl6bZDb7+n1jx+XbtUxuhtu7zoKZePWY/cexYOQYPfg8JCSvw6KMZXu+7YMFQx2NZoi5JM6cXuwvmQ8FZ7UTUBnCWO7UVCQBOwPYz2VAw37L7BGYsegs1tS7d4W8DuMtN8acAPAg3c0ZCQw3o3TsCI0fGYvLki3DDDQMRHR2C+fO/cuZ2t/+WuPbnM5gTUZvCgE5txXnYlnyFhRhwaM2fkNA7xm3Bux9Lw9ufb687Xn4zgE8aeI0VAG5FA5u7+GAPNOviiYjaAgZ0agvSAUwB1B/IE98+4jaY558pxbS738LRk+e0T5cDGIPGtZQnAfgjgAkA4uD7ao9jAP6Chj84EBG1OkOgK0Cd3lJogvlHy291G8w/XbsXt/75I1isivbpjQCmNuE1N9u+6tZjJNTxd/tC9FzbawDA8014HSKiVsMWOgXSJACbYPs5vHPOZVjxeGq9QnOX/herfzhQ9+n7wSBLROTAgE6BkgDgEIAwAJg6bgB+fGexSwE/drETEXV4DOgUKI5McO5mtOefKcXQG56tO4t9DZjAhYjILa5Dp0BwBPOuUaH1gvmna/ci8dqn6wbz+8FgTkTkESfFUWtbDVswDwsxYM+nS11OuknhagQwA/UnsREREVGArICankWGhRhk7rePSLlvuePrrrmXSft529dRqGPtRERE1EY8BVugFoCvwZyIiIjakJsAKLAF84+X39pQMF8RyMoSERFRfQkAzLAF60funOoSzKeOG8BgTkRE1A6cgS1YTx03wCWYD+rbncGciIioHXCMm3eNCnUE8ry1j8iwEEPdYH5TICtKREREnjm62n9673dS7lsuP1l+qzToddpAbgGDORERUZvlWKJm72p3M15eAy5LIyIiatOqYZvV/vxDs9x1sXNZGhERURt3KTRrzlH/i5PfiIiI2oF5cB/Iy6BumUpERH7GzVmoJQyvc2wF8BKArmBOdiIionZjOpwz2Nm9TkRERERERERERJ2ECHQFKEBSoUfxVH7/idqb9HQr1CEtIhf8g95JDZmf8gWAWYGuBxE1jhBy9OG0zP2Brge1PZzlTkRE1AEwoBMREXUADOhEREQdAAM6ERFRB8CATkRE1AEwoBMREXUADOhEREQdAAM6ERFRB8CATkRE1AEwoBMREXUADOhEREQdAAM6ERFRB8CATkRE1AEwoBMREXUADOhEREQdgCHQFWgvkual/EsIPBDoejSFlPLTI6sybwp0PYjI/wbOSRlp0KP97o8uZUb2qsyJga5GR8AWuo+qdfIfEvJCoOtBRNSRWKX8faDr0FGwhe6jU2mZpUPmT/gHIP4Z6Lq0Vb+6Zg4G9ekPALAqCv75n5dgVawey18zYSrGjxjrOH7+ozdRUV3ptuzvb7wTXaOifa7Lii8+wNmSwgbLxcfE4arLJmF4/yT0jOmBsNAwSClRVVON8soLOFNSiFOFp3H0VC725hz0eq9fTr4GFyeN8LmO67dtRNb+nfWenzRmPK4cN8nn+9itTv8GB44d9qns1EtTMPniCS7PbT2wC99tTW/Uazb0fZFSotpYg7yzJ/HjzgyUXjjf4D1HDxqOG6Zc6zj+79efIq/gVKPq5e4+DcnJP46P169psNzlI8Zi4pjx6H9RP0SFRyI4KAi1ZhNqjDWorKnGycLTyD17Ct9t/RG1JlOj692ZSODjo59n7Qp0PToKBvRGqC0JfTE4tnaJgOgd6Lq0RZFhEbj12nmO4w3bf8LWA/UDlt29qb9BUr+BAIC8glN44u1/eyw7e+p16B3X0+e6rP7xmwYD+gO3LMadN9wCvU7f4P1OFxdg2j3zvJZJGT0Oc6Ze53MdTxeddRvQRw0a5vL/6Ks9Rw76HNDvmX8HRg8a7vLc5SPHNjqgN+b7Umsy4bG3nsHq9G+8lhvYJ9Hl/a/L+rFJAb3ufRqSvjPDa0APMhjwwgPLcNVlk326397fH0B+wWmfX78z0lmUPwe6Dh0Ju9wbITc93Qgp/xLoerRV32/b5HI8Y/wVHsv27tHLEcwBYP3WjS1WL3funn0bFs1Z4FMw72h6x/WsF8wBYFCf/o4elpYQEhyMZb97BP0v6tdir9GSltx0t8/BnHwg5QuH12TlBroaHQlb6I10ZFXWf4bMS/kTBEYGui5tzYkz+Th66oQjKEwffwWWvfOc27LTL3MN9o0J6IWlxViX+aPXMiXlpR7PhQQH4+7Zt7k8d+D4Yfy0OwvF58+hptYIRSoICw5FTHQ39IiJRZC+8b8q//36U6/nDx7Pdvt8fsFp/LRnq8tz8TFxSOo3wHG8/+ghlFW6TukoOl/iU71mpkxzPDZbLDDo9RBCAACumzgNL36ywqf71FX3+yJ0Al0ju2DSmMvRrUtXAIBep8d1E6fjlbR3mvQazbEuKx2F54o8ns85ecLr9dreF4vViq82f4dDJ3JwoaoCUkqEBocgODgYsdExiOvWHdXGGr/VvaORkBeqdfh7oOvR0TCgN4UiH4RefBvoarRF67ducgT0nt17YOTAoW67gaeNd7Z0is6XNDg+rZVXcApPvvdCk+s4dshodImIchz/uHMLfvf0Q02+nydNrePXW77H11u+d3luztTr8NS9zs6hZ95/BdsO7m7S/bUB/YcdmxHXNQZjh452nGtqQPf0fRmWOBirn3nPcdynR68m3b+5Plj7WZP/z7pGRSO2a4zjOO37L/H4imf9VbXOR+KpU59lev7UTU3CLvcmyF6duRZSZgS6Hm3R99tcW9ozLp9Sr0zXyC641BZAAGDDtp9avF5aQxIGuRw31JLuSPrG98aIAUMcx2szf8DazB8cx/0v6lfv/6e5TpzJdzmuqTX69f6tISI0zOW4rLI8QDVp/6REkelcyPOBrkdHxIDeRFxq4d7B49k4XVzgOJ4xvn5An3rpRJex68ZOxGqunt3jXI6Pncpt1dcPpOs0rfNakwkbd2VgXVY6pJTOMhOnubu0yQb1dR2Xb4//31V1us8vG34JIsLCA1Sb9k0KPJKbnt7+PtW1A+xyb6Kjn2ftSpqX/JEQ4leBrktbs2HbJtx+/Y0AgAG9E9D/on4urbTpmsly5ZUVje4G7dW9B37zS8//7e/830der6+7zOp8hbO1FWQwIDQ4tN41EhKV1VWNqqe3On6TsQEFXsZzW8rMlKscj3/ak4VqYw2qjTXYfeQAxg4ZpZZJnobnPnyj0feu+33R6fTo0a07rtW8ZklZKb7YtLYZ76DpZqZMw8gBQ92e2529H7uPHPB4bVlFOcoqyh0/O+OGjcH299bhbEkhTpcU4Eyx+nWy8AwOHj+MI/nHW+Q9tHsSR3JWZbwb6Gp0VAzozaCzyv+RBgb0ur7bmu4I6IDa7f7m6pUA1AlpE8eMd5z7cedmr2vV3ekb3xsP3X6fx/MNBfRgQ5DjsZQSZovZcTzvyl/gsUUP1rum2liDsQumN6qe3up44PjhVg/oib36YmjiYMextqt9beYPjoDer2dvjBwwFAeO+7YEzs7b98VkNuGHHZvxzPuvNvqDkb/86uo5Hs+9nPaO14AOAF9tXo/bZs53HOt0OvTu0Qu93cwJyNq/E4uffhBGU23TK9wBSVjvD3QdOjJ2uTfD4TVZuQokx4Lq2Hl4H86VOxOIaLvdJ44ej7AQZwu4tZerAeofYjtFKq3++oGinQxnMpvw444tjuN1mT+6dLtrW9X+YLFaIaWsNxbdnjz34RvYsnebT2UnjLoUv5376xauUTsjZcaRVVu9JyGgZmELvZlqBJ4Il/I3AqJLoOvSVkgp8cOOn5A6bRYAYOTAoYiPiUNhaTGmadbx1tQasXnvVk+38aisohw7D+9rcv0sVmePQN116GarxbHcKMgQhCBD039FNmz3PNnv/IXWn1SlHRvfvGcrqozVjuPC0mLsyTmIS5LU1ZgzU6bh2fdfbdT9635fBICoiCiMGjQM4aFhmJkyDVPGpmDOgwublCimuXYd3ucyvKJ1/HReg9dXGatx57L7MW7YGEwcczmG9BuAXnE90Ss2Hl0j6//6T7tsMl74+M1m17uj4LyjlseA3kyn0jJLk+YnPw3gyUDXpS1Zv3WTI6ALITB9/BX4cN3nmHqpcw+Gn/ZkNSk15pGTx3Hv8keaXLe664MjwyMc3cCrfvgKq374CgDwx1t/V2+9emM0p47+NrBPIgb3da5jn3xJMnatdF0aFxwU7HjcO64nxgwe0ajlhJ6+L/0v6oevn/sAOp0O4aFhWHBdqsf8BC3p+Y/fbPKyNa0dh/Zix6G9Ls+FBodgeP8kvPzQU4jp0g2AOnRBKinxCVO8tjx2ufuBqSTkOSnR+jOc2rDM/dtdxkpnjJ+CS4aMQvfobo7nAtHdDqBePvH4mDgPJTsO7ex2QJ38Fx4a5vJl0Lv2Vsz0U7f7iTP5OFPiXPmQlDDQS+n2yWiqxa7s/S4fGEKDQwJYo7ZFZ1XazqfbDowB3Q9y09ONApI5iTXMFgs27s50HI8bfjFunD7L5Xz6zsAs5T9ZeMbleNKYywNSj9Z0bXLjg3NTrvEkItS5xMtd93RHoR3CMZm5MQsApnhtRexy95PsVZnvDJmX8jAEkgJdl7Zi/dZ0XD9RnRlu0Osxe8pMx7msAzs97qzWkNDgkAa7M8+WFLnMXtfal/Ozy/E98+9AfsEpbNqd1egZ9940VMfzF8qb/H/QGEn9BmJgn0TH8Vtr3q+Xd99uzpXX4eYZswGomf7GDh2NXT7OV6j7fREQiAqPxMyJ0xypXwF16VpjXJw0EuEeJtOVnC/1eTZ+fEyc1+9JjdGI4rJzHs/369kbep0e5y+UodyW7tUuyBCESWPGY/Ilzh3stPkYOi9ZVcUUr62GAd2PFIkHdAJfBboebcWm3eoYeUhwcL1zdTPKNcboQcPx3Uves7vNf/hOj3/oc04ex+HcHMcSrujIKLz2yHKYzCacKz8Pi9UCg97gEoSaoqE6Lv/vyw0usfMH7ex2KSXe//YzFJYWuy1rNNU6Arp67VU+B3Rfvi8AfJ4pbvfALYs9ntuw/Sef5yo8s+R/vZ5P35mBxU/XX7Jo9/sb78QvJ1/jODZbzKg1mRxzA+rK2Lfdp3p1ZBL4x6k0pnhtLexy96OczzO+ZkpYp2pjDbbsq//HW1EUjy3E1vLX159GVU21y3PBQcHoFRuPvvG90Ss2vsOMgWrHwvfkHPQYzAEgO++oSxKgayZc6di4xR+OncrFR9+t9tv9AinIEITI8Ai3wbzofIkj90JnJSWKTCUhrT/7sRNjQPczLs1w5S5w7zlywGWdeiAcOHYYcx+6A6t++MprgDOZTThxJh/pO7d4LNOWDUscjMRefR3HDe1SB7gmnOnRLRaXDb+4WXWoqTXiSP5xvLl6JW7+y2/b7S5khaXFDQ6R1NQasX7rRtz+v/d5/bnqDATkn5nitXX576M3OSTNS/5ECHFjwyVbh5Ty0yOrMm/SPjdkfsoXAGZ5uKTTiQgLR1zX7ggNCYWA2vVcVnkB5y+UBbpq1MaEBAeja2Q0wkPDEBIcAr1OB5PZjIrqShSWFruMrbcEIeTow2mZ++3HA+ekjDTosd/bNa1O4kj2qowhDRckf+IYegvQWeXD0tB2Ajo1rKqmul4XPJE7tSZTp299N0SReCDQdeiM2OXeAg6vycqVwEuBrgcRUauTMiPn84yvA12NzogBvYVUC/kYIAOzCwURUYBwHlHgMKC3kFNpmaWKFE8Fuh5ERK2FKV4DiwG9BZnPBf+LKWGJqLNgitfAYkBvQbnp6UYI5S+BrgcRUYuTeJEpXgOLAb2FCSk6z4bbRNRpScFl0IHGgN6CEqdODZXgODoRdXwC+P3Q2RMSA12PzowBvQUFdTf9UQj0CHQ9iIhag9Trng10HTozBvQW0ic1OUYnuKUqEXUiAvMGzk9OCXQ1OisG9BYSLuUTgIgIdD2IiFqTQTKpVqAwoLeAAXPGJwno7gl0PYiIWp0QYwfPnzA30NXojBjQW4BBr3860HUgIgoUnRT/CnQdOiMGdD8bOD85RUDMCXQ9iIgCRojEpHnJ9wW6Gp0NA7qfcfyIiAgQAo8Pmnl5l0DXozNhQPejQXNT5kOIsYGuBxFR4IkYXYSOqWBbEfdD9yO9kM+gnSRLkgoOCJ3kp2eidsZqtbSjXRzF/Umpya8cScs8HeiadAYM6H4yeF7KEggkBroevjryeQZzzBNRixJAqFTEMgB3BLounQG73P1g0MzLu+iE/N9A14OIqK0RAgsHzkkZGeh6dAYM6H6gC9f9GRAxga4HEVFbZNDhxUDXoTNgQG+mpNTk3hBiaaDrQUTUZglcOWh+ytWBrkZHxzH05pJ4UgChga6GN0KISYPnJt+S83nmh76UHzx3wkKdTvy62S8ssTd7VSY/7FCnMTg15WKdlM819z6KIv+T83nWew2VGzI/5QZAPtEeJuPqJf4FYFSg69GRtf2fgjZs4JyUkQY99ge6Hr6SkD8D4okjn2V83FDZQfMnTNVDPAaIKc14xY3Zn2VObfr1RO2L+nuj+7Hpd5AbFSGW5qRl7PFWavDcCdOFTvxDQIxv+mu1PkVR7vDlgwo1Dbvcm6G9jQsJiOEC+ChpXvKhwXOTb/FW9uhnWenZn2VOtUK5EpAbW6uORJ2T3GiFcmX2Z5lTvQXzIfMmjkuan/KTTqdb396COQAInViWOHVqm+7RbM8Y0Jto0LzkayBwZaDr0RRCiKE6nfhgyPyUw0lzUxZ4K9ucwC4h0ptVUaIOTkrstQfyo59lpXsqNzQ1eVTS/JSvIOR2AUxqxSr6lYDoHRxbe3+g69FRMaA3kR7i2UDXwQ+GCB3+O2Re8pGkeRO8jpm7BHYp81qrgkQdkpR5iqLccWRVxsXeAvnA1ORBSfOSP5FS7BPA9a1YwxYjgL/0SU3mqqAWwIDeBIPnTlgIgY6zrlKIwULo3kual3J08PwUrwkgjn6WlZ69KjNRUZQ7GNiJGskWyLNXZSZ6G0sekDqx35D5Ke8YpMgRQtzYijVsBSIiXMHjga5FR8RJcY2UOHVqaHBs7VEB0TvQdWkpEvIEIJ888lnWiobKDp47YaFOiMcgREL9++DxI59lPNYilSRqgzxNipOQ5YB4vqHfh4FzUnrodfJRIUSH36lMWJT+h9dk5Qa6Hh0JW+iNFBxbe39HDuYAICD6C+jeGjIvOXfw3ORF3srmfJ71HlvsRO5JyHIJPG6y1CR6C+aJsy/uOnhuytMGnTzRGYI5ACgG7pnub2yhN0Kf1OSYCIl8QEQEui6tLB8ST2evynjNW6HE2Rd3DTaELwXkUgERzRY6dTYuLXQpX6i11jyWu2ZPmafycanDI2Nk9P0S+KOAiG61irYRFsiJxz7LzAh0PToKfaAr0J70HNZ3uRCi3c4wbYZoCFzffVifu7oP72s6d+jUdneFyg4XGM/9fDI9Kin2db0uqFZAlp37+VRWa1eWKFBihvdJFBJCZ5VzsldnfVx2uMDoqWzS/JQ/hiH0MwFxvYDolEu5dBKXnDt06s1A16OjYAvdR0NnT0iUBt2JQNejLZCQpyXkP3M+y3op0HUham8Gz5uwWAjx144+dOcrRWJ+zqqMVYGuR0fA1K8+kjrZX0r5+0DXo60QEEian3x7rWJan/f5zrOBrg9RWzd0zvjuVp3+agEYIPG0hAx0ldoEIURQoOtAROSWlPI1KeVh29chKeUOKeV/pJQjNGV2asrYv3baznWzlT8jpayRUp6TUu6SUl7u5tqDUsotUspnpZTdbOfvcHPvw1LKO+rUM0hK+ZOUMl9KeUFKWW0rd6emzFW2+5+zlTkgpfydP64nIiJq06SUX0n3iqWUEbYylW7OV9rO/dfD9bO9XCullN/azv/Jw/k/1alnqIdyipRypJQyXKpB2J3k5l7f2t8Xoo6OXe5ELWs5gOkAxgKIBTANwJea82cBvGN7XGv7d5bt3xIA/wvACCACwM917n0awAcAFgLoAeAaKWXXOmU+AXDU9jizzjkLgIcBnANgBjAHwGyoc2uuAhAPIMpWdjWAI7byAHA1gO3NvL5ufYiIiNoO6dpCD5VSztcc27ur7a3sHXWuDdaU/cbD/e3XZtmOX9ZcM0y6ttB/0Yh6X6m57m9Syls1x/OklD01x6/6+3oiah4mliFqedp1yJF1zoVKKYfavmKhtnQV27lRUsrZUsp+zbh/H/v9vd1ASimgtpq199TmW6ixfdm55GJo7vVE1HwM6EQtz6p5XHdG7wgAh2xfS4UQEkCO7VwfqF3VeVKdCNenCfd/zX5/KaXbITYp5UwAuwA8Yn8KwI917qXA+UHD5XWaez0R+QcDOlHLa+z6pL/BtdUNqGPwnlKCNnn9k5TyXwC+AXCx7alyAHcKIfb78jrNvZ6I/IeT4ohanjYjo6XOuUMAbrc9PgMAQohPpZSrACQB+AXUiXUAPO7w5+3+9wPYbLuvyzmpzrhfYjusAfAcgGeFEOfd3EvAtQFgae71Ht4LETURAzpRy9OOa1fVOVcthNhR5zkIIaxQu8mPwBnQPXVTe7v/UXf3t+kN59+Ad4UQf6lbN83jUAAhmuMaP1xPRH7EgE7Usm4BMFdzXFTnfIyU8jbbY7MQ4hMp5VVQu6eNALST2c7VuTZWSrkQwHVe7j9VOpey7RRCHNKc0+YP76epBwDsh7pszm461GV3dsV+uJ6IiKjtkp4TyxhtM9kbSixzwMP1i7xcK6VtCZz0PbHMGA/lpJRymVQz1pk8nJ/Z3Otb+/tC1NFxUhxRy6sGsAPAHCFESUOFARTCdQKZAuBzAO+6KSsBnAewDsDNjayX182ZbGPhi+Ha0jYCeBHAWj9cT0R+xN3WiNogKWUYgG4AggGUCCEqA1gXHdTucgOAYiGEuTWvJyIiIiIiIiIiIiIiIiIiIiIiIiIiIiIiIiIiIiIiIiIiIiIiIiIiIiIiIiIiIiIiIiIiIiIiIiIiIiIiIiIiIiIiIiIiIiIiIiIiIiIiIiIiIiIiIiIiIiIiIiIiIiIiIiIiIiIiIiIiIiIiIiIiIiIiIiIiIiIiIiIiIiIiIiIiIiIiIiIiIiIiIiIiIiIiIiIiIiIiIiIiIiIiIiIiIiIiIiIiIiIiIiIiIiIiIiIiIiIiIiIiIiIiIiIiIiIiIiIiIiIiIiIiIiIiIiIiIiIiIiIiIiIiIiIiIiIiIiIiIiIiIiIiIiIiIiIiIiIiIiIiIiIiIiIiIiIiIiIiIiIiIiIiIiIiIiIiIiIiIiIiIiIiIiIiIiIiIiIiIiIiIiIiIiIiIiIiIiIiIiIiIiIiIiIiIiIiIiIiIiIiIiIiIiIiIiIiIiIiIiIiIiIiIiIiIiIiIiIiIiIiIiIiIiIiIiIiIiIiIiJqdf8PocJ5S6bJJuMAAAAASUVORK5CYII=;clipPath=inset(16% 12.33% 17% 9.67%);" vertex="1" parent="0B4loqaDKJ7nYiXQ2XOH-31">
          <mxGeometry x="14.25" y="20" width="81.5" height="70" as="geometry" />
        </mxCell>
        <mxCell id="0B4loqaDKJ7nYiXQ2XOH-32" value="" style="group" vertex="1" connectable="0" parent="1">
          <mxGeometry x="225" y="310" width="110" height="110" as="geometry" />
        </mxCell>
        <mxCell id="0B4loqaDKJ7nYiXQ2XOH-27" value="" style="ellipse;shape=doubleEllipse;whiteSpace=wrap;html=1;aspect=fixed;" vertex="1" parent="0B4loqaDKJ7nYiXQ2XOH-32">
          <mxGeometry width="110" height="110" as="geometry" />
        </mxCell>
        <mxCell id="0B4loqaDKJ7nYiXQ2XOH-18" value="" style="shape=image;verticalLabelPosition=bottom;labelBackgroundColor=default;verticalAlign=top;aspect=fixed;imageAspect=0;image=data:image/png,iVBORw0KGgoAAAANSUhEUgAAAfQAAAH0CAYAAADL1t+KAAAACXBIWXMAAA7EAAAOxAGVKw4bAAAAM3RFWHRDb21tZW50AHhyOmQ6REFGU0R2RzllQ1k6NSxqOjQxMDgxMzI3NjUyLHQ6MjIxMTE1MjLsukCTAAAFAGlUWHRYTUw6Y29tLmFkb2JlLnhtcAAAAAAAaHR0cDovL25zLmFkb2JlLmNvbS94YXAvMS4wLwA8eDp4bXBtZXRhIHhtbG5zOng9J2Fkb2JlOm5zOm1ldGEvJz4KICAgICAgICA8cmRmOlJERiB4bWxuczpyZGY9J2h0dHA6Ly93d3cudzMub3JnLzE5OTkvMDIvMjItcmRmLXN5bnRheC1ucyMnPgoKICAgICAgICA8cmRmOkRlc2NyaXB0aW9uIHJkZjphYm91dD0nJwogICAgICAgIHhtbG5zOmRjPSdodHRwOi8vcHVybC5vcmcvZGMvZWxlbWVudHMvMS4xLyc+CiAgICAgICAgPGRjOnRpdGxlPgogICAgICAgIDxyZGY6QWx0PgogICAgICAgIDxyZGY6bGkgeG1sOmxhbmc9J3gtZGVmYXVsdCc+SW5zZXJpciB1bSB0w610dWxvIC0gMTwvcmRmOmxpPgogICAgICAgIDwvcmRmOkFsdD4KICAgICAgICA8L2RjOnRpdGxlPgogICAgICAgIDwvcmRmOkRlc2NyaXB0aW9uPgoKICAgICAgICA8cmRmOkRlc2NyaXB0aW9uIHJkZjphYm91dD0nJwogICAgICAgIHhtbG5zOkF0dHJpYj0naHR0cDovL25zLmF0dHJpYnV0aW9uLmNvbS9hZHMvMS4wLyc+CiAgICAgICAgPEF0dHJpYjpBZHM+CiAgICAgICAgPHJkZjpTZXE+CiAgICAgICAgPHJkZjpsaSByZGY6cGFyc2VUeXBlPSdSZXNvdXJjZSc+CiAgICAgICAgPEF0dHJpYjpDcmVhdGVkPjIwMjItMTEtMTU8L0F0dHJpYjpDcmVhdGVkPgogICAgICAgIDxBdHRyaWI6RXh0SWQ+NGVkNmE5MmItNDk0NS00OTdiLTkwY2ItODZmNDI0ZTk2ZTMzPC9BdHRyaWI6RXh0SWQ+CiAgICAgICAgPEF0dHJpYjpGYklkPjUyNTI2NTkxNDE3OTU4MDwvQXR0cmliOkZiSWQ+CiAgICAgICAgPEF0dHJpYjpUb3VjaFR5cGU+MjwvQXR0cmliOlRvdWNoVHlwZT4KICAgICAgICA8L3JkZjpsaT4KICAgICAgICA8L3JkZjpTZXE+CiAgICAgICAgPC9BdHRyaWI6QWRzPgogICAgICAgIDwvcmRmOkRlc2NyaXB0aW9uPgoKICAgICAgICA8cmRmOkRlc2NyaXB0aW9uIHJkZjphYm91dD0nJwogICAgICAgIHhtbG5zOnBkZj0naHR0cDovL25zLmFkb2JlLmNvbS9wZGYvMS4zLyc+CiAgICAgICAgPHBkZjpBdXRob3I+UnViZW5zIEx5cmE8L3BkZjpBdXRob3I+CiAgICAgICAgPC9yZGY6RGVzY3JpcHRpb24+CgogICAgICAgIDxyZGY6RGVzY3JpcHRpb24gcmRmOmFib3V0PScnCiAgICAgICAgeG1sbnM6eG1wPSdodHRwOi8vbnMuYWRvYmUuY29tL3hhcC8xLjAvJz4KICAgICAgICA8eG1wOkNyZWF0b3JUb29sPkNhbnZhPC94bXA6Q3JlYXRvclRvb2w+CiAgICAgICAgPC9yZGY6RGVzY3JpcHRpb24+CiAgICAgICAgPC9yZGY6UkRGPgogICAgICAgIDwveDp4bXBtZXRhPsum9joAAIePSURBVHic7NUxDQAwDMCwlT/pgegxLbIR5MscAOB78zoAANgzdAAIMHQACDB0AAgwdAAIMHQACDB0AAgwdAAIMHQACDB0AAgwdAAIMHQACDB0AAgwdAAIMHQACDB0AAgwdAAIMHQACDB0AAgwdAAIMHQACDB0AAgwdAAIMHQACDB0AAgwdAAIMHQACDB0AAgwdAAIMHQACDB0AAgwdAAIMHQACDB0AAgwdAAIMHQACDB0AAgwdAAIMHQACDB0AAgwdAAIMHQACDB0AAgwdAAIMHQACDB0AAgwdAAIMHQACDB0AAgwdAAIMHQACDB0AAgwdAAIMHQACDB0AAgwdAAIMHQACDB0AAgwdAAIMHQACDB0AAgwdAAIMHQACDB0AAgwdAAIMHQACDB0AAgwdAAIMHQACDB0AAgwdAAIMHQACDB0AAgwdAAIMHQACDB0AAgwdAAIMHQACDB0AAgwdAAIMHQACDB0AAgwdAAIMHQACDB0AAgwdAAIMHQACDB0AAgwdAAIMHQACDB0AAgwdAAIMHQACDB0AAgwdAAIMHQACDB0AAgwdAAIMHQACDB0AAgwdAAIMHQACDB0AAgwdAAIMHQACDB0AAgwdAAIMHQACDB0AAgwdAAIMHQACDB0AAgwdAAIMHQACDB0AAgwdAAIMHQACDB0AAgwdAAIMHQACDB0AAgwdAAIMHQACDB0AAgwdAAIMHQACDB0AAgwdAAIMHQACDB0AAgwdAAIMHQACDB0AAgwdAAIMHQACDB0AAgwdAAIMHQACDB0AAgwdAAIMHQACDB0AAgwdAAIMHQACDB0AAgwdAAIMHQACDB0AAgwdAAIMHQACDB0AAgwdAAIMHQACDB0AAgwdAAIMHQACDB0AAgwdAAIMHQACDB0AAgwdAAIMHQACDB0AAgwdAAIMHQACLgAAAD//+ydd3wUZf7HP99nZtPrJiSEXkLvVVARMBxiA08v2LGcnnp61rOcnseiJ7+7s52eZxc9sRJ7R4wCIkW6dFgSQnrb9N1smef7+2Nmw4KkgCAEnve9IsnuzDMzu7f7mW9Xgq5QKBQKxQmAEnSFQqFQKE4AxLE+AYVCcWzIzFQ39ArFiYQSdIXiJGPBggVaIBCIAoDZs2crUVcoThCUoCsUJxHMTN27d0q566ZrPh7Z+9YpRMS6rhMzK2FXKNo52rE+AYVC8etBRHA6c+q5oarbT6tXPhUuvX0v/u303O79BlXExsZi8eLFx/oUFQrFYaIsdIXiJGPevHk0/fzz/hMZHpGzdf2qq1csWfTeq/+eO+vq300Ph0qUVSjaLerDq1CcwDAziPb/mDscDgLANXlbbt384w9P+BrqOTox2T/uzLP+1qVr93/fcPd9xgUXgLOyjs05KxSKw0O53BWKExiHwwEiolBX+uLFizFp0iSKIMNTW111lqe2OtHf2KiXFBVk6DY94cbrZ/24PcfXuHVr3rE7cYVCccjox/oEFArF0cFKdNMB+JkZAJqs9enTp8NfX5VbXVaypjgvp5dNJ3hqa8SGFUv/aHgD9ddm3jB30KDJjQ6Hg4/dFSgUikNBudwVihOQhx6yCeG5eWDent3PjBg6fF5DQ/37Mrajx+PxSIfDAQCIj4+nObfdePkXH70731tXJQWRYAgjJiGpMWP69OvtPYe+nZubS0rUFYr2gUqKUyhOMJgZDz7o48rCveNyNqwe+8m78593bt36WGqUHh8fH09Ba/2FF17AqNNOX5zauWsJGAQiFsSivro8cuXixf9nVOcPg8PBjmN7OQqFoo2oGLpCcYIRExND7soC2+YN664ty88bZ/i8oq66ehjZ9LS/zX3sYwCYM2cOsrKy0K133zrn5nUDcnZsGwEpASYIAaqtrU3QbWG9bnz33U82JCT7Fy9dqqx0heI4Rwm6QnGCsWjRIurfOTW6ZG/u3bWu8k7EpBkBr6ioLB9ZUVKcIyK3b77jjmu5Q4eBAICyor1Fa1auvBaGX5AgAjGRlEZ9fUOKq7JyY77LtX3dug3H+KoUCkVrKJe7QnECwcxgZu43eFC3+traXiAQE5iEIE9NFW9Ys+pGV15C2oYNrzblzyR37bIz0W7PBcDEACAgNE001Lhicp27zh3UvUuEw+FQ3xUKxXGOynJXKE4gPvjgAwKAooKC8R53XQeWDAJIEqBrZFSVFfdZu+qH/kbcF4VEhExAxP82oz4Q8K8DqCeDicx4OlgyyktKxm1avSrm0xUbvcf62hQKRcuou26F4gSBmfHZZ5/xxIkTRXF+/gxPQz0gABYAGEwkyF3fEOvz+fv/4Zpcmj17NkbPnIK0zt04IdFeJjQhiAjBYDkRhN/r7pvet9/4P06bJh2zZqmqGIXiOEYJukJxgjBv3jycfvrptHHVkrT8vTmnSSMAAYJgAhERgYggIzQh0gtyd2kAKPqMfsiYeg6SUzuWkqZbxeoAGAQw3PU1uquyfPzy11/H8tdfP6bXp1AoWka53BWKE4SFCxcCAJ3Sv/tZrpLSBI2FZIYQYDATGAwwQ8qAMPw+AMAf/vAka5rGn374bqEg4TeAMIT0p2CW5A94Jyxk1ojIODZXplAo2oKy0BWKEwRmpt+MHx25dcOasxtqK5kEmR9wS56JCAQCCU2KsDAAgM1mgxACfn9ASlgzVBlgAohBxIzqyooeACKZuamGXaFQHH8oC12hOIHYsWntwLKi/DECkCBoluccAEw7XZCPSOR169lHTpkS2bQfCdHUFzbYHpZhet5rqmt0eL0RCA9v+NUvSKFQtBkl6ArFCcDs2bNpYNcOWPz15zMb6mq6gcBgZjN0HtxKsqZr9Z6G2u1p3XpKAKitraXI8HCQZCLJpvYzQGCACMQMj9ujgT0aEH6sLk+hULQB5XJXKNo51kQ1toXbelUUF10qAwHJHNRlCUACYA4EJCUkJtcOGjKi5JxzziEAmD9/Pq365nMKC9O7SLCNLAOdEfTUMxISEwKISPAfuytUKBRtQQm6QnECcO+992qb16+dXVlW2InBluscYAgzbs4ECRKxCfZdp085d/cjjzwCAKj97jssWvQlyktLU2EYZgjdmqFuhssJcfEJPgC+Y3VtCoWibShBVyjaOR6Ph7585/WBW9auuczw+iAgAJLEsETdzGRjodvQLb3vB2ecdXb9+eefzwDwl/feg6bporqqsqs0AqZhbpnoTMwggUR78s6GhoYGIuJgfF2hUBx/KEFXKNo5V111Fa1evvSC8uICTWgaA0wEYYoyMyQIhjSQnNqxsnff/t889thjeOyxx4JtYuXE35xlF4LGSIII6rhViA5BAj6/b8lVMTF8kRq3rFAc1yhBVyjaMQ6HQ+zcsMJeXlZ6ht/XyIJAYIZoymy34uE2Gzp07Pzd6MGj9yz6059w8cUXY+DAgRg4cCAKdudOrK6o7CTMUDsBZGbFMRAZHY0OHVJzhtx8M4bcfPMxvFKFQtEaStAVinZM4zffUPaXX6RWlBV104TZ+CXYvjWo6QRGeGRMIL3fgFfeXrTI6HrzzSAibN26FV998l7Y2tUrbjf8PlPHiWHluhODpR4RVZzatfva1Xv20OxnnlFF6ArFcYwqW1Mo2inMjKSkJOOGIb3SfB5PkkaCzNYwZsmZldxGYDbsKSnba2pr1/39maesDYA333yTouAdnp+7c2TA8LFN04mYzMC7eSPAenjEntWrfizXdV2oTnEKxfGNstAVinbK3Llz6a677oLh9aXLgD8BRE2N4YitgDeBSWiiQ2qn1SNOm1D72muvNcXBnU4nb1qzfGJFcXGkrpmpdMHniAgg0jumpTqnnn+eZ8SIEco6VyiOc5SFrlC0U/zbHwAAFJaMT/D7vKaYmya2ZZ0DLCVHxiXVJyenfPHOB196s7KyGACuvPJKMbBnp6RFHy2bFmj0sB5GxAwIWO56ZmjhET49LHLNhN+c33jhZR2UoCsUxznKQlco2ivzzR+vr1EzpGE1ebNGpREgmdlvSErp0j3/9IxpqydMmNBkgc+fP583rV7Rp7y4YIDQSJLV8DXYUMYwpIyKia/t3L3XT3/84x9VdrtC0Q5QFrpC0c4hyxq3TGvArD0HiFiPjKRhI4a/NyljWv6kyEjceuutcDgcBIA9BdunNtRWdyRNC9aqB/vEspSkdenWvWzCbzK214uVx/LyFApFG1EWukLRXhlk/mg23SAiSATz2WCmq0um5OSOxadMnPoyIs1BLA6HA6+//jqmTRoXnZeTc0HA62cRbAkHQJIEM7MeHs4dO3X7+olnXi3btm2bPBaXp1AoDg1loSsU7ZXMSwEAHbbX1bpKCtnwesnSZSYwNJuN7R1S3nri+VcK8PwrlJWVxf369YPNZsN3C7+cXlVaOIggKdj9TUoJQDBzgBLsHf1DR5/yWcWaTcfs8hQKxaGhLHSFop0ye/Zb2LEDsKd03KvpEQ0AZFPxOUOGR8W5bBFRbwBAMBlu9eps+u7rhTHbN254wOOp06zWsGR2hTOFnUjj1M6dN51/+bXfJSQk8FNPPXVMrk+hUBwaStAVinYKEXFNTY1WXunKs0WElxnS4GCCu2RCcmraxu6904vi4uKaPuc7dnxGbzz35Dkle3P7CBK8L2wOwEqo08Mj0bVzjzfnz58ve/XqpRLiFIp2gnK5KxTtmLFjx3L3lLjyhqqy4qrSwt6aEGBAirBwaU9NXdRnwIBKt1YgAWDBgkyxc607YdfOrRd76mt0m67R/pPVGEQkbeER+fVu96JZs2YBAF911VXH8hIVCkUbURa6QtGOcTgccuZVN5TFJdhXkG4jZuaAIZHSsXPdsDHjszliCRwOBxwOB7ZuHSS3/rSxb3lRwem6ldhOVkc5U8yZpWTY7R3WxSYk5M+aNUuo6WoKRftBCbpC0c6ZNWsWDx97ysLkjp1kwJDQbGHUq++A7Euvu2Vzz553MgAsXbqUli5divq62j/UVVclA2ZXuaCoEwhSEtsiIozkLl2yB542pe71119X2e0KRTtCCbpC0c4ZPHgwDx455oc+A4YsgSZEXKLdmzH9/CcefPBB71tvvcUOhwP9+/fHzVdc3Kcwd/fvAr5GmOPUrPJ1s5sMB6QBe4dU99BRYxavWLECyjpXKNoXStAVinYOEeHLb5f7xp059cG4xJS6lLQuyyefk7k6OjqaH330USQmJmL6tAw9+4uP7ygvLoyxQubEBDCx2fidJWu6jbqn9/vh0utvc952222q1atC0c5QSXEKRTvH4XCAmfmRO29YkT5w6Bsx8QnLP/30U2PEiBEEgPfs2UOitmxo3p6dvwUbzMIqVme26tzMJjTxHZKMIaPGzrvjjjv8aJq+qlAo2gtK0BWKE4RxE6dIr8H36+Hh3qnnTje96cy0Z/M623/+9UhmfY0rWRMEySCrNSzM7u+CWLBMSk3bctrEMz/PKauzOsEqFIr2hBJ0heIEIBjvZuZqWAXl6199lS645x7cf++fOhUV7D2bDEkGQRAoJD4uQGDWbWHcpWv3L7686FJvMkC3bN+uFF2haGcoQVco2imWFU0//PADvvnmG0BKXNupEz7x+VBRUQEA+N8tt/D3hQVXVleW9hdCCLaq1YLZ7QDAZMiwyNhKCO2rm7dtAwC+RSXEKRTtDpUUp1AcxzCAj6dPJ4fDIc477zwN5meWrJ/gJk0/VcXFXFlZyQC08BGD+q72uv695ofFcxrddTZiJgKTBoLWJNjMAWaER8VvTkpO20ZEYvjw4eLPf/6z+m5QKNoZ6jZcoTiGmFb2LXjkkQQKBB5hwEFbNm8mvPceL2DGP196ROsfnRJdW+FKqKiqjC0pyo+qKC2zuUorRIdOabHRsbGRcfGxnTnA9vq62qS62ppwv68xVtNEnxqXq29dlSvG1+gBBJGAYBA31atJK45uBALcqWd6bs8+/V8oyMlZ3b1376qBw0cW15K7ctGiDYbf76czzzyTiYjLy28jXXdg4sSJPHny5GP98ikUihCUy12hOAYwM/71r39R165dkZ8/gwFg4sS/UXLkmcm6p7Jn4y3XDrjz6syhO3dtT1smZYcImy2JiKJ9Xk+k1+PWfR6PqKsqCSMSOghhzGwDS0hDQjKDiAHJJIhA1tQVAlvTV4JnIcEQ0HSdygr29CwvKnhIkKirq6uu3bJpU4ktIiJnQP/+m6SkdQO6pOVO/s20wocevc0bTJhzAODhw+ncF1/E2LFjVcxdoTjGKAtdofgVqKiowBVXXIEPP/yQ7r77boqKisKZ44aIkoLi8JSUlC7FxYVnb9+06dTK8tLTKsuKO7nramH4vAgYEoAEEUmWzARiElYSHJmTT5lBgCSwmewmmQE2h64wAwIMIawGMtYAFli/MkuYhehETEKCIZkNYmZNExqEbkN4ZDSSOqS4YxPs2xJTU9em9+33Q0pq5+VFhfll0gg0jhw1xli3a6/x2g03iFfef58HXnQRZwCYcPvtcPz738fqJVcoTjqUha5QHEUcDgdycnKabpz9fr8+NL1rz3znjqFfvb/g1Pq6ujE1Va6BDXU1CV63m4yAHwSWAIFIQNeICBrAINZBZpkZAcwkAWtLs9UbABAzBAAm63Ezpx1Wr3awJfps3gUAECACmZ1mpABYEBEzEYMYMuBjT20j59dURjLRSM0WNnLDssXXhkVG1dqTU8qFoHW7t27a7WeszvjTNUXlUWIvgLLgCV144YW45JJLMHPmTGXBKxRHGSXoCsVRgJlpzpw5BEACQENtdey4Pp0n33TR1JnuxoYx9dVVydLrjTcMA6bYggQIQggAEKbZzTCNbTPmTQwgOEzFUmEiAgdNcZiGOZghTM0HmE25J7LEnIObmu3igvNWgxPXzP2C+e8ggFhoEAxIYpYBP+prqzTUVSfUlBclMFFfodkYQtREREbVb9+4Pj9z8qhtA4cO+75j107f/rR3bz4AOBwOcjgcStQViqOIcrkrFEcIZkZUVBQefvhhGj58OJU6N0RXVlT0zc/LvbikoPDi8oKCbh53LdgIsK6TBEMQacHyMxCI2DSMYdrXphXNVgTcOsi+A9I+IQ9NeW+RkH2Co9DNG4SQTViYKfMkIXjfeUjrAETWccjsHMskALCE4YdkCNJsJMLDkJTSyZPWtfsH3br3eO60M85c89mS832PPKI60CkURwsl6ArFEeD3v/89RUREYN68efjsrde6LvluYUZpwd4ZVeVlp1ZXVSZ53Q1EIAYJELFgliBiBoumNqwkrAbrIWFuBMvLLM210tqCvVubBJrpgHy35rD24eDvwZ2YrHEt1qSWpqeoaVHZdFwJSQBBIDjchSHNWjoSzEwMGJAM0m3hnGBPqujWZ8DrGeec9/R5l1yTH1oDr1AojhzasT4BhaI9w8x45plnRP/+/fnyCy+MT4nEbd8u/OSfO35af1l54d5Bnrq6KDYCZrY5gQSZCi4gQBCWjUxgwSGGs7Dc38zCzHRjScSmd5wlg5nJGmBuesjZVHVmS+DZUm7zXxIsmUFCWP3bTWcAIGifucwAC5gpeICw2sJKMBgMAYJkGYzUByP5sK7L2t40+omYmkIBhiR3Q31UScHeUyoqKodde9WspZ16ptfExcXR4sWLf7X3SaE4GVCCrlAcJqNHj6aJE8frnWPDUkVj3cVff/zui7s2rr20sqwwhaTUhZmEbs4dJybTjA72hAm6uc3gOIEhSDCDIMmMfBMAwzSbIYQuNVtYwBYW7tNsYQFdDwtoelhA020BTQ8LCFu4QbYwQ2i6JKGDSGeQgJRsWvUE0x0OACBpGt7S7DQDDkbaQySeYXoUTK8CW052boqum5Ie6sEP7XdjNZc1DXxioUGisryst9tdP3Lnlo1LZv3h5prExEQsWbLk6L9RCsVJgvJ7KRSHB7376vO2POe2323dsO6W0sK80Y31dTpJyUya6X1uGjaOEBdzky89+Ddb8XKWZpCaIHSOio5BRGRUZWJKSmFEZMQm0my7E+zJ1Trp1Wwm0QWnq5hiS0KADMiAjPT5vNHEEgGfX6+trYlkMAuiOCFEnBAiCUwdvN7GSG+jJ7LB7Q6Xfm84CInS4AhpBMgwAhzwByD9AZaQkFISszRT4QEIEmz51yH26zbJTf9YVXOmhW/dUzAAodm4Y9fuO8aeMflP519xw3e9evViohBHgUKhOGxUlrtCcYg4HKDcXKAgZ+fFS7/+6tnaitJIIazZZUQEkkRMCJWpfYlnFDSGzdwy0lgG/GASQouKQlJKx+rUlI5Luvbo/XVcYuLCqsrK8j79+vgGjRjj7z9ifLDFa0uQ11uHcOlHVaWL9uQ6SUoNpSVF5Gv0iJq6OtFQV6fXVldTXV0tQdN1XRNi+IhRXX3exjRPfYO9srKsQ0VpcVJleXmCHmZLIyE6BfyBDu6GhuTq6upYr9stDK8Xfp8buq4bRKSBJQevKBhYty4TBEnBYjsyfJSfs60vCfqP19uYec8jT21hZlKirlD8cpSFrlAcAsGM9PfmPXv626+++HV5YV64rgkCS4imDDYKOqitnUxb2mDJlqyBiVjXdSFsNld0bHxxeGT0mn5Dhn7ZtfewZTfdcUfhp7feSmc98QQTEaZPn05z587FoEGDrNX2pc2FTFkDwFRSsgQLF+bhd78rpCVL4hG1rYKWlDag8oMPMG/3bm6w9tu9ezf36tWryU3QUpIaM+vlJeVRi778MmrZ4uywhBgt2V1dOaWoIP+cOlf5sEZvQxykJAQ9+jDN9mAsnqykPYbZyMascxfce9CIZaedNnHGZ/Peqrlk8GCemZV1JN4iheKkRQm6QnEIMDPB7Q6748Yr561f/u1lApCmvxtWjTjQZKYSN6Wlc1MuOFhoNnTq0Tu3Y8fOn0XFxXxnT+647YLLr8l57dz+xoTngGlTNQ4V9NZwOBx47733aNOmzbxo0W/oppty4HQ6tZKSgsQNa1ZHlxfmp9ZXVXatr69JqHZVxAgQeerqI2pq6iOYiKPiohrjYuN9UjJHxEZ7Y2PiPDExsWVRMfHFSUkdqnv1S/f0HTLaDaCeiIzgcX/44r3kjxa8M62srOjWgtyc0dLXaLaKD/a4QYg/nvZF6q2Xg8Mio2jUqZMfHFHtmwtACbpC8QtRLneF4hCYM2cOTR0/xl5dUT4gEPAjXA8nCTbLuII91M1ebUBTyReBpbkNyEZDxkz4fuaV18yqLC/b+8Qr8xEVVU7VeEcGj+E3DEx78knGk082ex7MjHvvvVfk5uYG92PntjUEz84pf7x8zcgH/zhrUnl56fDy0pJov9cbbfh9ZBgB+LyNpmfcYPj9ftMlLgA9zGaF7zXoehh03QbSdalrNm9iQqI73p5UEx0Tu3bunTesTe3S3TVqwsSNw0afurGkvPyNH5ctfatX3wH/Xbk4+0ZvfS2T1cWu6WaEeb/wg2QmQYDP46ZNG9f/fvSfbvvPhVfeUIc2lNErFIrmUYKuUBwCnTp1gm4jQwgYIM3MUN+v40pIjljQMU4MIiJds8n0wcMXzX3q6UuvOT+zpuOYMVi8eDED4C+++MLcJ6P5Y+/evRt79+6lVatWYe1rr4luybF2VIf3zt+wbMgpvZIm33XNlUNkINDb3VATEfD7wFIGK8Vh3m6AhRDmLHQhYNOEFcmXbPj8Zh/4gA9+9jDMYnIBcGRlUV6kJJEkSPQiosyI6Eh88s6r9QFDFkZERlcmJiUVuCOjt6R17rwyL8d9iuHzmz1mrdeAQuvqmSGC7ncwPF43qly1rFyFCsUvRwm6QnEIXH/99dJV6HR16NRlfc6OLaPYynYTZo834IDcLg7+hyCjYqIbBwwe+uwb9z9UlTFkCN3w9NNttkgZoByAR4wYQf7qwn4Lvlo4oygvd0p1RXG/xgZ3asDv08mQ0ipuZ50EoJnSyZasNsm6OHDUOQXz8iEZEKJp4ovVYjaY4mZGwf319eRrqI8B0NddXcVVpUXEJGZqkAbYMNvHBwvXgJDyeDMCwWDztkcI7tOv//K0tO4eKOtcofjFqDp0heIQICIs/3E9T59+bu6m9euvqqupDjO1K9hiLTj8ZP8EFbMEXbelpHXZ3iNj2tJcr5duuukmzmpj3Nj+qEO4qyr7fvLmvLmLPv3gGeeWDWdXluT34MbGaMnQBEsSgoUlooLMM6Jg/jiF9H5v6jC376Ka2sAGtwu2vLGiBma/GAuY/wExkZndz0QsAWbBEMRMbDa9C6a8W73krSo7gnnjkNSpq3/Kuede6/5kYfFlQ4ZQ1tatR+AdUihOXpSnS6E4TP56yzVXrP9hyRMNda4kYdarmb1bg5lf+/dNZ8nMKWldy/oOHpo59MzpPzz//PM4Y9cujH7uOZx77rktJcDRvx+657Rl2Qvfri4t6ezzNkIIUy0FhDXDRQZl1jw2y3292g/4mDc54a2/9w1n2WeVN1XLM8yG7cDPbOimfYLVaoxgAxqrm6xl6VsHZHOMHEgyh8fENQ4dN+HxdTmlfwNA33zzjbLQFYpfyIG+N4VC0QaYmXyN3ncHjRz9oD21szsgJdjq6sYglk094aip37oAqLykMGXzhnWv7tmwYsYzjz+uwfJjh4WF0bM33dRsMXZ5cemU0oKCzgGfx9CEBhAJDQKQDCZJfMCeRAK07wz2+wGav5MPbXuzz0K3/kfWT/C50CltoUNjgjY9LNFHUM+JIKU0SEPvfoM/Hzlm3DMTJkygRYsWKTFXKI4AykJXKA4TNhO/+MPXnj/7i4/feyJ3x5be7PNoTIKYAY0I0kwuM3udByewSIPjU9J8Pfv2X53WrcdHySlpK0qKC52dunb1jDvtdM/AkafJF66+Gr9/5RVOi4lB99RUuubGWWNXf//9iwW529Mb3fXhwuzG3tTMRkJCsGgql2NualWHQ/mY72etW/v/bK3QhjkUbB9j7svSrMY389zNFYPJ/szgiOg475BTTv32ljvuu26FY27ZxQsWSCgUiiOCEnSF4jAJNpmZM4doaO8Xe3638ItrS/PzLqssK+rh93pZEyIYTG+KYwf3NCRDCIItIoqjYuLqwyKjtscnJOwhzfZjbELS7oFDhm0YMGJU8eUzfuebfsopVBgbK2+/7qqOX3y84Lz8PTkXVhYXnt5QVx3TNMTcrD7bN63tF17X/qIe8hg4JKrAwVb0ZuOYkO5wDGa25sUIXeOw8Ai2p3b+qXvv9Nf/8cJbLzgcjkYiYofD8ctOVqFQNKEEXaH4hTgcQHX17WJQr8623Zs3pgT8jfft3r7l8orS4niWBuuazkIIImbT985ELMCSDQhLGU1BBDPpgYjIGC9pVJWc0nFPt959F9miolddfNUNWwcOHVa0dd068cWHb8ZXlpUNL8jL+b+CPbvGss9H+6adte0jzSGjV4OEinjovwd/LjQ9gIJ3FQySLAMGGyw1oYUjoUOqJz6pw/fpffv8t8Hd+OPQMWMrLrn2FuOhhx5SYq5QHGGUoCsUR4jMzEwCwK+++qr21QfzR6xbufIPOTu2nOkqL0kLeBojIA1TGSXBUnJrrprluydzMBsbhjl6jYhIaBwbm4C4hARXZFTMT6ldu2/UwsOXaEDOqDGnNO7YuunqhR9k3eNvbBDBJPTW2E+smxLnfp4kZ/1hCb/1J7gpLm4WtMl9MXIikE0PxMV3qE5ITsrt0af/p0NGjF046bwLf6qqqvLNnz8fAMjhcKiYuUJxFFCCrlAcYV588UUiIlx99VUi65Vn+u3cvm1cZWlJRlVZycja6qre9Q11Ovv9YBmA0DTJZhm75bI2bd+m6WQsWZodYYhIsG6zkabbPDFxcbU2W7gzPjZO5uzacXrA5xH7xJzQNOktJGM9tHld0PI2O8CbbvODRdx53w0Ck9mH3ZoMxwQS0Gw2hEfGICExsSA2IWFdfHLK8tTULqtPmXDGlgq3UZGXl8fvvvsu5s+fz7179z6qr7tCcbKjBF2hOMIwM15++WUUFhYiPz9f3HHHHfjx28/DhNDi8vfuGRBorJ+xY/PmqY0NDf0qK8t1w+eFLgQDkJoQEDqRlGaget+MNgaRYGtYmxWelgQm8+FgHnqIm3xfvVhwEcvjj30udDMjzSpuY4YkAXM2u9WHxlxASilBzCJgSIIehsSkJCbSd/Xq1+/7hJTOHw4cPHhD4Z4c19QLMn0zMi+T//znP1FVVcUNDQ249dZb2xwKUCgUh4/6lCkUvwIvv/yyeOCBB/jee+/lnJw76dFHPRFZ854ds3r59wMFAmcWFRb2Nnze5EaPO8Hn9oQzZBgbBkvAKk0L2srmvDYGWxPNKKRj/L508n2OdDZrxIPlZURBPz9JZjY7zDNAwmxyR8JcWwhThElIPSysMSImtsFmCytLS+tSRDbbl+n9Bv50ywN/X/L7iRO5e8+eGD1zJn/00UeiS5cuUsXGFYpjgxJ0heJXgpnx5JNPUk7OnYiN/QsKCgqoX79+uPSC86LXr1sZn5+T06myrKSz1+NNERoNr6ut7VZbXZUqA0aaEfDF+X2Nkd5Gj/D7/JDSABgwDAPBijhIsyqOQ+LdgCn0QgRrw8msUSeAhYAQAhGRkSRsNp/NFua16WENTFQaFRdXFh8fX6KR2Ex6WF5CUlJJWpdu+WdMmFTVa+jo6mnTpiE2NpZjSkqoW8+ecPzvf22aDKdQKI4e6hOoUBwDmBmzZs3C/Pnzwcz0yCOPkP+vf2UHMxc4d+HH5YspN8eJqooK3DF7brSrMK/L+g1rO2zfsiWh1uWKjouLG0waEho93m5CQPN7vbFVrprUYN23AAQzA8wiLDzcE5eYWCSECBDgselhe6GRrK+r3S5sEZU9evWu7dKje+3AgYOrEzp0LnXceUNdcsc0dOvRA337DeTRp2VgbnQ0eNo0cefbb3NcXBxPmzYNX3311RF9TXbu3ElvvfUWAUBiogu33jqQgRvUjYJC0UbUJ0WhOEpYrmeaNm0axo0bx+PGjaNp06a1WK7FzDAMg/7+978D8+fDsXs3mJmffPJJ8peUoCE3F9sAWD3gOWQ/QvOzGTh0jjmsz/31558PYsaUyEhsHTQIZ599No8dOxaOYK68w4HBgwfjoosuCpamHVXyc3LCt69dpQcCjPDwCAwZPTqQ3LWr939XXy329OwpoTLkFYoWUdPWFIqjRK8uduhCOyXWZpQD2N30OECzJk8Gn3EGz5kzZ799LCk9ZNGyBDfQxs1bbB83J3j8XyEWHkzgy9m6NfHpuQ/8s3jvnjSAWGiCkz/qUJfWufOuTqeOXnx2vwHrvly8rN7hcBAAVcOuUBwEZaErFEeJzevXhP3zL3fk6BpFxifbl/QbOOybsLDwT4vyciptMXbf2DOmGKte+Jd2xp1nyVNP/bM8GV3LlqDTim8XDnr8b3/eVLw3F0ITYBA0IaDrYYiOTzA6d+uxYcSppz9anL/34xpE+Z/899NGa2u3dLw5c+aomwLFCYey0BWKo4SuaXDXVMrSooJETdcu2Lpm9fnhEREPJSanbGOhryx0blsfbU/dXb23w9499g0lOJlngpMMCBJ+m82ma5pmpgIwswx4UVdZJrZWlo/M3bn9rU49en4ycOjwxwAsx2G8Xju3b9HZ57EBaFyQmYmZWVkn72uuOOFQgq5QHCUCgQBDaFLXdSYCBRrdwt/oTqyvcZ0qhH5qqS3MHRkbX1NUkFfRa83QL5h5DhF5j/V5HwsIBthqY0PMVmUdSAgNAFgDw++ppT07t51XV1Mz+rnHHr7lpj8/+HFb1w+69he88GTvDZs23n/GlKmPfr1w4Rbs66ejULR7lKArFEcRq3TMmiRKVoWZBGQAAW8gqqqhLrK8ILeT0G19yvL3/oeZS36NBLTjDmZqGitjDXsJ6WhnCj0EI+DTyvKcnRd98t4bT//9vku35RZ+Obm20ZhpJgk2y7/+dS8B4ATW4jetWj6zyOk8Z/yF02Y9M+Osb2+5z+Hdr92tQtFOUfPQFYqjSlOH9GB7NwIEmY3giHRdEzbdBgH2GwH3MT3T44YQXTWb25A5zQ1WO1ybDeWFe6JXf7/UMXbYoB626Ghq6o7XDPfcE8H33BMBW0SUj5n9uTs32z9b8Ob/8p07rnvh0YfCALS6hkJxvKMEXaE4SoSFhZFo+oyFqJQ0R4STlETMZHVeJ0Mqh9lBMevpYdntBAA2IpTk5w3dtGHDbR9+8AFfFR/fink9B8AcxMYlemKio7xCEBqqKpK2rPvxH1WlZX+BcrsrTgDUN4hCcQgEM6PbkiFNgoghBbMMdlo3nxBW3ZgIar0Bc2qKUD7fg0D7mezWoDoCAo31+p6dW6877+/3P7ti0+4d1wN46aWXWlxLsjBAQlq+fVFfVRm1ZNHnjrpb6rzpA4c+BcBz1C5EoTjKKAtdoWgjs2fPPiTB1XUbUVDHmwajBOeLY/9Z5EfyRE9kmEHEBCYSpHF1aVHEqmVLb7rmmmuoNTEHAHdDfWNYeISZeMhgoYHcteW8fsWyu3dt+eniu265XlhjcBWKdocSdIWiDTgAoueew6QzRibH2Khv2/biJoMyOMp03ygV8/ngNDTl8G0eptAfMofNQIIJ5Pc1UkVJ/ukdY4V99uzZzX6fBe+saqur/JomjKaHGYDQyV3rSnBu/emxs6ZOHdGrVy9YDWwUinaFEnSFogWCrvVBr70SkXzr9ee/MHfumj3bNvze21Brs9qt/gwr+Q0MSmJQTPPKYOZugyw9V0lZB4WCPxw6t928NRJCSGmgU/aXX/bavXtOKysBHo/HL/SwestVwgyQxmBiprLCvYlZr7z4cY+k2PRTTjnlKF+VQnHkUTF0haIZFmRmUlVREZ6ccw+vW559+85NG28rKS5ITunYscvWDWvC127LabHVqruqKp4Z4dQkSYpfgjX9FaElZgSSAZ9Pd5VXRL3xRqtLUERUlEFC1LJlsZujZc1lSUrs3LK+k8/wzzXYe0tmJsqzsqyR8QpFO0BZ6ApFM2QB9IcXXojK3527YPWyxXMrywo7SABSyoTy0uKwgoKCFlXaIKkB5vhxHBAzB2AF0lv4W7EfVhqCWcbGTaNhiQ0G4+DekgORTe8BUfBXMrPoCQShEXNB7o7flhYWXpmefotUrndFe0IJukIRQtBdDoAmDU0ff/0FUz5bt2Lx7/yNHimEIBsAd11tRHlJkQb81OJaQpJp3QWFukXB5n3tzBT7EUwxsNIQTLe7Je6SJfRwm4yMjgsMaWWdIQDYMMBstqIz1+Km94UYgGQR8Hho56aNdw3p1Wdchw55+O9/rzm6F6hQHCGUoCsUIfzf//0fAcBzj/7tgh+WLHo9Z/tPEyB90IgFJEOQQENDva2iokLDmx+0uJZBsu3WnWpT1jpWk1amENOapdBttpr+g4YWXXj55S3u3ggExZvMG4QDPSZm+x8SoNKCPak/ZC96cViP8zvk50eq90bRLlAxdIUCQGZmJn4HCHSya/ddf9nVmzeufaa2rMim23SQIDBb1c8CaPQ2htfW1Wv+XYd4kBaHlp7sNN/uNvQZJrMu3Yyjg6FrxLpt15QLL86bcuHFPOfNN5s9woUIRj6YJTOE1X2uaW0GJECCwWDJO9avHvS+zXZVdSM/npmZyVmttJdVKI41ykJXKAAUFBRQ/7tuTVy95NuHNq1e+a+GimJdt9kAFpASYJZNrUF1TU8iIOoRtJwwpYWagK2IuZnrbpy0cs/c9q8iKymOmYGIqFgMHzn6nRkzZhgzZsxoMWTxTwAyYAiNRLTWlFS3720hANbjJAAKBDzIde6c1adn1/42m02oiIjieEdZ6AoFQH+964/d//fsk09tXbvqrMbGehtpmoDZB4ZCveFMDGKZGB+fYG9KzGrOW67r2Fdg3rKiM4HMjnEnJ0TN38zsS3dj01ongmSzcK1Dp657h4055ZPpV94IAPjss89aOgzbbFpYwOeNN9cxX3Fh/QQD82aVO0BMVOOq7FdZXvKn3bv33jRu3Dg1mU1xXKMsdMVJSTD5bezYsfTEg3/u+smb/3t2/YrF5/s89TYCETGxsCKu+zVkZSYj4AuPiIiIzcvLQ15eXvMq7TcN72A+dsuctMZ5q5j15wxi87WUzExECIuMNDp17f7ium17aj/88EMaNmxYs2sw7wLzLnRI6xTvbqiPATExm34B0yYPuWkL/pCA9Hn03J3br3f8+eaJEydOxD333HN0L1ah+AUoC11xUnP5OWeOWr9q2RMFObsmgMEkNEHB1CsOdnUjkNWJhAho9Hr1uoa6xNdee63FxPSI2PAygOoBxAfL1thyriv53h95sFeE2Rqjar7GDDbntBAgJXOHtG7rO3bs8notAIfD0WL4IyvrfgLADdX9e7kbauMlmITVO5+s4yC0vp2ZQMQQBFdpofj6k49mT7vost9+/f2KWigrXXGcogRdcdJhdXjjf/3ltnFbNqydt3fXtn4CkoUpKgyAglpuematFmUQAIj8Xp+tusIV33/88IOuHxSFXVs31xCRm0HxpiuMoHy2B4egmzc7QLBtnvV40xvCRAwIIBAwZGJKWuPIcac+5vbrxdBbf0m3bh0EABReXzbF5/XazIx2MsUc+6x0tnoGEAhgJgaYpZTO7ZvH/PjDN5Pff/+rj4/G9SsURwIl6IqThhBrmh+8+er+zh1b/luyx9nf/AY3ZTtoO1OwPIpNe900/zj4pU9CIP3bb79t8Xi6rpuqQNzUW8bk59boST+M20o6N13dZkoBW23uRdN9FgASRlJaWvn4MyY/fvtDj30AQLZW8edwOLBo0SI8MecB2yvPPDm5sdEDYcXhtaahOVaCHDX5ZywXPxMRRF1VZXSec9dFf731hkXbCis8jz/+uOogpzjuUIKuOJkgADz3vttO277lp2crC3OHhOZbNQkvBTe1diCCYNOiYzCkEWCPu6H/yy+/be7ZDA31dYau2wLmogKhGx+YIscAg7UjeKntC2EDg4RgZhiGgeC9FACQJkC6DdGxsZ7E5I6f90jv/9w9/3jmO6BtDo/8/Hz079+ffvxhycjKkqLBlkpbb0hwaE4I+1wz+4ReBmRZQf4Zhfl5PWrqAltD288qFMcLStAVJwVBN/tDd944auuG1fMq8veki+D0M4BMG00gqA9N9c6AJeMEAdOq40AAFaUl3Vo75pdZbxjRsbH1ALE0G5OF3CbgAEOdOcysdT8Z4YHDT8kfOGrs24nJKQNqa6rDCKSbms7+lI6d6lM7d/mu78Ch721d/+P2GkT5g/u1RVRra2sBQG7fVj7TVVEapguSCNahMx/EXwKY77qEMG/GiImEu662c2216+KGxo9nX3bZfBU9URx3KEFXnBQQEZ548N5eOzatf7G8IC9dF2QO7gpp/YmDWV1N2ruvhk1KiYb6ml47Nyzr8tZH3xQA+6ayheJpdLPQdC+BIEgyWFBzGkAAI/zkc7uHvN51zHwFABsAzfphmNEO/5w5c4wzp/8OL739Po0fP75NQh5k0KBBFNno6rdiyTfnSBmQuhDU1O41KOoHrGd64s1bsKDr3+9rFCWFey+9/cEvnv4y+/sKh+Pg77tCcaxQgq44GaDHZ98zZPWyxa+V5OUMJykhKSgmIW1FWtIIyx4L7tHY4I5fuuT7kd3y8grRjEon2DugorS0GkTMHPTxHhwOnRtykmKJqx/AgVPsGAASExOxcOFCXrhwYZvXdDhA/TrG0g+Lf7yozlXRQxfioAJ+IOZ9nuWbMeMhBLCsKClOX7t86W+//37Zy1AWuuI4Qwm64rgiI93+WwDpLWyyM9vpOpRMY/Huq890+uaTj14o2L1lhK7buMnvHTqY44CdaL9/9033kmY/d66rrsa6VcuHbC2qC3Yy2e/LPTMzU8QkJjE0PZ/JitKGlEeZq+53FAbCD+GyTmh+JpQOh+OQrWFzUhrjtKkzen7w9hu3BwJ+myAhBO1/63RwcQ8JolvbEIE8tVW8beO66d98883/APiJmm9Z+2uTkW4fAuByAGMB9AQQD8APoADAdgCrALyb7XSVHsbakwCMaWGTbdlOV4tdfRRHHyXoiuONqwDMaOH59wG0KugOhwM5OTn00AMPRP37oXvm5u/cNjZM1yWDhJXI3EL8tHkECYCYjICXDL/vjLv/eN3j4faO3sWLF++33dSpU7lfz268/ae1O3RdZ+n3U9OIsIMICDMxTvZMdxzZGTUOhwP/nftQ53/95fZ3KorykwQYMdFR3LPfQIpLsCM6Ng7RMbHwNjaivq4GddVV2LV1E9z1dfu54pnZ6sAlYLCfqyorhr736nN9tuwt24bjwErPSLfbAfwXwCXNbJICYCSAywBUAHjrENfvDuAjmDcIB+MbAPMOZU3F0UEJ+jEmI93+DoDTD3G3x7Kdrn+3su4qAJ0PYc38bKdr/CGex3HLjTfeSAkJCdqfr5350M6f1s30N3ogIMjyn/48s7kVgkLDLE3LWhqypCCv74bVq5L8H35ZjAO+2K+77jquqajAt19+sNMWHtHg9fujg43JVG700ScTEBPm3p+4Yc2yf+iE0X+8bw76DR6G7un9oGnNVxNIaSA/dze2bViDr95/Gzk7tobeh5HQbLKirDR+/Y8r0hd8s2Lbr3hJByUj3R4O4FMApx6l9QWA19C8mD8F4K5sp+vk7Vt8HKEE/diTjEMTXgA4D0Czgp6Rbu8J0+12KBwYt2zXfP72y5S7y3nVto0rbzY8Xk0zM5XNjjEADnX02T7j2WpBQkIG3O4ET0PtUM3pLD5weyLC7MhIEXv3zTtsEVGl7prqXrqmhZSbq9FrR4tJkybRzFkzbZ5G7wvX3nLnhYNHjGmz5S+Ehu69+6J7774467eX4Kc1K/HKE48gz7kNzARNCPJ7GqIBOXj9urWf+QMG2e32Y2ml34SjJOYWdwGYdJDHGwHcmO10/e8oHltxiKhe7u2T0zLS7REtPD/lVzuT4wyHw4G4uDiqqqg4fceWdX8xPD6dSAhuCpVzU9OQFiZ2/gwzhtqUHA0iooaGhpg9TufoMz9+X5jx2gP2ufdeHnXq6Xs7pKatlwyNrCYobPUvDRV31Q32l5MJ0NKlS8UVZ0/p3alrjx8vuOTKi4aMHEuH68YnITBs7Kn416tZmHH5dQh2eDekISrKy7vPf+k/+gMPPHCs37cbj9bCGen2YQAePshThQAmKjE//lCC3j6JAHBaC8+f+WudyPEEM+PCCy+k6urq2B1bNj5ZXlzUk5o6iAT7kJlWOtPhWcghYW7B0oCUgQnfL/su5qWXXjpoZtWSlRvqBgwc8nZUbDyklGA2p24zpNWVLNRiVxwOOd9+SwsyMwkActYvP23Y+PErh40ZN1SII/P1FhEZhWvvuB8XX3cLAII0DFlfU51SnJdnq6h494gc43DISLenAujXhk23AlgEYCGAojauHQ5gPn6eqbkcwJhsp+vHQzhVxa+Ecrm3XzIAZDfz3KRf8TyONPfCHF3dHJXNPTF69Gi6aOoZYc/u3v5/u7dtHsGGn4UgsDQNawaarPJDi6AfFCYi0VBbPbRTp859rr/++tXA/nXJDocDmZmZ/NJLL328Zdum73O2rD+dJCDM+WHBQuhfeh4nHcyM+++/H1dccQUee+wxke+rEz+lRCV1v+aS63Rb+N8GDB0RdjSOe9mNt6OivJQWfZRFQlBnAbZlZbmO5Z1Y7zZsc1u20/X0YaxNAC46yON7sp0u/0EeVxwHKEFvvxzUCs9Itw8G0PFXPpcjRrbTteNw9nM4HDR6+CBt5defXrRn25YrZMAHQWQOzQLvqys+Ai07zZw6IkgJd11NSsGeXVdyQtfVzWxO119/PY8cNOzumrLST6pKi5KJggNZlVV+KDj++lfC3/8OWG+BzVsbOX5wt0Efvv361JL8PRd06dp9xPRLrjhq/XOJCLNuvgvLv/2SAn5vBwKH4di+iYlt2Oa9w1k42+lqBLDrcPZVHDuUoLdfRmek2xOyna7qAx4/6u72jHR7MoBxAPoC6AEgFkA0zC83N4AqALsB7ACwPNvpch/C2t0BxLWwSU2207X3wAcdDgfPuf0P9txdO+70uGujCYI6du6OQSPHoku3HkhO7YiIqGiEhYXD5/PC425AacFe7M3ZhfUrl8FdX9fyiQXrka2adLb+8Hk9nON0XnbH3Jv+MXTomCKHY3+jOysrix0OBw0e0HVdbXnZ/9ZUV99h+NwEZmE1qTHbzjLUsI+D4HA4ROzy5bSjslJin3jGDOtmn/bi049fmpfrPNVVUpxkBHziT/fN0YRom55XlpVi15aNqKupRmR0DNIHDEbHLq1280ViUgf87qqb6LOs+TG28LBWGwdkpNt7AxgFoA+ALjA/J1Ew68MbAJQDcALYBGBNttPV4v8PrBK1YBJtS/0agnTJSLcnhfydf5DvjAOPQQAGARhvHcMOM8vdB6AappdsI4CV2U5Xm1z4il8HJejtFw2ma/2jAx6ffDQOlpFu1wFcAeB6mGLe1gClNyPd/h2AFwB80toXFswymNbq0H8X+sCNN95IN11zqe2dV1+aXVvlGpl51Q2YfO5v0a1XnzZZ4z6fF5vWrMSnb72K9SuXHXSbA5Pjpdk1jgng4r177J+8MW/msh7/fXrx4sUSyNpvX4fDwQ8++GBg3Bln/ru8uGTorq3rp2oAG2AiNrucMASOip/4OKe0tBTPXnkl6OuvcdnOnbT40UfpoXffRX5Njfz222+Ft7oiaknR7rh6rotBTfGosplnj78kY+w5da6K3u66GmYjwDbdhgGDh9PQMa1XXfp9Prz21D/w2buv/+y538zIxHV//hsiIiNbXOPUM8+id155LnLTps22gz2fkW5PBHALzLrv/m15HSyqMtLtnwJ4OtvpWtvMNhcDePYQ1lx1wN+Xo5k69Ix0exrMJLsbAKS2ZfGMdPt6AM8BeCPb6fIcwnkpjgJK0Ns3ZyJE0K2a0UlH+iBWtuu7aFsCzoGEA5hm/fyYkW6/Mtvp2nkkz2/37t1Y/NXn02y6/vtn3vqEklLa9F3URFhYOEadOhGjTp2IlYsX4ZmH/4K6mv2NmNCEeKuMHcRELAiehmreuWlD5impae8AKAN+bm0//PDDDKD4xaf+cR2T/EfhHudMT32NJoROMEBETL6TaHwXM2PKlCnmMDuA7iwooILq0g40MD3u7rtu6uK49Zq+e/P2dA4EAn29De7uNVWulFWlRd28nlphSEnmfHSC0HViljTxnBltunl7+fG/46v3D95XZdHHWQj4/bj9ocdaXKNz955I69KV3PLn96YZ6fZLADyP5uu2WyIRwCwAszLS7fMB3JLtdNUexjqHTEa6/XoAT8L0IBwKIwC8COBu67N94A2E4ldECfrxTyGar1M/0L0+CkBCM9vmAeh+qAfPSLefAuA7AC2bLW1jLIAfMtLtY7OdrtwjsB5mz54txg/tnbhp/Ya5d87+Z7huO6jR1GbGTfoNOnTshPt+fzF83safPR/sS2P+MAQTCUGyvKho8PZ1q0+bPPns97Oysn62nwX/4bb7it6b99zNP61bU7l25ZIb6yrKbCCWINKJfCeFoNfV1VF4eDgmTJjA9VUViamTxs38P8fdUyqrqsZUlpXEez3uMH+j2+bzujUZ8AmCMAQJZiE00+kusK+C0Ex37Dd4eKvHzXPuaFbMg3z3xUeYfvm16NVvYIvbDRw2Slu7bv1+j2Wk22+F6WE6ElwJoHdGun1yttPlO0JrHpSMdPvLAH7/C5fpA2BZRrr90myn67Di9opfjipbO/5pLtkKAAZZbrIgGc1sV4A2lquEkpFutwFYgCMj5kGSAbx0JBZyOBxYsfRbfPT2W1N+e8lVA36pmAfp3X8QLrvhtoM+x9ZQFwEznk5EIBbC66mPqa6suDLCXxf1waxZooUurnLzzXfW/vWJ5+6dPG36NV36DloZFhnjhoAWCGgnvKBfcMEFwlNfp99z4xXjB6dGvXDfdZds+vid155b/t3XF21fu7JbZX5ufF1laYTP3aARg3QtjDVNEyDSYeYumM4RZkgwmCXCIqPQvU/rzqOVixe16Rw3/ri81W3iE5MIcl9zNCsZ9fE2HaDtnAqz6uOokZFufxi/XMyD6ABet4wAxTFAWejHP61lmmYAeMP6vbn4+TcAfnMYx74QQOuZQsA2mOcZA9NL0Jq7MSMj3Z6e7XQ5D+OcQqFxg/uGJyYl3d6xS9dmb06NQABLF36G3Tu2wOtxIyWtMyZMPa/FJKiJZ8/Aa083Uz1nxdGFVfpmztWWqCguyKirqjzX2LEj6+Vx45qfl33vvfz999975z772tt/veuGxTs3rj8rLiFlqGaz1TW7TzuHmYmI+JxJY7vff/O1d5fsdZ7jqavuYgQCREzQCAxNBL3mImQ/U8EBq7TAIsS93rVnb4S1np+GnB1b23Su5cWFkLLlTqbxdjsnJyeHvld/ROvfpwbMG/QSmDHqMW3Y5zocvLnLLyYj3T4cwANt2DQfwE4A9TBd7C19J0QC+A8OvVOl4gigBP34pwhAHcxM8oMxGcAbGen2MDTfEz4bpgvvUBnRyvMNAM7LdroWBx/ISLfHwez9/NtW9h0FM7v3sJg9ezYxM/oPGHReo6+xRYvg8wXz8coTj+z32HuvPY8n3/gEnbr1OOg+9g4pSE5NQ0Wp1dU1xHa2stgs5eXgZFXRUFcX/dO6tc/MXTD/h2fnvVmMVQcPJ1q16gwAW3LKSl5Z8NVrDoeDO3bt2tpltzssTwUB4Cce/PPg5d98/b5zy8a+NkiDhC40aICQAJv9f3jfCxvSP79psZ8fgAhxCW2p3gJc5W0bMvb5gvn4fMH8/a6BrIk+DIbBLFPSutaOmXBmaLvk1j4rWwGcHVqhYWXAfwnTXd0c3TLS7SnZTleZ9fcaAA9Zv/eDmSTXEv+AmZ0eZFPI7w+j5e5KVQBuyHa6mmJIVp7On9BC62kAYzLS7ednO12ftnJuiiOMEvTjnw4AvkXzmd/BOPp4mOUwB8IA1sPMij9UygAsaeH5H0PFHACyna7ajHT7H9C6oKe18nyLCCH43Mmnxbz+/H/uPG1yRouu6gHDR6FLz94oyN3d9Fij2403n3sC3dObd9UyHzwhf/+JmabtCLO3K+/ZvrnD444H/zps5Ii7MzMz3VlZWS1a3K+88oqcPXt2cMz6CWmdA+A5t/9hVM6OLS8XOnf0CRckJQvBkEQINvCzGv6wFdZA23sGxMa3TdC9nsNNwg529CMA5og+PcxW626oC02y2AXA28IiLx1YbpntdO3OSLffjwPLIn5OJ5ifRWQ7XathheEy0u0XonVBfyTb6ao/8EGr9PTcVva9Ltvp+uCAc5YAnspIt49v5dgXwRwao/gVUYJ+/JMKs21jc4Lew7rTby5+vh6HKRTZTtcTAJ44jP0qMtLt5TBvRprjFwW8S0pKxPKli0/L371zjDxjUot9XPsMHIr/Zi1EaVEB8pw7kJ+zC/k5Tuxx7sAP2V+BD5Kt3CJWDVvQ9iRmgBjEEDLgNbZvXpdpiwj7lIi+mj17Ns2ZM6fF17+159srzEwA+O7rrxybs2Pzm67ivN5mkZ7lOw8tBbR693FIU/u2Jv1HRh1qYvahEjLy1nTISFtYeLmm23ywVD7b6Zp1mIu3ZWLbkUkO2Z8paNk6LzpQzA/gA7Qs6JMO56QUvwwl6Mc/sTB7MLdEBpqPny/CoZeitHwws/FEd5hNJ7rAFO44mDH0MJhfQDFH8pihVFZWUnVZiXj2H44ZleUlWmFeTpsEMbVTF6R26oKxZ+y79/E2epCzYyt2bNqAxV98hNydbfh+bWofa/636W6CiEGk1Ve5Evfu3uXImDx18Q1/mXNS1uZWVFRQZWUlP//P2f337t7xUkX+nl66HlRxIjqgl37QPRH6r+njDk7DaTLd95tTTkTwNra5b9FhsV+HQQITC/b6A0UNHo//8sxMerMFL4yVWNoHQC+YXqlk7GvEZAOQ1Ny+R5nRrTxvZKTbX2nh+eRW9u+ekW63Zztd/8/emcdHUSZ9/FdPT25CQkiAEEggTDhCuE+RQwh4geuuGrxWhVXWA1iVV1DB3UwUdXFFRVh0YcUDvMD1hkUwEGC57yNAIJAACQnkvs9+6v2ju2cmgRyQIAT66wcnmenpfron0/VUPVW/yr7EcZk0ANOgX/t4xSZmJ0Za/U5CuylcjPsA1LSOvAaNkKWur40/BC1ScDNqXtO/4sx/+GEKGDGwzdkzyQMhK+XW2NU0YeqLcPe82IpD7bi5e6Bbr37o1qsf7n5oIg7s2oqFr7+C9NQztbzLWbnVMC4EsseJIc4mnxiQcDh+adxP3zxjm7sgIy4u7rr0wi9GFIC7/P0x8Z3ZXZOPxi/OTEnqYbEISGYoIDImRNqSBtk9cbtnbuzIuSOe/WeqYmCZGfm5OfUal6t7w4s1CAKkCNHSPyCta/c+ldZ9h/B5tW0irX4dADwGTXuhH66Mh91QWtXxensAf2rgMVoCMA36b4hp0K99DO96DWpulVhTBnsRgP+hgXKwkVa/ZwDMRv20o684xwFK3bs7JD83uy2RwrlZmfTp/Dn48/RoUAM6bGntMm/GW5/8B2/PfBYHdm6t4w3aA+sRWc2Wa74kq+W8b+eWe1zcXJJnv/xC9NmAgJLxK1Zc9/KuzExuRLC99GzYhtU/f56alNiXZSWTFlLX2tfqa9JkNMCrCcMrZwILqXXJ01ePnI16YX5evcbm61c/Z7hZcx/Mmvth1fOCPSJDEALl5WVtw7pFVJy/ZTTjI82RjbT6eQB4C9r39Fq/t/r9BsdoCVMP/jflWv+jM3Ekuq3Fpfc+3hCbmF1eR+/0Wom0+i0E8PTlvv9KcPefvNVVyzI7FBcX+QpFAbOklcuXIT83B8/MnA0v79qk4OvGp4Uf/u/1dzH5vtvqNhZMIHJq/gIGMYiISJaVqPF7dz/l1dzn2HP/mrdkufYOOb5m4Zkmi565TzExMTzzuSe6HNi5ZdHZk8f7WhSSBEEMpirhdN2Ya8557a1sWVfzYRjZ5oaWvmbUU5JOQK2shGKp/XYW2rU7dm5aV+e5tG7bDuF9BtS2CZ0+ebw4vFdfZGVlMQBEWv28oAkw1frGa4ja6/Iah8bUrzCpB6awzLWPkZ3+K4DK2ja8CIaSxmV9zpFWvwdRP2N+GsDnAKKhTTomAKif23TpUHx8PCzMg0lWugEsAM2YblqzEpOjbseKJR/g/NmUBh3E188fY+6OqsdotP85J3AxARIEIoiC3AyPXf/bMGfe7Jgpdy9Z4pZotV6X37kuR4/SlClTFI/SzDEnjsYvP3cmeZgQYMlErF8lPR3O3lPeqaj8ovvkanZeyzFnSD0aonv5XFhYgFMn6lYTHjisfoGq3oNqqv500NzX7+TUqVOdn5qL+hnz/dD6GrwMrS/CFRWOqYUa2xDr/A+a7ntD/tWv8N+k0TA99CaCXg62DTXXml+MNQ087LQ6Xs8A8GcAP8QmVu0LHWn1m4PL07Ouk7lzD+OW7rI1y0oJwMIgkB5+zck8j2UL52LZwrloH2pFj36D0KlbBEI6dUZQh07w9Kp/rl6XHnWVFl8Eu9epJYARJBVknPPe/Ovq2XMku059ftZ75W5bVZst7rfwkH4TbLfcotw6ezZ/MCfmrl1b4t7PTU9pS1p0HSSkLsFjGPILU98uhvMaubE5w17Xrj1LxFJVCUSccGg/1SXXag3vgWG3jsOmNT/XuI23jy9uv++hOs/Zx7fFugkTJrDNZoPezWxiHW/ZBa0MbL/zk5FWv24AalAwuqKk1/F6QWxidq06uZFWP2/UbkN+Ex16EwemQW9arEX9DXpKbGL2Zc+Q9TaN/erY7MnYxOzq3d4MrlS4jQsKWHlgZN/QQmbh5dWcu/XsSzXZiCP792DVCkfaUruOnRDeuz96DxqKQSNGoza5WO96CpZUwQgJEwEkSTCYBZTSgjz3nZvW/e3NoiLRMWz0B/ff3zp/9OjRPGnSpEs/xjXC7NmzERQURFyQ5TXnzVn3xe/b8/fCnAw/IYggGYJIW/e+IDMdVevT6sKYKhIBLBkQYDBbXN1KWwW0Lsk4l+a3ec3PfMe9D9a5x2dmzUZFRTm2rb9wrtumXTCmvfYOWgXW1DpBo7KiotA3oPV6fZkBAIYDtTbLK4cmwHQxZZtLz+RsHOpIEEH/SKufJTYx+6JRQV1gJg21V9D0A7DnMsdnchmYBr1p8QuAmHpu+2sDjxWMum+5yRd7MtLqdzdq72kONKyUzlcQtQEENW/pT7YFH9e44aHd2zHryYftv6cknUBK0gms+e5r/O6hiXh8Ws3KlyWFF+hx1I2+MKyFhAEm3XwJiMLcLI8DOza/mn0+vcctgwa/ERoaaky4mlQGPDOjc+fO5O/vDzUvrcueLZtmJB059HBxcaFFM+YECL0wzTm8zo7H+hlztm/PuscvNU+fm/sFlPcZOOjf+bn5PVNPnxpxYNdWHD2wB1179q11j55ezfDyPxbi+OEDSDi4D4V6P/TgTp0R0XcgXFzrbmJLROt++uknZyGgupoeFddgzAEtNF0XV6LQfj20nuw1zWgDoEUdauq7MLYe40q9vKGZXC6mQW9a7IRWBlKfDNX6daKombrFsYHnIq1+k4xuULr87BOoXwjxEb1PejaA5NjE7IL6DuzogZ0tykrL/AUY51PPoKggv8ZEuPA+/XHLnXcjbtUPF7wW2K72+3CGIft6KegeurAvEBMYTCQEQzKVF+UpJw/te0AtL+8T1LHj0wA2PProoxQaGspOHt81zTcPPCAAyB4hbQd++N5nS1JOJnRlVZLQ8gPBultOugUno56cqj9efP/GGrumSyMBaGEOUgSTFBwY0jFvROSYx0+eOOGRcPjAYwpBAiS++2wxXvrHwnoJ0oSF90RYeM9LPndVVVVSlJn3338/ioqKjKfr+q74Rlr9noxNzP6X8USk1a8VgJkALt4FqCovRFr9CqEp0cXram0NIjYxuzDS6vcltHatNTE/0urnCeDfsYnZRfq4FQB3QcsDqI3DtUxiTK4QpkFvQsQmZstIq9+vAMbXsSmj4Qb9fN2b4FEAd0Ra/Q5Du6l1Rc3tW6sTCiBO//luAD/Wd2DFObkuqqoqkgGoKnZuWo9b7ry4kJ4QCp5/dS7GPz4Zx+IPoLiwAF7NmiO0aziCQ2uT0AZ2bLz0IAfp4XZDbsbujErtWbC2nJyUcKjLR+/NXfnM/WPf9vVWPss4czJ5+vTpnJuby4sXN0ozukZlyZIl2Lx5My1fvhwJIQHBY6T10b//bfrLeVkZbkIwWDAJJkM2xu6F65XjF+6wFpvrWDvXUtvtxYAkONjaeUPfm4bPOJ+ZVXHqROI35QU5XiQUwdC6qf13xee4c/wfr8xFAJCRfvYXa/de8TabzblVTEY93vphpNVvBoAkaKIsXQDUt/pkLBwyrd7QmqQ0BtEAHkDNywVu0DTb/xFp9TsDLTM+CPVbJvi0UUZockmYBr3pUR+Dvic2Mbs+N5kaiU3MToq0+tXWi90gAMCIhhzrUmneIqBMKEoF9AqAzxfNQ7+bR8Dbp+a5RFBIKIJCatLluZATRw5h79ZNlz44ciznX/iavVYdgphyM9I8C/NzXvZv0/Z34T37fzJqzC3LP1vx/TmbzcYASH+8qjAz/Pz8CAA/88Qjzdt5iwfid29/IuPsmR6V5SWuFhIAsxYK199zSVF1p+NUyYCH5ptDWzZnLx+/yrDuvf8V3LHT3IBWrZS92zd+nZF2qpPQtODtc6h/z31NS4bsP7gRr4LG0YN78376z1dPR0VFCZvN5uwl1/cPJRQ1i0P95sQmZidHWv2eBlCbIhygheUvZdyHALx72QMzuWyuyxKa65zV9dimod65wfwGvLeuspjLxtqzd7a7u0eGUQaVduYU3vi/p5B1vnEifHk52XgvenqD9qH1Sof+z0kNjQCwIEBAISKUl1vSk070+t+v/5239F/vbxzWt1sUclMpLnYtPhg7VgDA0KFDsWrVqgafV32w2Wx46qmnEBUVhQ2ffUaPNvcWLz/zCNr4uN+8dMF7P29e+98PUk4k9JPlZS7Mgpi04IPWKs3ZKFfzzY3Mf3sFgIbDgBvXh0BaJT8TiCsqWfoGBhfeMvYP099d+u1fRt31h4INa1ctTDoS358qwYAw5lBaJzRVxat/eRxrv1/eqNdlc+wvWLZo/tc9BtyU3r179yqvxSZmH4fWNe1yuWLflbqITcxeAuB5NF5d+nEAd8UmZlc00v5MLgHToDcxYhOzz6Duhg4NLVczeAeX3jFJAlgILVHou0YaR3XyK9XKVCJi1juAHN67E9Mn3Is9WzbajcTlcHDXNsyYcC9On7xSAlcEQHVYMGZysSiklubJY3t3WL9aNH/pqeMJ67u18X36dFufbhUVFYr+JgoNDYXNZqPTp0/XdoBLhpnB/DHmz59Cn376KaDfF46mJwe0uCty3LFDB79Y9FbML/u2b7pZlhSyiybgQsLI9yPWJzBO2uz1WMd2eOWwZ8JLZmYwmJmhWGTHrt0PDBox+uEXXpu78L2YGWLJu2++kHQ0frgQLEFsr3F3pry8DAtmz8S7f/s/nDl52R16AQDZGecxL3oGL/h7dKGvf6sfpUuzimreucGfAZy4yPO1UQBgCjSt9+QGDbQBxCZmvwetW+OhBuyGASwDMDQ2MTu5McZlcumYIfemyRoA3Wp4rQjA5sY4SGxidkWk1e8PACZDm8V3qGXzLGgdmN6OTcw+BgCRVr/x0AQ0nkPNiXwFqN96vQGNIZLeQyJOCdBATahNM+CZ59IQ85c/oVO3CNz1wGPoOeAmtGzVps4dZmecx8FdW7H2hxU4uGvbJQzlMtEUUgAALIxEcAsUAkryc12S83OHCRe3QV7NfU5NuGvkjpF9u650l8XbAJwyJiuGMtvzzz8PHx+fy5rBMDMtXrwYiqJAVT9iADwneqaSk5HW52hJxu2xK3+4Izczo0t5aZEvQxWCBEgIvcDecIsJTIYkK118qaEel0PPPgADkJKlq4dXRftOYUv7DBw0Z+pf55x8+Y138eLTj045fuTQMxXlJW4gIaQe69DP5YJJRNyqHxC36gcMGXU7Rtx5Nzp37wW/gLokzIHiokIcjz+AuJXfYcOan7m8rBLhAwfv7NF7wMaa3NjYxOyUSKtff2hVKI+i9lySk9DWmBcYzUsirX4DoU2go1Bzkt1pXLq4VL2ITczeGWn16wngNmiJrZGoXz5MKoD/APgkNjF775UYm0n9uZRlLpMbGL3DWgSA3tAaO3hCE47IhqYItae6uIzTexVoDV06Q0sIsgDIBBAPrad6bX2kq/DNQw8JAHKTzP97/L6dMyoqyqAQtKxq565YOm2C2qNzjz7w9WuJZt7N4erugfLSEpSUFOP82RScSjyGlORLdawuH2ajwQicFtoJrK0Yg4hZBYiYJKuVYGERns180CY4OCegTdvVnbt2i7W4eqxNTzmd3S7UWt6zVx81t4Lk8OHDKYqImk2YwCEhIXBxccHMmTMZAE6cOIFly5ZR54QEWpyejvXr1zMAeTrpmNi8fq0lPfm0a6u2rVplZ+fcmXjk0B/STycPzUw/61pZVsakCEnECmvOMCl20210PSV9RuK0cl7Pu4pDMY4AyQzBqGSGV4tWZYOGR37wwmtv//X12+8oywxpiyD/5g/t3rzx0/zMdCmEEFK/kIoQF3Rfq412HTohtEs4mvn4oJm3Dzy9mqG8vAxFBQUozM9F8vGjOJFwGJBS+zCkCk9ff/no5Gn3Hk/P/XHWrFl1zlkirX5u0Gqwu0Prf+ACIAfapHdHbGJ2Ui3vbQatc2IQNC10FZoIzF4AB2r6jjU2+ve9M4Ce0M7BF9pEo1D/dwrAwdjE7MsoBTG5UpgG3aRJwcyIIaL08ePGJR0+8FlZaX5zoZmVS1Aqudo4dRAD7MlyWu+xKk1DdQlzCWaQsFjg6elV6erhleXbMiAZQhxs6e9/XgiX+OycrNPePr7FwaHWwvbtOhZF9B1Y3KVnzzIAKMjLpe1xv3qlpJx2P5lwzPfsmWQPTw/Xlp5ezSKyMs91JJV7ZmdndCouyPMvLi5SSJUMQXqTU0lkHydB2DPQ6nmmXE1/3ThhODW00ZdOoLjIVkHtD/YccNNb0159+5tZs+6SH34Yxy88PuGu/dv/tyDnfGo7RQi9JTnrVXGXFua/BPSIgYVDu/dcvejbNfd8//335ffccw838nFMTBoN8y/TpMlhmwTh6veXsF2b1n+bee5UF4WEIvTQb9P5g+YLDLr+rEPjXG/P6jD/mrl3kkcnsliYIAolU5Fns2aVnh6eZYrFUkKCcqWqFtn7ugrRkpmblRaXehQW5FnA0gMsm0m1woVYstTkc8nRrY71+LmhCANHI5qLF6JdeIbVPGd7boOjFJ2ZiZglW9w9Edyp89cRffv9df32/ckv3zNeXTxzJn7/7pv9li1asOLc2TPBQtPtZxD0JDx9dw02sOyYYwH6JZNMzFLxaJ7TKbznA627D4gF7EsdJibXJE3n/mdiosMAxa1c4fbVx0s+it+99SEXhSQxRH3DrtcOulVD1TEb8uW68a7+Ja0S8datI4MhWZVQmQXAwqgAqLJT7TlVCEXbLZEwyujs+2SjxanxfueCcjbmB/U/w4sYdZUJgqQ+XSC1WctW+QOGjZyverexdU5IoFxfX5R0DBbuavGATWvX/JSWdKylELBn0dunFURVjnFJ6OdjzKB0iXgQEVTJEIJZSsntw7r/dNOI2yaeK+O8mJiY6779rUnTRql7ExOTa4sYACWVpPYK71pxLjX1/tLiQgghQGw4sZoh0n68lr12bZWgujEiLe3MXtNe/U26LSLtbJmIiQAWJIQQJEgIwYoiIIi060IEoShQhCBFu1ACIMFGBxnnojLjuE5Kd46HehhzTSkOetjBvg+7h84MEpKZwK5uXhTY0bq7/83DZ/QaPPTjs+ey1ANlZVTRogUC3Clswy8/z0s/dbILCc0p15RctIUA52tzWRM453o6cpTZabXvzKpk9m4ZILv37T9r5/GU/QsXLrzqmgAmJnVhlq2ZNEnCw8M5tGvE6g5dOq9nuwdJTHpYmEgPwV+Ht2FnBVXtCc2nZpaGeSbdlSYwE+mPgOHWk13gpopFbwTYmGkY3jQZjr8WzdY6pIE9PH0rwnr2fye0W89xdzz4yI8rfvylLD4+Hrm5uZgxdVKrDatXLjl3JmmIQqrQrXiViMHl5dM7D7T6L/bAB4MAYbGQNaL3uvYhoauqb21icq1iGnSTpgp999+1FcPH3PlCi4BWGXoFM2kVzOxwDm8E2CFeo507w2gQo60JV70YV3ZZwrEaoDnkeiwbIEnMpLjIlm3aJQ2KvO3pPz495ZUPvvgu89tvV8qioiLq17uHMrSXtee0P09ck3b6xE3EsDAp+ioAA6waUvmNiFF1IKDNARWQBAcEBmWOf+SPz+06llJRXUjGxORaxQy5mzRJ4uLiMGnSJMpPS84sKS5xzc3JGSJVVWGCAMipOYqewuW0HHxdYOT063Fydv7dHh4nJy8Z9S7tuhDnUABXy9oz8vJhpK07LjU52qywlPANaFUU2r3nlzfdMubZIsV7za/rN6pbtmzhuLg4ateuHW7uFd51/aqf/pmadKwvSSm0sTMJfSnAcV5OF+FyMZYFoEVy9JRDIgFWXN3KO/fs+26pi983rVq1ohkzZlz+cUxMfkNMD92kyTJ58mTOYU85eNToJa2DQ4+qUhUMMAtiCQbBCL1DK0K6To250+K3/fGCtzgZ9UvDYfgM0XQjQM3sJChjb6gCYw2eGSAJsAoh2nTsln/zmHFPDBo28umnX7QdBoCOHTvafe1Xp08OX/XdlyvSko/fDFmhOFRroE8UtBO2p/A1cGbG9vNhfXlA+4OpqKiEd8tWR9qHhC7dsGGDMnny5Bsp1mPSxDGV4kyaLESEqKgoubu0NG300KFTy0qLvs5MSQ4ke0I16fdp3YOt4l2a1A/D39Yz7tmhCEdG7RmkY1Vbd8klJEgoarPmvlkBbduvePSpaW988OnStHClOQBwdHQ0ACDrbJKlfUCL0e+98er7KUnHrS4WBcQCUp9+6R3q7PunRgqz2LvisVGGx5AS7OXTUu0Y1mXu8jWbkrZs2WLWnJs0KcyQu0mT5vDhw7DZbPDya3OGy4sSivLzR5UUFngStMYhrAdXhd2o66VO1Bhm4XrGWd5GrxowysSMojoizcPVqt0MC8xSSvLyaaF27BaxLqLPwBf7DR720baDR3Kys7OxcOFC1gPxBADx29eP3/G/DfPOp57qoAjoIjb6p0NCCyGSo7SvvjXwdaNlFRqBAAJDcfeg3oOHfhX18GNvyW07K+OSahR0MzG5JjHvaSbXBTabTURH/41e+7+nJ2xdt3ZecW62uyKggLTqZU2RBI51XiNmjSudJNZEsZefwclDdlJ9I4LUV8i1aysBQGXhKtp1DM3re9Owl0beefeSH1evq2BmeyvY5VFRONy9uxB56dLdw3PixjU/LynISpcKkdbiRQi7Nr9RC9/Yn49zTbxTwYAM7tz9yKg77x6YlFVUbArImDRFzJC7yXWBzWaTU6Z8QU++uOnjvPwCOrZ/V0xBdkYb3enTmrLZQ8bQq7ictMRNqkJ2nxtauN2ohtNrwDXpdZYEqMwQLq7Sq5nvqVbtO6wYM27cR9+v3ZI4661bUVxcDK1wHIiKikIWIJ6Y+JjrGzOmTko+dji6MDeLhVDIkL2VzFCqCdE01ufjvC/WJ3XMgASkq5d3fvtOYX8/m5VXClgcfxwmJk0I805mct2wfPlypKam0oQJE+jNF5689fSJ4++fPXXCKsjCgiCManWGNPqS20uP7eup17QQzW+Ik4fODHvVgBEvBwGqypIUi/BvHZgf0rnL5y1a+H/i49NiX9yBY6rFYpHdunWrIpXaokUL+uazD9v8uGLFW0f3776rvDDX25gq6PXy2q7JELlt/BuUcwkfEVhlZhIW6tJ74OJe/QZNe/ql6GKYxtykiWLeu0yuO5iZtm/fzkd3bugXt2bVF2eOJYSqlWUCxIJYsADIuVUIrqABaaoYq+JsJJiDQQzWvWZmAnu28C8N69Yz7tZxv3t1/J8m75g5k6i8vICdo9XLly9HQkICqarKQV5K2K4tGxcd2b/7FgFWSZACbY5A5OQ9O8reGvfTqOb1a3oFgtga0e/QO59+OpwLke8dGGgmwpk0WcyyNZPrDj3ES6umvrjn0Scnj7J27zW3mU/LTClZSkhIJw9ME0F36nTGWk21Qw/F+dH40a57dvV9OXYMyanHSPVNqgzVLj5j/AxU+90w5gxAMjFDMkuVVZaC2KtlQGpIlx6f9hs6KuovL826/+T5gp0A6OWX87n60vOmTZto0qRJojI9cUzcLys/Px6/d7ggVUKwQmAIZhKkCbsY0RGuIj3bwIvj9I+IIO0fHZMKcEDbkJODhkf+aVaXfvmrn33WXH4xadKYa+gm1yWDBw9mG4CN2w+mtevQKbqDNWzDkUP756SePB5RWVbCJAQDEORQGNGtuFHrXMWHb9qeu6H7gouX7VWNTDB0bR4QiFWWUq2sEC5uzcg/MPBcUEiHL3z823wW0LZt4jcr15eOziyUALiwsLBagxlGhw4d6JF7bnN/3/bCE/G7d76Sn5Xhz8REUMDMLJlJIaGXjhkDqS5ec5mnbE98NH6HXZdAAixVKd2b+xZ2CAt7ray0eF9aWhqPX7GiQcc0MbnaNOn7lIlJfXjnnXdo3rx5SEpK8oyeMvHVIwf3PJCVfrYNy0roWmQkqrT4NNbR2W7cHSpo5BBTN7ia3yJ2rg/HhTkAzkPlC426XQPOHpKwT2aYIdjV07OsRes2mV3Ce34/ZPjoD0K9fBPWvPACwu+Nx8hXLx6fePLJJ+n2229HwrYNLfNyMl/dv3Pb44U5WYpFgZBgrT+LMU571UHjVhwYWvX2fHkSMHIjmZnJxU32GXrLvL9/uPRlZq50dXW92rEWE5MGY3roJtc906ZNY5vNRkRUfHvUhJktAlp/cyz+wANnzyT9rig3J7iivAyCiImYnMy6blWqrrUD0PueXBv+u9GAxt5aXXe3mZ0FdWB/URpG3a4Mo9s5gKUWbidXNzdu5uN3zscvYGOroHax/YaMWDfm7qikefPmya0xMRStS/ZUx0iA6xDU2rL5pxVDzp859bf0s0kjy0uKWShaiTnpuW/kGFLVSEhjhrz1yYLUowBahxeWFjd32aFLxLLnXnotZsqUKZWBgYGmMTe5LjA9dJMbBmbGF198gddff52ip012PRK/v0NOVtYTZxKPPZF1/qyvrKyQFosFgCTJWnGWAEjVS6kMNDvhSOACnMLWdX2jGhBOvrDsipw8dK1VN5NweLwMJ0EW7T2SARISgNDkVKQqwZJUCOHt2wI+LVvvbxsS8plU+fu2bdufD4roVXLgwBF+5ZVX+O233+aa6rOjoqKgKIro2rWrrMg8/fy+LZtmFOdm+gsixdClsU80qpWjXYk6c7sx159wXANCx67dV/YYdNOkvPU7Mo4EBKgrzFC7yXWCadBNbkhmzJghli5dyi4uLvzpgnd6rP7puwmnEhPuzMs63760pNBDShVGpZuwV7zptdjEds/SoWumC6/U4yt1OQaMqywJOAmuAFVC7nAykvae4QywkdVtmDUiFhYLPDy8iry8fc4HBAXviujde/mfp9tWz5p1U8kbb2zHhAkTxCeffCJrG2tUVBRiYmJo6eJ/UnDrgB7HDh+IObx/9+9KC/JYCCJyVKMZC9n2CIdjyI1UZ64/2pMbdSSDIQBmQe1COx+8/e6oB76fMu3of6DZexOT6wXToJvcsDAzQkJC6JNPTqNrcKJL7KrvOh46uGdwZsb5W/Nzsm7Kz87uUFZaDKmWQyHBgoS+gq77vU4WXTPm1cLzzkb2Yp65cx9Qw7138i6r4GTAUc2wO7YlZmNpWreeBGZVZTCBhGKBcHVn7+bNc93c3Q8GBnfY7e3dfJu1S9eDI+8Yd2rOex+WTp/+JD788HG88cb2Osu3bDYbxcfH87Jlyzz+NuXxB5OOxT+fnZ7WtbKiTBhdYkhfEjCy5skQqXEKtTemcIy+R/0SGtMayRAWtA7utG3IqNFPCd+gAwAwefLkRjmuicm1gmnQTW541q0DrNbT9OWXfWj4wM85bu1ql6B2wd4Jhw7dnHLq5BPn01Nvriwt9SspyIciGEKQJFKYCAIEYiOTzvnrZDfg9vXqixpp5+3ttdfVvO0qXLQZONkrvtiwY1IVlQySUODT3EcKF5eMth1Cd/u3brfE289vb15GWtrAocMr/vDHBytjYuYKVVU5JyeH58+fX6eBZWYsGjBApI0bJ1u7qyH7d++Zl3Bg7x2oKHQRQtHD3E57IQZYE4jV5j+6Cl0j3X1Yvy6SCAJOHjoRSwYqpSr9A4MTwsIjxr+1+It4YxOzRM3kesNMijO54Rk1CgCCGQDbbNuAI6cquw0amXVy8+6fUlbG/fjpiSPtFi94Z3heZsaQtJQz/cpLS9qUlZS0LC0t9oRUCVwJKdlIu9ItFuw9ySSzlp5Wzag7mxNHxbvDkyeH1rgdaU/D13xwoS+bQwgGWeDu4VHs4emZS0RpAYFB6cLiuiGkQ6cTg4eP2nzyH+9mJu9Yg54ffshvv/224h54Vt5D3oBT6HnBggU1XidmhqurK61du5Ysj9zbuvxI/Ni4Y4dfyThzKpilyiQUgAkC8iInJ+0iNY1pzJ2xl78RwCyZIQBSODA45ExE7/5/kb5t46FFDcwkOJPrEtOgm5g4oSd9yehvv8XK5csBAIEdOqfGvLv4y9LctP/8/P0PvmeSEtvnZGeFFBYUWNXK8l5ZGZkh5eXl7WVlhV9pUYFnWUkJSVnJqqoallnPLoeTQWdo5rhavbs9vZ4doXUhABIQRLAIAVdXD7h7eKgWN/dCRbGc9/D0TG3h73+GJA55ensn+7ZsmRLQpt2pHv36FmYWlBc++OCDPNnNB1i/HtS+PQBg3bp16qV4qN9++y299NJLAICEXRsj927dPC311MlRZYX5FkGAIEEspT2FgOHUatWega9PVhrVmBulhE5hfG1FBEQK2na07u7Rb8CUF998f8cnn3xiGnOT6xoz5mTSZBg4cCCmTp1K6enpPH369N/8+MxMMTExBICjo6M5JiYGWL8e2LAB0cXFrvv27gqNW7OqY+LReL/mvs27EFPX/MKC9oWFeYGZmZlehYX5iqtQLEIoHo6wMAA2FG6IJTOrlbJYZZXd3d0rg4KCC1zc3XO9fHzOuLu4nMzPzTvm09w/rf/gAek3j74txbd1UOrscAvjofsARCA6OhpCCJo9ezbNnDmT0YDQss1mwyuvvEI/TpwoKkYPUbt2Dmvx8YIP/nb86P4p+VnpwkVYIIUiiFVdTpe0/xiQwiEdW2ONfMM+i6pP6ImBUpsisapK0bp9xwNde/S+77V/fnIcpmducgNgeugmTQJmxg/ffBVaVlycU1RUlIuq5cu/CbpBYACIjo4GnCfEHh7lB08kJwQeTUo4eywF/9m7F8cAPs4scg8dUjb/+pWye+NujLnjDg8fTy9/BgtSJZgESMuaJ8mCpQtVJhw4nn407ZDq7d2Wp0//lwwOhgSghhDh92FhlBQRgc5iI7btbYuoqK54sX1VOymlZCLiWbNmXfa52mw2YmY+fvw4FfTv1u7A+tix33y86Kms1JTusrKcXCyuAEsilmCAJMgp+c+4NIb3XLXEr+HYVx2cnrG3T2MXF3cO7tJ5c1j3nlP/+o8Fia/90/TMTW4MTA/dpEnAzFg0760RaWdSHvv9fVFv9b5p+FGbzWbvs321YWYsXboUritX0u5jx/CDbtAv2A6gmFp6bQ8bNgyRkZEXPadgAL8PC6PsiAjcdo8XWrR4gMeOHduoNdw2mw1r1qwRbm5uPGXCeI/D+/ZNTDy8b+K51NTw8tJiN8PPtndRhT3IoNW/A44s9ivYuc65/SnrUQiWqnRxbybDInp/03/IsBcnPvdSCq7CxM/E5GphGnSTJoHNZqNbRwxy//Kjfy84n5b6YJfwbvd7ejf7pfSN+ZWw2SQzIyYm5moPs0lis9lw+vRpBAUF0b8XLaInH/qDS9u2Qb327tj6ZvLRQ6MK87NUYXEhBXo4QW91erGwN7SubDWX6jUCmjEXekp/paGiI9nFoyKi78DlD//pqWeHjBmbx8xmnbnJDYVytQdgYlIf4uLicCYtQ33o3rv3JiYcHXL4wJ4nK8pKAiP+PDG1382jzifHxFBcbu7VHmaTY3lUFGW0aoW8vDwaO3yIX3OX8lGnEo9N37Nt4+tpyYldKsvLYFEsmuA9GYXlAIz1cnL6pz9rN+KXbMwdEwRtLuBQlHOuuye74pwEA1CJ4O3X6mxIWHj0/E+/sc17Jbq4XXi4PHz4cCNcIROTpoPpoZs0GZbrWeeFZxLb/ff7r9dlnk8NDQwOPdWj76BXH3j4sa869OhXBjSyHvh1jM1mo/D4eO711xfF+v9+f9/+nTuePH0ysXdxfp4vs2o3zaynDzALLUldrw2z68Q3yuWuEryvwaAbnjkzkSBmKVUQBYaEJkX06TcVwuUXuPrIzseOmZ3TTG5IzDufSZPCUCfrHOD+6J6tGxcU5OZ4+LZoVRHep//H7s2avdpz2O2Z77//vjpy5EgzBO8EM2POnDnYunUr+fv705133imPbI1r6WLhEWeSk6clJx4dUpidSWCoiiKEXl6nu8Mwau40VTx7GZohe9too9QfpT55cHjmTtF71vTowS5unuVh4T22PvTE5In3P/706S1btiA4ONhcMze5YTENukmTIyoqiiIHdPfZu2PrvIQDex9BZZkULm6iTbsO29pbu7zdul2HlfnJZ8vx0Udsu9qDvQZI3riRktatw3Z3d3TpEmQ5m5AYun/zlhG5+VlRhfk5NxXl53kQV5IQCuzx9Av6wV/pW4V+NPu6vHA+uL1cn1mFBHHzFi1zgzpa548c+/t/Fqjrsn75BbxixQrTmJvc0Jhr6CZNjsOHD+P9fy0pCwxstys9JWVc5vm0loIl5eflBOZkZoxzd/MIeeyZZ3cfWrSo4BabTcTFxd2QN3qbzUYJCQniiago7nzHHaIo61yPrb+ufnP/jm3RZ5MS7yvMOx9WWV5qASBIKCAWuv665nqT0zr5lcfInBcOpVyj9E0bEJhZwuIigjuHH/zd78c/6trM5+uBo+4sKCzcxDExZojdxOT/AQAA///t3XmY1NWd7/Hv+VWv1StdNDQNzdKsLYtg2KIESAZ0Iiaisb0jiSa5GDVXZ0y8k/hoRi1CcpOZJBOj19yowyQaNISOcYsYoxBUFiEqhH2RnW7ofaveq853/qilu1lGroLCyfv1PGJ3dVfVr+p5qj+/c37f8z2M0HFBCgaDZuPGjfK166+a9sRjj/yusfJYoYqN7pziSzZDR4zZN2Tk6PsmTZu64t7/87Pm22+/Xb7+9a873b87HG6Xhx662lRXXyKpqT+QGeOeSNmwfl2B35897fDBPTcc3r/vs/U11SmRjnb1fF5s37hYz7pYs1rjxTaa6dlw9iN4y07aVjUW4fGntmI0IzO3acSECc9N+MS0f9lysLKivLxcGJUD3WgsgwtSbP25GTkw8HbRsOGL20Khf+0INWSJZzyNdNkDe7cNrzp+5Oe7t/31lX/4+089+plLJ60T1c7Hp083N69f71SwB4PB7moyEbl07PDs7Vv/cerTT/zyylBD3cxQc+Po9tZWvw13iWeMJiX5jCZWicf/jV0oP2tFbv9/4mEem1ePdXAVUY2oLyXd5vcbsG7IsFE//rurv7B6//HaUG5uhzz44IOEOdADU+64oD3zwgpN8pm/toZCxZXlFZeoWhVPjKc+E+loS22oqx1XXVM9/+ihw4Mvu2zaO1t/U9Y89bbbzAMPPHBBT8WrihQX32QmTrwmcdvYi4YPXP/yttveeuPPD215e8PttRXll4Ya6/vbSGeyqjWe8ZnoNq/RYrd4nZtIPMO9xDcm3nP9nIR7773Qey5Js7E5ditGI9ZKdn5/b+K0Gf8+e+5n72xKzt504Oixruzs7I+l9S9wviPQcUHLzs6Wqvpmveuf//e63Tu2T6qrqhwmEWvEqFgjRjyjnS0tqdXHyie/+seXvhIZOSzwucs/03zF3LlNx2vrOxcsWCCHD//VPPro56Ss7Pxct6yqkpb2tlm5cq9RVUlPTzdF/X/qqzoYzq85uGNUJFRfWnv4vfuW/+fjP9i/Y8tV1eVH8iMdbZ4x1ohnfLH92o0RFS9WKx4N0vg18sR+Jt1buJ6L13HC94nN52LV64njEGPTMrM6howcs2rOVdfe3pqS+4v1m7a1P/zww/rmm2/KSy+9dE6OD7jQuTPviL9ZwWBQHnzwQfPQ4ntGrlzxwn8c2rtzhlFVMWqsEfGsEY1dpk1OSY9k5uaW9+nXf0NBYdGyufPmr7z5zoXNP/zhHNmxY6zk5OTIN77xjY91Sj46Yn3SPPLIRqmoeEQ2b75SPvUpI42N42XWJydk7du2fdqWdzfObG9r+2RjTdWIjtaWwo6ODp+NhI0XbYNqeg68u+vGTXyz8FhonzhSji88P4sd3uJPbuJV8/GrAxrb7tSoRHvW2IiNSIo/SwqKhm4qHDLk0RGjx77QkZJTXV1dbUUSO+EBOA0CHS7xfvaD74xc+/LLKyqPHBjmedFtzMRGQ8QTY9SoqhXbFe7ypfizJH9A0cHiUaN/PmjEyLJQY93hseMn6bzrb9JFixZ5+fn5snDhQpueni6PP/64LFy48KyOXlVVbr75ZlmyZImIiKxdu9bs2fO499Wv/srWHjukG998w2x6521z+VVX5f5++bIpDVWVV1QeP3pDY01t/862JqMRa1OSfdEmK1a82IVwkXjJePSrWLV49Dp5omFLbE15/OX07I3+YV7jicVt3Y/b/ZgREfGM1fgBq6p2RdTk5hc0jRw7/ruTpkx/5OZv3ttx6623moceesipegfgXOKTAtd4Sx/+t4tfe/kPvzq6b8+4SLhNjHhej+SK7TMeHbRbUZOSkqbZeX3rcvv23ZSdk/tGRmbuuwWDBu+9ZMon64rGjGscPHhwJBbo8XAxXxORgSIis0Vk9j+JSN7pj+jXvxbZt09ERH4notskfihqegS67t+2MWfd6jdzKo4eGtBQXzu8q6NjbGNj06T62sqStlCoqKWp0VPbJSKeiBH1eSYe3Iko1/gAODGf3f0hP5fT6T317u4WPyAvdgxWPGM0oqqqYpJS0mxOn7yKwqHDXrh4ypT/XLlx56bnn39e7r77bjlfNt4BLhQEOlxk/u/3vnPxpo3r/33fjs2zPFUxYrzuXUWsWBURz1MVFZ+K2thMtUlK1TR/RmNSaurx/v0Kj6f409fl5RfsmzT1sh1TL525q19RUXNycrJ+TcR80EDfGg3apMpDh/q8uuLZ8e/t2TmsurJ8oBexU6uOHxvU2d6W19neltfe0Z5ubViMTWwpJkasMWIS+5/0KmrruezrI9S91Ky7GU3vzVvigW5UjapGIuJLTjWB/oX1RcUjf1s0ZOjSkkumbH7s179tT05OtmPGjGF6HfgACHQ4yefzmVee+83Apb/4+S8P7942y2jEp2I8NUaNihG1iX5oJjrAjXcxVRW11qoXsdaoEUn3Z0maP6NTbaQq0K9/XX7BwC3Jaek76+pq3ztecbxy1JiScEpqeth4EfHUxOvPxGpEOjs7fdt2bE3OyszKKB46dLRYO7axofaiiqNH+3Z1deUYz+S3t7aatpYW8cSK5xn1PLWe8Ux0N9JoVEZi5yI9C89PCu5ztLvZmTjxRCJ+KLGBuBjPiEQiGha1fQL9QoXDRr049+prv//MilW7x774opn/q1/JRddey4gc+BAIdDiptLRUxomY+5YtS/9f11/5L+UH3rstVF+Tq54XW3mtsQGuFdOzzagkVmarmIhItHe4qrWeiBHj86LdzBK7jPkk3Z+hYkwkNqmtRuOD52i6t7W1eWqtiEb/Uyti1IqKilUV43nRqfxYNZsRm9haXOKFbcaIOWG70l5LvqI3nMV3MHaKI9J7BxaNfZ+4KXaYGi91i/6Sie2jaq2oMZ5JzciQnNz87dn5fV8YN3FK2T/ccue2VatWRf7whz+YpUuXWq6TAx8enyI4a3lpqewsKfHyUsJpddU1X9r27oaHq8oPJ3kiRqLXn1VFjKcSHUGKxBIpHk3REFUTLamLDeSj24/F11pJd/L2lDhl6C4jl3hKx8rTog/Sc3eTWIAaY7tbmseD/BRbiUZ//CEK2KR7g5X4Mff66al2YTlFoPc8HisqRjwVa6014mVk5+qAgUP2jBo34bGucPi5yZfNrFjym993iYi99tpr5YYbbvjAxw+gNwIdzlNVc70x+tVlSy9e+vjDj1QeOTBVI50+K8YY8UTFGs/E8jUx4o02RjXx3cUSYdxdXNZzmllPMd1t4rfHv0/ke4/q8viUf48q8+7fPyHE4ycFJ1WRf8CPcSKzVXpflI8vaYtN8Bsbq4iP3WZivx9/ldEzDlEVscaqtZ6kZ2bVFwwcvH3U+IsfGz9t6ksbN+1pSEpKMiJCsRtwjhDo+JtQKmJKS0vNrsH9BpQf2vf1qiOHvlJfW1moatVnjDGJ9VqxkJR42MXH1FGqp86i833K+FTBr/Egj3d1156vNtFTLsHEd2DrHq2riKi1EeN5PknLzO7y5+Tu7JPX589J6RkvXv0/blx/yz99q33ChAkyceJE+d73vkeQA+cQvdzxN6FMREtFtDU5q2LG3CsXN9XV/nbrpg0/Obhz+2faQs3iRXsmRqfho8PQXiNjr0cgnu/hLXLyiceppurjsw/Ra/OauAIgEr+koGJFegS9qohn1IiqRqy1IknJab5A4eCugYOHrB1dMnZJV8SuHDZiaG3Hcyu7mp76nYqITJ48map14CNw/v9lAs6yYDBovvSlL+mR3Zvz1r72yv/cvnnTzVXHjgyxXZ3JIuqJdMeb9hiznu7Dcr4F/ClH46cZoYtKYio9HuLdP4/1klMVNZ6IWBH1rJfkk9R0f2NmTqBi2MgxKy+ZPv2Z+Td+ec0zzyzQO+5Yb+68806m1YGPwfn1lwj4iLz33ntyyy23mJkzZ2qWhkZsf+ftq0JNdTfW11ZP6mxtEzGqnpdkRG2iBCxRC29M4hqyyumn4D+KNeE9W7ecWIDX66L8iRfoex9sooJeTbykXVWtqNpItLg/JU3SMzNbU9Mz3+4TyH8rLcO/ZtzFUzbP+vzNlY899qNwdvZPddSoK82CBS/R2Q34mDDljr9JI0aMSIwiD9Z17E8NFDw89/PX/PJ4RcVXtvxlw+1HDu0d0d7cJJ7niyT5PC+2pDreQCUxbO99hb1br6K1k35qPtypdK8Cue7C817d8OQUo/JTBG2vbu7Ri+SqNmzDqp7nS/Wy8/M1r9+A/cUjS165aOKEp7Zv2bypsGho54bt+7WyXaWgIF1FRBctEhFZoV/8ImEOfFz49AHSe0/xK2fPyH/1j89dfWjvnvlVFUfGhhobBtpwl8+Gw+IZY7Q7GBM907v/jf4sPpqPpmRcj/XcIt2jfNN7qff7iQa4xrcnSzyQxqcSjBFVK9JjEr3Xcrn4wyRWn6l6xqfGl+Sl+NNb/BmZx/rk9y/v22/A+mEjR679zLz5bz61/NmmKVOmyDXXXGOuvvpqKSsrY0odOM8wQgekeylVMBg0K1avqfnXny1Z8vzS//jd6pWvDG+qr5vYUFv9ucb6uk+GmhrzI+EuMTYsYsT6jE+M8YxNDHQ9E28Y4/UaoXcvejuxevyM9FgWLhIvNI+vT48+vBUVY7we0+yxcjZVEaOiqmqtqoj1jPhEPJ+k+zMkNS21PDndv7ug/6B1XUm+vwwZWHho9LgJx6bN+Xzd4sWL5cqsvER4d3R0MKUOnKf4ZAKn8eSTT3ovvviiLlu2TOfNmyf33/OPQ19f8ac5x8oPXV9+8MCUtlBzdqipwWiky4gxNsnzrDVivOh2oKbH4q6ebdaiX3Zf+O51Ff50197jo/Iev5lYwx7/NtoeVtSIUaNWI9F6NhOxalREklKSJSs7V1NS00IFA4uqCgYNfnZQ0dC1X/3mPW+WlJTU3X///bJgwQKZMWOGN336dPnxj39sz/67CuBcYYQOnMZNN91kRUSWLVtmRES2z5p3sENkyc9Un1y78qXCd9asmXxw357Rka6OT9TUVA9ob23t19XVHuhsa/VHwpEkUWvVxsbrakUk3j1exKiJtm0x5qSz6lOOgDV+tVtjs/MqIl6s90u0V3qS51MxnklOTg6npqa2eskp9b6U1Nq8vPyGtLTUvUlp6XtGji45NG7S5K3TPn358e8np4QOXXedaVrY1HPCX9esWWPXrFlz9t9QAOcUgQ68D5/PpyIiL4vIouhguXPjlj2H7gr+8JCqmr/8+dXMNWtWZ9ccr8jNyskeeOzggYBRHZyUnDKyob6hqLqmsn8k0pWb7PNlqqpfw13JXV1hz0bC0t7WEn2SWFGb6W4LGxuRR6M7LT1dvKQk8Tyf+pKSI8aYVhGvpSMcaeoTyKvrk5d33J+ReaQ11HwgNTWtsv/AoppQc1NlalZ206SJk1uKLxrbXDL+ko5JkyaZ+W0iE6bPFJFoimdnZ8uuXbt0wYIFH8O7C+BsYcod+JCCwaDXv/92s2qV2OXLl+u6yy6TP81tFlm0tft3VL3DO7cO2LdnR7+jR470LT96tKC5sdF/5MiBzGhseyJqVdUT61kxxph4M5tIOKIDBhY19e3Xrys3N6dhaPGo40VDhlZfNOXSyhUrVrRunDcvOhf/gCci98mVL78sUzdskOuNMXPmzPEaL79cv/Wtb7EBCuA4RujAhxQMBntea442jD05O+3mvQcqNm3eVdHWVi779z8uskKkrOXMnmOOiPQpFcnLmyLH24xccd0CFRGZN2+eCfZaPdf9xGUiWvbaaxF57TX59re//UFeGoALCIGOC8b69T81r9z6TSNbYjd88YsSfOqpMy7cCj7wgCfRBdMi6SLFj16uN974ylmt2o5ugCoi63rf/kD0f9qj/eqZPumJC9r0hLauGox/FbQiEpRg9EDO8OHPrXeXiHlhYez4R4vM+oXopz99mm48J1BVWbw41bP3d0Zv8PlE7rtPz7QL3RtvfN+suu07RnbEbvjylyX4xBMU+sFZ58enHngfpaVirvrsg96rK5anFBbk+6qram12Vr9IRZOvIxwOe3ff/aydPv3k+6mIXF9aavLy8iQ/pyv50J4dSX3yck1dbY0dMnpcV1V9si0sLLQiIoviYS8is2fP9onUisjWkx/0BKGQmMzM2bp69erIrFmzfN0nCKvf935DhnzBjhgxQhtWrfLtztivIuPf937FoQlm8FW7IyL3yBtvvOFZW33GxzlkyBfsM88889+G2l133WVa33rLtyslRUUOiMgAWb36LSsn7xJ7SqWlInfeKeaKK8T86Aff9b35x98nFRYWeuXHjtqpM+dG/vmen4Q3bxZdvFi0rOzk+weDIrJ6tpl+3XXmN3/+fbIvpcuXkZJm9h8+ELls1ufDm7YfsWvWlNmKipPPW+I947dv3+7NmDbGvP6n55P75eV54rPipWZH5n5uYefTTz8ty8vKlD9+cI3v4z4A4EzMnTwnsGvrmsn1NeVjm6rLRzc3VBd3tjUM9Ut9xrDCzJYxE/d2DBoUlNWrVyfuEwwGZcKWLbJtSv/UUM2eUTXH9n+isbZidHND5cjW5rrizlD9gIzkdln0w//XUFZWZoYPHy47duyQ155/2rdvx8qhfmnOzzS5gUyTE8gwuYEMzQ74NSvg1+xAus0MpEYyAqnhjECGpgb6ZEnKxPGjO7J8DcUZXl2fHK8hkCE5eX6Tm+eX7IBfsgJpmhlIs5mBtIg/kGozA37r7zukIM+kp4RNVdvhoVmeLy/Ta8rLNH3y/F5unl9y8vyRjIBfs6LPZ/2B1EhGoNVr71tbMyxcPChg2uv2DkvX5rxskx3INLmBDJMTyJCcQJpmBdIl9lyR6P3S1d/Xpx2y60DVaSf67733XvGFj6fVdVYMTtPqvtk+EwhkmMCn/+6ylpJx08Pz58/v9R6fSigkMmH4/Sm5SaHiI/u2TWysqyhpaqga1RZqKG6sPT5ocklRskm+temFl1ZHqqt737dURLJLxPQZe0X6undfuaihtnxSc13FqOb66hHhjpbijlB1Qf8+KZFte/c1Dht2rZSUXC+vv/564v6DBg0yd9xxh9nz9rMDD+z8y4SWxqpxLU01o0KNNSPaWxqH7t+9IWNQ37SWue/s7ZAHRHrcFbjgcZIKAIADCHQAABxAoAMA4AACHQAABxDoAAA4gEAHAMABBDoAAA4g0AEAcACBDgCAAwh0AAAcQKADAOAAAh0AAAcQ6AAAOIBABwDAAQQ6AAAOINABAHAAgQ4AgAMIdAAAHECgAwDgAAIdAAAHEOgAADiAQAcAwAEEOgAADiDQAQBwAIEOAIADCHQAABxAoAMA4AACHQAABxDoAAA4gEAHAMABBDoAAA4g0AEAcACBDgCAAwh0AAAcQKADAOAAAh0AAAcQ6AAAOIBABwDAAQQ6AAAOINABAHAAgQ4AgAMIdAAAHECgAwDgAAIdAAAHEOgAADiAQAcAwAEEOgAADiDQAQBwAIEOAIADCHQAABxAoAMA4AACHQAABxDoAAA4gEAHAMABBDoAAA4g0AEAcACBDgCAAwh0AAAcQKADAOAAAh0AAAcQ6AAAOIBABwDAAQQ6AAAOINABAHAAgQ4AgAMIdAAAHECgAwDgAAIdAAAHEOgAADiAQAcAwAEEOgAADiDQAQBwAIEOAIADCHQAABxAoAMA4AACHQAABxDoAAA4gEAHAMABBDoAAA4g0AEAcACBDgCAAwh0AAAcQKADAOAAAh0AAAcQ6AAAOIBABwDAAQQ6AAAOINABAHAAgQ4AgAMIdAAAHECgAwDgAAIdAAAHEOgAADiAQAcAwAEEOgAADiDQAQBwAIEOAIADCHQAABxAoAMA4AACHQAABxDoAAA4gEAHAMABBDoAAA4g0AEAcACBDgCAAwh0AAAcQKADAOAAAh0AAAcQ6AAAOIBABwDAAQQ6AAAOINABAHAAgQ4AgAMIdAAAHECgAwDgAAIdAAAHEOgAADiAQAcAwAEEOgAADiDQAQBwAIEOAIADCHQAABxAoAMA4AACHQAABxDoAAA4gEAHAMABBDoAAA4g0AEAcACBDgCAAwh0AAAcQKADAOAAAh0AAAcQ6AAAOIBABwDAAQQ6AAAOINABAHAAgQ4AgAMIdAAAHECgAwDgAAIdAAAH/Bf4F6nzPOuUswAAAABJRU5ErkJggg==;clipPath=inset(31.67% 15% 25.67% 14.67%);" vertex="1" parent="0B4loqaDKJ7nYiXQ2XOH-32">
          <mxGeometry x="13.789999999999992" y="30" width="82.43" height="50" as="geometry" />
        </mxCell>
        <mxCell id="0B4loqaDKJ7nYiXQ2XOH-33" value="" style="group" vertex="1" connectable="0" parent="1">
          <mxGeometry x="765" y="310" width="110" height="110" as="geometry" />
        </mxCell>
        <mxCell id="0B4loqaDKJ7nYiXQ2XOH-34" value="" style="ellipse;shape=doubleEllipse;whiteSpace=wrap;html=1;aspect=fixed;" vertex="1" parent="0B4loqaDKJ7nYiXQ2XOH-33">
          <mxGeometry width="110" height="110" as="geometry" />
        </mxCell>
        <mxCell id="0B4loqaDKJ7nYiXQ2XOH-23" value="" style="shape=image;verticalLabelPosition=bottom;labelBackgroundColor=default;verticalAlign=top;aspect=fixed;imageAspect=0;image=data:image/png,iVBORw0KGgoAAAANSUhEUgAAAfQAAAH0CAYAAADL1t+KAAAACXBIWXMAAA7EAAAOxAGVKw4bAAAAM3RFWHRDb21tZW50AHhyOmQ6REFGU0Q1ckQ5NkU6MyxqOjQxMDgzMzkxNzIwLHQ6MjIxMTE1MjP/EXrJAAAE82lUWHRYTUw6Y29tLmFkb2JlLnhtcAAAAAAAaHR0cDovL25zLmFkb2JlLmNvbS94YXAvMS4wLwA8eDp4bXBtZXRhIHhtbG5zOng9J2Fkb2JlOm5zOm1ldGEvJz4KICAgICAgICA8cmRmOlJERiB4bWxuczpyZGY9J2h0dHA6Ly93d3cudzMub3JnLzE5OTkvMDIvMjItcmRmLXN5bnRheC1ucyMnPgoKICAgICAgICA8cmRmOkRlc2NyaXB0aW9uIHJkZjphYm91dD0nJwogICAgICAgIHhtbG5zOmRjPSdodHRwOi8vcHVybC5vcmcvZGMvZWxlbWVudHMvMS4xLyc+CiAgICAgICAgPGRjOnRpdGxlPgogICAgICAgIDxyZGY6QWx0PgogICAgICAgIDxyZGY6bGkgeG1sOmxhbmc9J3gtZGVmYXVsdCc+ZUtlZXAgLSAxPC9yZGY6bGk+CiAgICAgICAgPC9yZGY6QWx0PgogICAgICAgIDwvZGM6dGl0bGU+CiAgICAgICAgPC9yZGY6RGVzY3JpcHRpb24+CgogICAgICAgIDxyZGY6RGVzY3JpcHRpb24gcmRmOmFib3V0PScnCiAgICAgICAgeG1sbnM6QXR0cmliPSdodHRwOi8vbnMuYXR0cmlidXRpb24uY29tL2Fkcy8xLjAvJz4KICAgICAgICA8QXR0cmliOkFkcz4KICAgICAgICA8cmRmOlNlcT4KICAgICAgICA8cmRmOmxpIHJkZjpwYXJzZVR5cGU9J1Jlc291cmNlJz4KICAgICAgICA8QXR0cmliOkNyZWF0ZWQ+MjAyMi0xMS0xNTwvQXR0cmliOkNyZWF0ZWQ+CiAgICAgICAgPEF0dHJpYjpFeHRJZD5hMWYwMzAyZC1mYWI2LTQ1ZTctODkwMC03OTNmNTc4YWQzZmM8L0F0dHJpYjpFeHRJZD4KICAgICAgICA8QXR0cmliOkZiSWQ+NTI1MjY1OTE0MTc5NTgwPC9BdHRyaWI6RmJJZD4KICAgICAgICA8QXR0cmliOlRvdWNoVHlwZT4yPC9BdHRyaWI6VG91Y2hUeXBlPgogICAgICAgIDwvcmRmOmxpPgogICAgICAgIDwvcmRmOlNlcT4KICAgICAgICA8L0F0dHJpYjpBZHM+CiAgICAgICAgPC9yZGY6RGVzY3JpcHRpb24+CgogICAgICAgIDxyZGY6RGVzY3JpcHRpb24gcmRmOmFib3V0PScnCiAgICAgICAgeG1sbnM6cGRmPSdodHRwOi8vbnMuYWRvYmUuY29tL3BkZi8xLjMvJz4KICAgICAgICA8cGRmOkF1dGhvcj5SdWJlbnMgTHlyYTwvcGRmOkF1dGhvcj4KICAgICAgICA8L3JkZjpEZXNjcmlwdGlvbj4KCiAgICAgICAgPHJkZjpEZXNjcmlwdGlvbiByZGY6YWJvdXQ9JycKICAgICAgICB4bWxuczp4bXA9J2h0dHA6Ly9ucy5hZG9iZS5jb20veGFwLzEuMC8nPgogICAgICAgIDx4bXA6Q3JlYXRvclRvb2w+Q2FudmE8L3htcDpDcmVhdG9yVG9vbD4KICAgICAgICA8L3JkZjpEZXNjcmlwdGlvbj4KICAgICAgICA8L3JkZjpSREY+CiAgICAgICAgPC94OnhtcG1ldGE+LFaZUgAAWThJREFUeJzs3X9w1PWdx/HXZzfJEvNDECNJLpTIj2ijh9/db2rtjVzCXKVwDdVrxYretKU3pXauWiveXeXmBG/urteb+uOovRtxHHQ6haLO1DnoaZ0bSYqt1maTVSSVABJrTNCIIptAfu1+748kSAgB9pvdbL7fPh8zGZjd7+f7fYuZfe3nx/fzNQIAAJ5nsl0AAACYPAIdAAAfINABAPABAh0AAB8g0AEA8AECHQAAHyDQAQDwAQIdAAAfINABAPABAh0AAB8g0AEA8AECHQAAHyDQAQDwAQIdAAAfINABAPABAh0AAB8g0AEA8AECHQAAHyDQAQDwAQIdAAAfINABAPABAh0AAB8g0AEA8AECHQAAHyDQAQDwAQIdAAAfINABAPABAh0AAB8g0AEA8AECHQAAHyDQAQDwAQIdAAAfINABAPABAh0AAB8g0AEA8AECHQAAHyDQAQDwAQIdAAAfINABAPABAh0AAB8g0AEA8AECHQAAHyDQAQDwAQIdAAAfINABAPABAh0AAB8g0AEA8AECHQAAHyDQAQDwAQIdAAAfINABAPABAh0AAB8g0AEA8AECHQAAHyDQAQDwAQIdAAAfINABAPABAh0AAB8g0AEA8AECHQAAHyDQAQDwAQIdAAAfINABAPABAh0AAB8g0AEA8AECHQAAHyDQAQDwAQIdAAAfINABAPABAh0AAB8g0AEA8AECHQAAHyDQAQDwAQIdAAAfINABAPABAh0AAB8g0AEA8AECHQAAHyDQAQDwAQIdAAAfINABAPABAh0AAB8g0AEA8AECHQAAHyDQAQDwAQIdAAAfINABAPABAh0AAB8g0AEA8AECHQAAHyDQAQDwAQIdAAAfINABAPABAh0AAB8g0AEA8AECHQAAHyDQAQDwAQIdAAAfINABAPABAh0AAB8g0AEA8AECHQAAHyDQAQDwAQIdAAAfINABAPABAh0AAB8g0AEA8IFAtgsAUhWJRD6X7Rrgb9XV1YXZrgFIFYEOzwlIK23bXprtOuBPlmXNzM/P/2y26wBSRaDDcxxj4nKch7JdB/wpGAhsNInE0WzXAaSKQIfnOI4TN8Ys/vTChcXZrgX+YllWpTHmO9muA3AjJ9sFAKmwbftCJZNxGaOhoqKv1ixe/PzxoaHu1tbWD7JdG7zLsiwr15gLHWPqsl0L4Bar3OEpNbb9oqRcSVef/p4jdclx3pMx7xjHiTnG7DWDg681vfba61NfKaYTy7Jm5hpzVTIQsIzjVMoYy3GcSmNM5RkbJBJLh6RYLBZj6B2eQaDDU2zbfsZI17toGpPj/DYpvSzpxebm5gPprg3Tx6fC4VrHmDrHGEuOU2eMmZlKe8dx2o30RFNz88YMlQikHUPu8BTjOIdlXH0PtWSMFZC+KUk1tv2uHOfXjjH/J+mpaDT6floLxZSyLMvKCQSu1/CQeZ0z8rqR5Ob3xRhTKcc553HAdEKgw2u60nSeOTLmi0b6oqQf2bb9gkkmf9Y/NPTzPXv2fJimayCDaizregUCdY50w4RD55PgGBNL9zmBTCLQ4SmOMe9kYJ4oaKTrFAhcF8rLe8y27V9I2hqNRrem/1KYDMuyrGAg8B1JN2hkGD1T84bcugavIdDhNenqoU/ISJ+X9Hnbtv9L0lPJZPInLS0tuyUxBpsFlmVVBoPB6+U4d2aiJz6RIYlAh6ewKA6eEolEbgoYsz0Ll97nJJMP5XV3P/FSR8eJLFz/j85ob9wY87VsXL8pGuXzEZ7CLyw8xbbtfzfSP2SxhA+cZPKRQH//pt+1th7OYh2+VWNZ1ysYvFNSXTbrGEokLo3FYu3ZrAFIBTvFwVscx8pyBReZQOAeJz+/qyYSeeDqyy+fneV6fMO27a/akcghBYPPKMthLknBYDDbv2tASgh0eIox5qps13CSMd9NFhQcsm37nxYvXlyQ7XK8ajTIjfT4VM6Rn4vJ/pdHICUEOjyjurr6Ikml2a7jNEVG+ufcnJxDdjh8W7aL8ZIay6qrse1d0y3IRznGEOjwFFa5wzNCodCV2a5hIsaYEhnz3zW2/U1Huj0ajb6Y7Zqmq5FV6w9KuiHbtZyNkeZluwYgFfTQ4RnGmMuyXcN5sIy027btny5evLgi28VMNzWRyIacYPCQmeZhPoIeOjyFQIdneCTQJUlGuiUvN3d/TSTyL8yvDw+v25HIIRmzMdu1pMKyLEIdnkGgwzOM4yzKdg0pmiFj/jEvN/dAJBL562wXkw2WZc20I5EtCgZ3Tcd58nPJkVJ6qAuQTcyhwzuMWeC26bf+t8EZ6js+dLTzHfPevt/nHOvqUveBfeqINaezwomUBoz5iR2JrJQxa6PR6EdTcdFsq7GsOicQ+HmqTzpzq7i0XMWlpaoI16hkYZWKZs3UJVdaanl6mxo33e/upIFAnaSG9FUJZA6BDi9xFegli6oUKiw0F+Urd+bsK/Qni8Nj3u/e36aOWJO697fp4IuN6u+Jp6XY0xljbnIc59pIJHJzc3Pz7oxcZBqwLGtmTiCwQcbcmcmdq0oWVaniKlsVYVtzwzXKKywc8/6soSP6UFLJQs/M1ACTQqDDE+bPn3+BpBlu2o5+oNu9L2luf7t6g0X6IGe2PsyZrXdzy6RFVSpZVHXy+O79bWp9docOvtioY4c701L/KGNMuZF+ZYfD66ItLQ+k9eTTgGVZVk4wuEUZWlC24NpaLVhSp4qwreLS8pOv5zoDmtP/luYMdmrW0BHNGRze8r+xeJlkRVxfj1vX4CUEOjyhsLCwyG3birCtYGIgObe/PSBJBYm4ChJxze1vP3nMu7ll6ghV6u28SmlRlWoXrVPtHevUvb9NLU9tTXvP3QQC99dEIlcf7+v7Smtr60DaTpxFkUjka0Z6UGmedy5ZVKXq5fVasKRuTIhXjAT4nMEuzRo6csa2cwfa1RGap4qwrY6WaMrXNo7DHDo8g0CHJxhjXK8Un1leMTRvsP2sv+tzBrs0Z7BLtl5Sb7BIb+fN05szqqRFVVq2fqP6e+I6uLtBLU9vU/f+NreljGXMl/Pz86+KRCJfbm5ufi09J516lmXNDAYCD6b7ISrVy+tVvWKlKsL2ydcq+t/S3IF2VfS3K8859/egiv52qahWJQsvcxXoMubC1BsB2UGgwxOCwWDhuY86s/LFVs6ceON5H1+QiOvyE6/r8hOvqzdYpDfyr9Sh0LxE9YqVweoVK9XREtXLj292FxCnMdLlxphXI5HId5ubmx+a9AmnmGVZlTnB4M+VxiH26uX1uubra0/2xi8Z7NKCvrbzDvFT5TkDKh76cKC4rCzPZTkMucMzCHR4QjKZzA8Egym3Gw2F0TnVVBUk4rJ7XpKtl4Jvhyr1Rv6VUtjWjeFH1NESVePD96elxx4w5kHbtsPRaPSrkz7ZFBl5vOkupWmIvXp5vT7z9W+qqLRMuc6AM7evzSw+3qyCxOSmOsoH38ljYRz+GBDo8IRAIOBqQVxxWZmSvR/1FSTirtqfam5/+8lFda9dEJHCtm59bKtan92hxh89MOk5diN9xY5ELk0kk1+IxWJHJzquxrYtSRdKqhz5kYZ7kqcH65leOyopdpbX2kd+PmqKRk8/7qTR+fJ03JJWEba17J4NKi4t1wWJ3sQne14Kzu9rM6n2xic8f3+7Lp53zaCk3LScEJimCHR4hatADhUWqaDv/X637c+kIBHXZ+KNWny8WW/kXynns8uGFvz50uDLjz1iWp7eNqlzG2OW5ASDu23bXmakKn0cynUaG+BujZ7rdOO2Yq2xbenjgG/QSPAnHefSgDFbJlmHQoVFWnbPBi1YUqf8RO+QFW/Mmd/XlvowzDnMGjqiGRdf7DrM7aqqvGhbmy8WLsLfCHR4gjHG1RxoycIqzU68L2XghujR4fjLg6/nvJIb7g/dsS60YEmdnv/+fZO93e1KI6X3fjn3Kkd+6kZfCJjJ/2MuWFKn5f94X/KCXA3UxBtnzO9ry9hnUZ4zINMXPyEpP1PXAKYDAh2e4DhOrnEZJPMD786Qk+aCTlGQiGtp4leh3sEWPfeJT310yePbihr+84eB1md3ZO6iIypG7rEOFRapZNH4eeLi0rKT6wiOHe7UscPj1xJ07993crog0zvnhQqLVHv7Xaq+7nNDV/TvHbKONqVt5ORs8nq7CXT4HoEOTwhIroZiTTA4eFHgeEiJdFc0XkEiri/phQu7+koVvP3OvrmRmuAv/3XDpOZtQwWFKllUNbytaVm5Kix7JLyrzt14HPvch4zo3t+m/p64OmJRHevq1LHDncOv9fa4uO6wkkVVuvGHmwbn5p/oqz26rSjPGZiyz5+ZQx/0SLpoqq4HZAOBDk9IOE5u0EUPPdnf11OQSM7KQEkTKksc1s19z8x4JfLJeMEDP3b+55678ob6+8+rbYUVUcnCy4a3NT1tN7SpNPqF4dR7wKXhXn5HS1Td+9tS2gv/4vkL9YXv3XP88+blC+bEu6Z8cdpFgd6hqb4mMNUIdHiC28cC/uE3je/rhuumNNAl6fldr6vxtzuKGl5pP+txJQurVGHZJ7czne6KS8tVvaJcWvHxax0tUR3c3aCOWFTdB858C9/7bx7QY3+z5oKDV1eq9tOXqr7OzQiDe7MHuzM46QJMDwQ6PMExJulmBv3Dd96egsH2YV3vxbWzoU07du1T13sT38JWvbxeFeHhEA+539F22qgI2ye/jIzuqHdwd4MOvjh+M5+GV9rV8Eq7Nm9v0sqll6m+rkpll2T+32BW/+G+jF8EyDICHZ5gjHHXw0o6mXzglyQpurdTP9u5R2frjY8+VMQvIT6RUGGRqlesVPWKlWcN96734tq8vUmbtzepfullql9aJfuKjE4v0EOH7xHo8ATHcZJuVrk7ctyO1p9TdG+nHt0eVXTvme8wK1lYpfCq1b4P8YmcKdxbnto2blh+56592rlrn+wryvWNL9sZCXbHcZJpPykwzRDo8ATHcQbkZlFcMv2Bfq4gr15er/CqW1yuRPenU8O9oyWq1md3qPW5nWOOie7tVPTezkwFOz10+B6BDk8wxridA01boLcdOqIHtvzmjEEeKihU+KZbFF61+o+yN56K0Tn32jvWqeWpbWp5cuuY2+FODfYN365Lyxy74xDo8D8CHZ7gtoc+mEjOnuy1470DemDLb7Rz175x7xWXlim8arWqV6wkyFMUKizSNWvWKrxq9YTB/oVvbdXq+j/VN26qUVGB2wemSb0nBk64bcu2r/AKAh2eYJLJPgVcdLYdFff1D/XMCOW4evzqo09GtW3na4r3jv1MLy4t0zVr1qp6xUo3p8UpRoP9mjVr1frsDr28ZfOYHe227dyjnbv2aXX9Yn3jJne39v2h86OMraUApgsCHZ5gJNdblHW8e6x74ScuSinQ2w4d0X0/3qW2Q0fGvD46tH7NmrVuy8FZVK9YqQVL6sb12OO9A9q8vUkNrxzShr9dqqpLUxt4OXL0+LFM1AtMJ3xrhTfk5Lj+QO7o+mjCR5GeLt47oEefjOrWu58eF+bVy+v19ad2EOYZNtpjv3XLVlUvrx/zXtuhI7r17qf16JPRlM75+zffd7e5kOOMv5kemKboocMTenp64kWFrkbNdeido71153FcdG+n7nu4YdymMBVWRLW3382q9SlWXFquZes3qnrFSjX+6P4xt7uN9tbvWvNn57Ua/u3Oo2l/LCsw3fBLDk84cuTIQHl5+b1u2gYD5s2/rK2qPNsxjz4Z1X0PN6jnlLnyUEGhrr3t2/qLu9erYPak19bBpeKyci2+/ksKFRbq8N49SgwO/z86cvSEdu5qkzHmnKH+g0d/XTY45GrTwCc6u7oa3DQEphpD7vCKhOM4B9w0fOPN92dO9F68d0C33btDm7c3jXm9woro1i1bFV51i5tLIgPCq27RrVu2nnxk7KjN25t02707xi1cHNU/MNTee8LdQvWk1O6qIZAFBDq8w5jX3TQ7Gu8b/6BwDQ+xX/+tn465rzxUUKja2+/SjZs2Z+1JZ5hYcWm5bty0WbW336VQwcdTMGf6fznq7a5jZ94B6DwEksl2t22BqUagw0tcBbqk/P1vHTl46gs/+8Wecb26koVVunHTZnrlHhBedYtu3LRZJQs/XtcwOtpy+n4Bv9vzjuv7yJtisQbXRQJTjEVx8AzHcX7rZj93SXrh5UOdi+bNXiBJ9z3cMO5Dv3p5vWrvWOfJzWGOHe7UscOHP/5719gOaX9Pj7oP7FOosGhMAEpSqKhIJQuHBzCKS0s9NSpRsqhKN256RI2b7h+zjex9DzcourdLG75dJ0l64eU3Xf1HOY7zaloKBaYIgQ7PGBoa2pWbk5M0xqQ8svT87gPBW+oX6+9+8MvxQ+x3rPPEBjHd+9vUfbBNx7o61RGLqr8nru79Z37++EQO7m445zHFpeUqLitThWWfDPzT562ni1BhkZat36iKsK3GTfefvG9958gjbP/j75fFY78/7Pb2hIa0FQpMgYw/WhJIp5pI5HcypsZF056qS2cXnnpveaigcHjYdhrejtbfE1dHrFkdLVF1H9injpbU7rvOhIqwrZKFl6lkUZUWXFs77UYzuve36ek71o7ZPrbskqLervfiBW7O50h/FY1Gn0lbgUCGEejwFNu2v2+k7032PMPz5Y9Mq1Dq3t+mgy82qCMWnUyAfyQplsLxlZLmublQyaIqVVg1WrCkbtr04I8d7tSO9XePe0SrG0OJxKxYLHbemxIB2Uagw1Msy/pUTjD4ymTOseDaWi1bv3FahHn3/ja1PrdTB3c36Njh81qMPRrYMUlHNTwsfLQpGk0lxM+oxrbrRv5aJ2mmJGvk58JztQ0VFmnBkrrhn2trJ1vKpPT3xLVj/Tp1xJpdn8NxnFejzc1WGssCMo5Ah+fYtv2WkT7hpm318notW78xzRWl5tjhTrU+u1Otz+48nxBv1HBoxyTFmqLR9gyXN06NbVdqOOStkT+vOtvxo88+D6+6OauL7J7/t43jnrl+vpKO893m5uaH0lwSkFEEOjzHtu0fGmldqu2yHeajPfFzLEx7VcMB3tA0Tedva2x7poaD/YaRPyccsq8I26pesXLcnuxTxW2oDyUSl8Zisfb0VwRkDoEOzwmHw9XBQGBvKm2yFeb9PXG1PrdTLU9uO1tv/FVJj0t6Jhs98MmqsW1L0tc0HPBnDPfi0nKFb1qt6uX1Uz7VkXKoO05jU3NzXcYKAjKEQIcn2ZHIr4wxS87n2Nrb75ryzWL6e+LDjwB9apv6e+JnOuQtDYf4414M8YmMhPudGg73cXPvocIihVetVnjV6ikN9lRCPek4a5qbmx/PbEVA+hHo8KSacPhmBQLbznXcNWvWTunjTs8jyJ/QcE98Wg6np8vIsPwNGg73cXPu2Qj28wl1x3HeijY3V05JQUCa/T8AAAD//+ydeXwcxZ32HxtbY0sa+ZTtkQ2ML5kb2dUsmIRYkISEBBOzCUkgeYOcA5LdTfASWEKStWW/m5AslyHLLpC82M5y5V0IBjsBzOERARubLuQbW74kH2rJ8iFpJMsj29L+0cdU9/RIM6OamR7p9/189KGqurqrZA3zdFX96ikSdCJnYbNmHRo0aNDEeNczOc3ei5C3AFgJoLI/jcYTxYierwQQE/7uK/Trxj4ZWmPvVdS7uxerH39cmZHOEIRkSNCJnGXWrFnzBw8a9IzbtUyK+Y43VuPDZ552WyNvAbAUwFKV8wG/n9mIlq8EcLvzWvH0Usz5p59i0kyW9n689JM7XLe0dXd3153t6iqjvedErkKCTuQygxTGtgC4RCzMlGlM0+4aVP3Hw24mMCTkPWAI+3K4jNgvumGufpJaGv92kbYwXvrJnTHmM7R2TuQ6JOhETqPMmnUPBg160MwXTQjgW888n3ZB+HDZ71H9P8+7XX4M+tQ6CXkvxJuK9xX6cf39izD1mvK0tR1pC+OZW+babGIBzJRh0EMQ2YIEnchZjJFeNXRXs4x4sx+q5ljzwGK36fUqABUDcY28ryiMVUCf0bBFxU+9phzX378obS9nTbtr8Nz3bLsfmgFMppcxIlc5J9sdIIhUKSkpWQvdixwA8Nl77kfwyqvT0lakLYwPnnoC7z78gDPorQ7AfJXzn9VrGglBCtRr2qaSkpInAQwHcJVZfuJALba++meMPi+I0ecHpbdbMGYMiiYEsPf9KrNoGIAv1mvaU9IbI4gMQIJO5CQKY5UAvmnmZ37tVlzx7Yq0tNW0uwarfnmPm8PbYwC+SdO0fade007Va9obJSUlVQCuhTHrcrazEzXvrkGkrQ3BK2dLb7d4+gy0avXievqEkpKSQfWaFpLeGEGkGZpyJ3IOY+11rZmfVDYLX3v86bS0teP1Vaj63SNuo/IKlfNQWhod4Bh72CsB3CWWF08vxdceS0+w43Pfvc0ZJEfr6UTOQYJO5BTGl301jKl2X0EhvrXseemHgETawqj63SPY8foq56UVABbQOmv6URibBz0a3lpb9xX6MfdXD0nf3uZylvomANfS35nIJWjKncgpSkpKfgPgi2b+s/fcj0kzFalttDbUY+W9P0HdhvVicQuAH6mcV9Zr2impDRKu1GvazpKSkhehT8FPAPQp+B1vrEbRhACKp8+Q1lbBmDEY4stD3Ubrbz4BwPB6TXtDWiMEkWZI0ImcwfAJX2bmp356Dj79wx9LbaNpdw3+9KP5aG3QxOLNAOapnNOXe4ap17Tmek17sqSkZBSEgLm971dJX1cPXHwpDlWr4t/+qpKSkhUU7EjkCiToRM5gjM7LAGOL2u+expA8n7Tn73h9FVbe+xOc7ewUi1dAD3yrldYQkTRGwFwddH94AEDDjq1obdCk7lefNJNhx19X4exp6zMwql7T+rXvPtF/GJztDhBEEgTNxMyv3yY1OKr6pRew5oHFzuLFKucVtI7qDVTOlwOYCX35A4D+Evbc926LdxBO0hRNKMFFN8wVi4JSHkwQGYAEnchJWrW4Z4snzZoHFqPq8YfFohboe8srpTVCSMGIPC+HvgwCwAhou+tOaaLueA69zBE5Awk6kUuEzIS+htr3L/A1Dyx2RrK3ACg3RoOEB0mnqEfawqLRDCB85gjC65CgE7nEcjNhHlfaF3oQc9p/7HGMZZBySBZ1l+Nvaf2cyBlI0IlcohmAFa304bKn0bS7pofq8XER880AykjMcwdB1K0hdV9EvWl3DT5cZjMoaqJgSCKXIEEncokFAPLEgjW/qUz6yzuOmJfTl3fuoXLerHJejj6KeqQtjFW/uMdZXKww9ikpHSWIDECCTuQEhkPcXc7yZL+8exBzCn7KbebBMf1e9btHErox0hbGS3fd6XaCHgD8q5zuEUT6IUEncoUFMA7sAIDrrppiXUhU1Ksef5jEvJ/itqa+4/VVblsRbZhiLi7dXH7hBLHKF2iUTuQKJOiE53GOzm8sL8Uv/2EOpgfHWHVMUY+3pr7j9VWofskWRFcHEvN+RTxRd/HjB2Cch/7db9k+M9ODY/CHf/sKghNHilUfTEuHCUIy5BRHeJ6SkpKfQfBvf+i+L2DMqHxc/+lpWFd9EMebOwAAJ48fw9bXXgagn8xlusi5jNRaAHyR1sz7H/WadqqkpOQNAPOhn2+Ove9XoXhaqXWmeqQtDPW5FXh98c9tszrTg2Pw1JKb4Ms7B6NH5OOd9fvMS+eWlJSsr9e0vRn9ZQgiSei0NcLzKIydgDHdfmN5KRb9+FrrWri9E4888wFWh+wjc1+hH5NmMvgK/Z7bmqYwNgzAHABTof9eIwGcgR7FfxzAZpXzj7LVv/6A4fsfgnFSm6/Qj4tumIvWhnq3c+1xY3kp7v7up+AviMZc/v0/vYiDmmVKF1I5vzbmRoLwECTohKdRGKuAcCDLk0vmgl0ce1Tqvb9dg9DG/Yk8cn62TGMUxhQAdwP4CoD8Xqo3Qt93/5jKudZLXcIF52cnHrNnnovHf/mlmPJX3voEv37yPbGoTOV8c0xFgvAItIZOeJ1FZmLWxQFXMdeOhMG3H07kWVkRc4UxRWHsTQAfAbgVvYs5AIwHcB+AvQpjjyqMnZfOPvZHjL/1/N7qra8+iEMNrTHlN3/+QhQV2g7/WSCtcwSRBmiETngWhbFyAGvN/IP3fQHlfxeMqXfvb99EaGOtWHQNAAV6gNRIAJsALM/GNLvC2PcBPMHY5Xlz5lyN0hlTAQDhcBuqQuuwevWaRB+lAfh7lfMP09TVfovCWBC6GJdBX9YIAfgEgHUc7hWXTsR/Vt4Yc+8Tz23E8j9Xm9lTAAIUSEl4FRJ0wrMojC0HcDsABIr9eO3J22Lq8O31+OFC2xr5YyrnWR9JKYzlAXjC7y/8/t13/wg3zr3etZ5W34h77lmEmpqE4q06AfyjyvkfJHZ1wKIwdj+AX5v5B//lepRfOdlWp+l4O770g2fFon9SOX8iMz0kiOSgKXfCkxijqtvN/K03Xupa7/d/4mK2BUBlGruVDHcD+P6DD1XGFXMACJSMx5NPPYTS0qmJPDMPwGMKY7Mk9VEaAb9vZMDvK8t2P5LkIQCHzMwTz21EV3e3rULx6AJ8/lO2v82dmekaQSQPCTrhVSrEzI3XzoipwLfXg2+3uXtVemE6VGHsBgC/uuOO74Cxy3ut7/cX4qGHejZAEcgH8IrC2Lg+dLFPGOJ9e8DveyXg950I+H3dAE4AqA74fd3GT3XA71vkZZFXOT8N4H4zX3u4GWv+tiemnuNl8lKFsdnp7x1BJA8JOuFVrNH5jeWltu1EJo8sWydm61TOl2agXz2iMHYOgP8CMPibt96c8H2BkvE9juQdnAdgSfK96xuGkC8CsB96BP48CO59Dsqgz5ZUB/y+tQG/rzwTfUwWlfNnAWw180++qKKryz5Kv7R0vNNo5nuZ6R1BJAcJOuE5jGC4oJm/8brY0fnqtbtQs/+YWJT1dXODHwA4v7R0Kvz+wqRuTGQ0L/B9hTH3dYg0YAjyfugiHU/E41EOYG3A7+t1C1mW+BczcbixFX99b3dMha987kIx+/UM9IkgkoYEnfAiFWYiUOx33ar2wl+2itkqlXOvnFv9MwBJizkAlJRM6L1SlHOQoZeYgN9XAX23gVPI6wCsAPDPAK41fm4GsBjC6WcCFcZUfLIvBGlF5fwN6DshAADPvhq71fxLc6aLWb/C2C3p7xlBJAcJOuFFvmImbry2NOZizf5jztH58vR3qXcMd7LzM9jk9Qpjad2pEvD7FiDWnGUzgGu1cCSohSMVWjiyVAtHQsbPSi0cqdTCkXIAowA85ri3DPpo3VOiDuBhM7H3wHFU77B7+YweMRyfuSIoFsVuuSCILEOCTngKhTHbuuxcl2C4F1ZvEbN12XJ+c8Hym6/XGpK+matJm5BNApDUPH0yBPy+eQAedRQv1sKRMi0cCfV2vxaONGvhyAIAM6GP5k3KALwiraNyeBG6Ox8A4PnVW2MqfP7qKWL2ywpjo9LfLYJIHBJ0wmvMMxPTg2MQGOe3XQy3dzp925dnplsJYR2zqdU34uOPt/RUN4ZVq99Mpc20+IsH/L4gYkfm87VwpDLZZ2nhyCboIi6+sZQH/L6kn5UuVM7PQHh5CW3YjyPH2m11rrnCNvkyFMJMEkF4ARJ0wmtYX5Juo/PVa3c5i7Ie2S5wrph5+KH/RFtbe7y6Nl584RVo9Y29V4wlXVP8lbCvmf+zFo4sT/VhWjhiHm3aIhQvMl4cvMLTAE6bmb84DvwpGJ6HT9sdeBPfxkAQGYAEnfAMzul2N5tXRzDcCi/sOxcIipmamr14+OHeRX316jV4+OH/TLXNpCLpEsEQ2duFoiotHOnzi5Mh6vMcxZV9fa4sVM5PALBsB/9aVRNT57OzbdPu1xsn5xGEJyBBJ7xEuZlwm27n2+uhHQmLRZ4ZnRtf7COc5atXrcGdd/zUdfpd0xqxePGDWFz5YF+ali7oiI2er5D1YGPtXYyAv91jAXJ/NBO1h5uxc99R20VHYNwwAJ/PSK8IIgGGZLsDBCFgTbe7bVVb/a5tur0um2eaO1E5P6UwVgeXKfCamr24846fwu8vtCxew+G2RP3be2OnjIc4ENeGX9XCkVrJz18AoFrIlwPwyrbDv0J3vRsF6KP0C6aMtS4WFfpw2Yzx2LLLWh6ZC2FUTxDZhEbohCcwvNuDZr78ymBMHW7fSuQVARDpMbQ9HG4D55vB+WZZYt5rm8liTLcHhSLp/85GkJy4lu6chs8ahh2sdRrL2+v2xdT5NLO9s305/b0iiMQgQSe8gvWlXpifFzNCr9l/zDndvjwz3UqKpPedSeATyc8LOvIhyc83EWdXnG1mmz+biabj7dixp8l28epZttjHEoWx2OhNgsgCJOiEVyg3E+yS2On2VWu9O90u0Oe91X5/IRYtuhevvfYs3l37Ch58qBKBkvHxqndCnyKWSVDMpGG63SSUpufKoAqA5VwU2rjfdnHG5LEYVWSLhUvL1kGCSBYSdMIrzDETbuvnVR/VilkvTrcDwLsAWlO92e8vxKuv/TdunHs9AiXj4fcXorz8U3juuSfjHa+6VuU87HahD4gBai1xa8nFUyeyqZx3Q/iMVW2sjakze6Zt+1p5uvtEEIlAgk5kHcMy1RISp6BrR8K5MN0OlfNOxJqxJMzdP/2Rqwe831+Iu3/6I7db0hHlvzJOOlfbSRVr2n3fwRPOzx9mXmjbXDAHBOEBSNAJL2CN0Arz81A6eYztYsg+QvLqdLvJA0hxZDtnztVxr7mcxPamcaiIVIwp9lEAZmrhSIXs5wvtbMpEO33gHQARM7Nh8yHbxbKLAmJ2gsLY5Mx0iyDiQ4JOeIFyM+EUcyBmDTOU9t70AZXzRqRoltLbCW3C9VMA7k2ljUQwPNjT/tKUqXZSQeU8AmG/vGOHBYITR2KkfR39UyCILEOCTngBa/jptn6+u9Z2sloo/d3pGyrnSwE8n+x9VVXr4l7TtEaEw21mtkLlPPb0EEI2b5mJj7Ycjrk46yLbZ/WqDPSHIHqEBJ3wAtaUuzPCvWb/MYTbO8UiT47oXPgBgI3J3PD0U3+Me+2Rh//LSqqc/yn1bhFJYAn6seaTOKjZV1IumlYsZq/MUJ8IIi4k6ERWURgrF/OlwbG263x7vZht8fj6uYXK+UkAXwCwNtF7amr24od33gNNix7S0tbWjnvvqUQo9AGgB8HdI7uvhDsq55sBWJvQqz+xT7s7loeUzPSKIOJD1q9EtrEFxPkL8mwXa/bbvLRDmemSHIyDY65TGHsBwDcTuYfzzbhp7rf1bWuFhaKj3D0q5w+nq69EXFQANwDA9t1NuOm6C6wL084bbauoMHaZynlyZ+YShERohE5kG0vQ3QLiHMFIofR3Rz4q57cCmA0g4ah0rb4RNTV7TwF4HMC5JOZZg5uJHXuO2C4Ujy5AUaFPLLokQ30iCFdohE5km6CZSGD/eSgjPUoDKucfArhBYWwSgM9BP6XrAgDFxs9p6NO7DdDjBN4C8LbKeZv7E4kMoZoJ58lrAFAaHAN1m7UsdHGG+kQQrpCgE9nGinAvcRyXWt9kN/PIhfXzpiVaGXSjkTJEX1bKjf9uAtBs/GwC8HTxwkAV+hFxfn/TOMj5+28CUFW8MOClM+2dfCxmtu0+gkumj7PyU84dLQp6aQb7RRAxkKAT2cZyiIs5/3ybLSAuGwefJETTEi0I4C7o54b3dLa3aHE6z7i3GbpT2mPFCwOef2Fxo2mJNhLR3z/YQ9WY39+4fzmAFcULAyH5vesbKucHFcaOAxgN6FsoRUEvGW/7zE7JbO8Iwg6toRNZwxnhXlJsF3THdHtt2juUAk1LtLugn+29AD2LeTxGQhfC6qYl2qMSu5YRmpZoFQD2QzfTCab4mAoAa5uWaI8aLwdew9rzv+/gcdsFx2eWBJ3IKiTohGdwjtAdU+6eG702LdEqoW8lkyVCC5qWaH0+sS1TGGK+DBJ/fySxzS+DbDMTtYfsqwOOEfpIhbERGeoTQcRAgk5kk3IzEXCMzgHg4+22CHdPCXrTEi0PwKI0PHqesQ6dC6RjRqGsaYn2mTQ8ty9YZ87vPXjCdsHlczsxA/0hCFdoDZ3wBIFxdh9z5+lWSHHKXWEsCD1Iqxz6lLDtZDfoLwohAK+qnIeSePSoVPqTIOXw2AuME+OlI13T42N7rxJFYWw+9G2Bk6H/jacJl9dBP9Y2BOADlfNTKfRnu5loOt6O9o5OFAzX/RKKCn3IHz4UJztOm1UCAHak0AZB9BkSdCKbxBWEvkS4K4yNBHA79LXZ3ka7ZcbPAoWxEID5Kue1vbVRvDDQ2LREawGQjilWLx4naqN4YWBT0xKtDsD5aXj8J71XARTG5gB4FsCkHqpdbfz80rgnBGANgN+rnMfuQ3Nnl5g53BC2eSaMH1OI/YeskTuN0ImsQVPuRDaJerhfHOvhLpBQhLvCWFBhbBmAE9DXtpOdui4HUG2M6hOhAikeldoD84sXBmolPzNdzIP8339x8cJAr4JuiHkIPYu5G+UAfg2gSWFsucJYoJf6gO4NcMbMOF82C+3uhjaDd4LIJDRCJzxJuD0iZnvcp2yMyBdBD6pypXhaKaZeU26lfYV+RNrCaNpTgx2vr0Jrg7VePxJ6oNe1vfWxeGFgZdMSrRz6y8Oc3ur3Qh2ABcULA54fnZsYo/RyZOf3f1LMFIwtxiVf/gomzVIwCINwKtyKjuYT6GhuxuHNH6Puow/dnnE7gK8rjFWqnP97vIZUzrsVxg7AiGJvcAi6w67Y7gdLEBmEBJ3wJI419LiCrjBWBuAVuGyZuuiLN2LqNeWYNJPBVxgbdAcAU68px1Xz78CaX1dixxurzeJyhbGyRKb5jb3j5U1LtHnQR6zzkNw0/KsAVhYvDCxP4h7PIPz+5dBnLFL6/aH/GyRkMKMw9lnoLnt6/lu349N3/riHO76L06c6ULdhPbb/9TXsX/++eHE4gN8qjH0dwLdVznfGeYgl6FqT3bzPn2+zf431LyaIDEGCTmQTa1RXOtkeB5XIljWFsQroo2kLX0GhLtLfvQNFE2LPVo/H9T+vxKFNXBypz4vXrhvGyHIlYAWMBRGd8h9p/NQa+VoAtYkaqQT8vnJEt4fN18KRrIziA36f+fIU0w/jdwkB8n9/F75kJkZOPLcXMdcZOmw4ps25DtPmXIemPTVQn1+BXW+/KVZhAD5RGPuKyvlrLo+oMxONRx2Cbh+hu785EkQGIEEnPIHzlLXecBPzSWWzcP3PK5MScvv9TBylp7x1zBi1boK84LZ5iM5AVEh8brJUJNKPNPz+Tqy/zcTLZyZ9c/G0Utyw8FdQbr0dry/5BY7X7Rcvv6wwNlfl3HmQToOZON7cYbtQWGAboecn3SGCkAQFxRGeZHetLSjONlI2gtZse6Dn/PhufO3xp1MWcwAoCtjuvTxevSwgTkX3da26L4gvOdn0X7f+NsXTUrdPL55eiu/89/9g9nfvFIuHAPizS7CcFRHf0mbf+ZY/bKiYTe7NlCAkQoJOeJJwe6eYdYqHzZ3s+vsXYeYtt/W5zUllTMwG+/xAeYSE9MiA35f0/u+A3zcy4PctC/h9rwT8vmCK/RBfJrKyT15hrATCOvXYPgi6yZUVP8Dn7v2FWDQcwIOOatYb5omWDvTA8D53iCBShASd8BwOMbdhjM7LzfxV8+/ARTfMldJu8XS7ODi95rNIrSM/z61SL1QiGrS2rMeaLhjr+CLZMr6xLYUUT5su5aGXzL0ZZV/9hlj0LYWxCULeEvTm8Cl0d0cvdEPIAOdI6RBBpAAJOuE5amrtfh8OBzdLzPKG52PmLbdKa9dX6IevwOZY5wkLVi0cqYV9v/ejyYzSjRH5XUJRuYtA93S/uZVP7FMo0fslc5mZ8I+fEHf3Qio4pt4B4MtC2vpQdncDJ0/FfensktYhgkgSEnQiZzBGzNa37pDhw6V+oQMxo/Sg1If3jQohHSOw8TDE2O3Al2VJvBQ8Cvu/xeIE70sHVhTc2KlyRucmPn8R8goKxKIfCiZD7eKFjlOWz4xttA7Yh+sEkUlI0ImcQGFsEfSTuKz9x2c7I/FvSJFJMxUx64kROgAYW8ReFYrmBfy+amMrmSvGyHwt3H+PIIC1vd0f8PvWwv4ysVkLRyoT77l0rBF6XwLi4tF1+rSYVQDsVxi7C4Bt4TzSeQZxoBE6kTVo2xrheRTGlsI+ZQwAiLS1udTuG0UTbMHN2Ywod6MC+nq6adxSBqA64PetRPSQGbO8DHYhBvRp+1pEo8TN+0PQt5htEsrLoC9vjHTcn8r6vRQUxoYCsFS8WPIIvevMGZzpdJ1KXwqHA1yk82z0vi7boPyk1E4RRBKQoBOeQDsSBi6Oe9kS88L8PLSdjH7p1rzzFko/+3lp/SieNsOWVxgLJnJYSybQwpFmY+17Oezb6kyHup7YbNRphi784v3lEAIN41AHoMJYz88WMyHMKsqIcBfZHvUgABDzWVsoXjsViY7QW9tsM0W2qXmCyCQ05U5kkyozUR97XGoMhfl5eGrJTbaypj274tRODWekOzw07Q4AWjiySQtHypDcOnYVgHItHKnVwpFm6OK9Ion7VwAoy2IgnIn1EjJk2DCMOvc8qQ9v3L7Vln9qyU0ozHffVn62KzqzToJOeAUSdCJnuOMbCkonj8H0YNQuW3N8CcvAsTbrKUE3MdaxrwXwGIQXI4E66EI8UwtHyg0hN+9t1sKRCujnh6+AYGsqUGU8+2YtHKkQ788ilqCPnTKtp3op0VgTtXGfdXEApZPH4I5vKD3codMSthnNyF8HIogEoSl3Ime48Vp9OnxGcIzlJCd7hA7ogt60p8bMelLQAWvrWMjMB/y+QqM8IVExps8rhPuHARiS6P1ZQIpDXDxatXorXRrUzxYo/7sgHlm2LqbuoEGDovfZR+hN0jtGEAlCI3Qim9SaCb69vodqOqbfu3iQy+mOHl27UsLDFrA9ooUjbX0RYy0cOeVhMQeAWWYiHYIeaY/+6iXj9O2QgXHu2yIHCelm+wj9iPSOEUSCkKAT2aQ2mcrmkaqlk6NT7l1nz6K1UYt3S0p42AJ2wKIwNhnCwSeyBV3bvtW2odz8jNXsP+Zaf/DguCP0RqkdI4gkIEEnPIEYuR6PV97W1zjN6VCTve+FpPbFwxawA5nLxMzYqXLX0A9t+tiWZxfrszSvvet+PPpw40CWztNnnWvovU81EUSaIEEnsknITMQbCYls2amfYOkvyEOgODoVWrshdo2zL3jVAnaAY/0NRkychKHD5Z5SeuCjD620GHS5u879cznMp4cfHahvcV5yCzAkiIxAgk54hp4OZQGAuvpooHVgXFRwWw4flN4XD1vADlTS6hB34kBUh0uEdfOaWndBH24I+qEGm6B3qJxTUByRNUjQiWxiO7HLeSiLkxOt0alNc0oUANqOyv8O9aoF7AAmGuEu2SEOAE42H7fSpcIIvT3OUpA55X5Aswn6fukdI4gkIEEnsobKeTOEU8TMaXfnGrnJ2bNdlkOXGOl+JiLf093jFrADCoWxfABTzbzsQ1m6zpxB15mo8xu7RH9Z1JranAevAADOOWcw8obqp6QebGgVL+2R2jGCSBISdCLbWKN00y1uffWBuJVffUcPUioptm8nqnnnLamdcrOAldoAkQy2gDjZU+7b/vKqLW9+tkIb3AfcZ892WdssD9Tb/Ha2S+0YQSQJCTqRbSxBr6k9ipbwKfzqyfesi8OHDEP+kGgAVPUOfYuauHUNAA6oH0ImXreAHWBYgj5k2DCnT0CfOVStWunC/Dxr73loY1TQx+WPQ8HQ6NGq9/72TYTbO3FQs43Q5dsWEkQSkKAT2cYS9N21x/Dsa1twsiN6hOW97B5MHxndorRbCFKadXF0Wrz58CHpHcsFC9gBgiXo40ov6KleShyvq7XS4otifWP0fIGpRVPw05n/bOXD7Z1Y8Uo1mo7brNtphE5kFRJ0ItvUmolweyde/Et0kDNn4mcwe8JVmDJiilV2rDl6OqU47Z4uC1gBEvTskdYI97BgTCTGb4hBmFNGTMHswFW4dOwlVtn/f92u3yrnW6R3jiCSgASdyCoq5yExLx5LeduMbwIApoyYbJW1C6N3MTAu0i7/kKtctYDth1jWfek4lCXSFrV8nSGM0COd0c/iVOOl8oeX3GGVdZyKfhYByF3zIYgUIEEnvMBmZ8HsCVfhPL9+POaUosm2a1UbawE41tG7u8kCth+iMHY+0mj5Wr/VtnPSWj9/YbV9Odx8qZwyYgpmT7jK7VEk6ETWIUEnvEDIWXBD8ItW+jz/ebbTrTYZjnFkATsgsEW4y15D37/ufVve9DfYe+C4rXx8/ngr/fnzPuf2KBJ0IuuQoBNeICRmxgwbgyvGR41dhgwegvP951v57bv1A62cFrB7/2Z7TJ/xFfqd+9FpHT3zWII+6tzzMHiI3BOfte3Rkbho+frJvqjJkbhuDgCzA1fZIt4NNkjtGEGkAAk64QVCYkYZz2IqTC4KWul9BwVXL2Hava1J/kFXJOhZxxL0semwfD3obvlafyS6HW1q0RQ4uWzMpWL2tMp5rfTOEUSSkKATXqAdgOXJdfnYy2IqTBUi3dsEz3fRpjMDFrBB6Q0QvRGNcE+D5WtH8wkrHc/yVdxlYXVq7KUxZQSRbUjQCS9wOQBrkfyi0RfGVBC/VM92dVuucum2gHUEYZEFbOaxFs2Lp8/oqV7ShI80ouvsWStvWr5u/qTBZvkqrp+bOER+KDkJEl6ABJ3wApZP99DBQ12/QEtH2kdnpovXjKDdMW7b6pVSO1Y0we5KpjBG0+4ZQmFslpiX7eG+9/0qW94MslS32480dxuNu5QFJXaNIFKCBJ3wAhPNRElBwLVCwdACjPKNsvIfVuvOcIFxdk/3hu1y3TddLGCDUhsgesLa+z9k2DD4x8W+6PUFp+WrvyAPALBxS9R1UPRAcOIIjBsptXMEkQIk6IQXsIbBY4aNiVtJ/HIVz6EWLWAba3bK7hsmldkGijRCzxzW+vmECy6S/vCje6OHo4nBlQfqo5+t8cPjv0Q4xJ4+F0TWIUEnvIA19M4fmh+30tQR1sw8jhyPWsCK+9FbtcOy++acdi+X3gARD2teOx0R7iePR88FMPefA7GWrwSRK5CgE17ACkFy2d9rIW5dE205xe1G6bCAdUy7nx+vHiEda/+i7Aj37q4udJ6MflbEz9DZs11WmqLZiVyCBJ3wApagn+06G7fSZMd65rvr9cA4pwWs086zrzjORg8qjNF6aZpRGJsEYV1atuXrvg/es+XNWR6n5ev4/HFS2yWIdEKCTngBa0jU2dUZt9J5hediyOCoU9iGzQcB2KdLAaBx5ydSO0dno2cF69940ODB0iPc67fZjw8wXwo/3h49D6BgaIHrjguC8Cok6IQXsBYzO850xK00aNAg27T7jr1Re84MW8CWS22AcMMKiBt9/mTplq8NO7ZZadHytb4pegZ6TxHuAHDkpM3IqFlW3wgiVUjQCS+wz0zUt9X3VA+ThZPXRHtOcdpdtPOUhWPKNyi9AcLJTDORDoe4Y7XWR87mZSB+pi4bE+tYKNJ40mY1LHedhyBSgASd8ALWt6t2sgFd3V1xK4qjpnB71BlOtO2MtIUhG4dLGZ2Nnn6sf2OXJY8+0ymcgS56GYi2wj2tn+9r2ecsqpXUNYJIGRJ0wgvsNRNd3V3Y37o/bkXR0727G9i5V5/2NG07gYxYwNIaehpRGMsHYA3LZW9Zaz961NXy9a0P9trqTe1hy1rjySO2PB3OQngBEnQi66ic10FYR99+bEfcutMdFrAfbdOn6EuK7Y5x1f/zgsQe0tnoGcY2AzLhwoulPnx36C1b3oxw31V7zFbe0x70LUe3iNnN8eoRRCYhQSe8gmWsvf14fEH3nePDuOHFVn7D5qgFbGF+nlXe8Mm2mHv7QtGEEvgKCsWioNQGCBFrBqRg9Bj4Cv091U2aQ5uqrXSg2G9Zvm7d1WCV9xYQt7fVNuUektg9gkgZEnTCK/zNTGxq2tTLOnp05LT/kHD8pRAYd7yuVnL3YkbpNO2ePqx/W9knrAHA0X27rXRgXPQlrUYYoU9xOQPdpP10O7Yetb0whiR2jyBShgSd8AprzURrZxhbjsY/ZEUcPbWEozad6baAdRjMkKCnD2vKfew0+RHubUej281ED4OOU1H3wZ72n6/T1juLKMKd8AQk6IQnUDnfDMA6WeV97YO4dcUReqQzGtw0Y7IY6d4G2ThG6BTpnj6s03AcL1F9prurC2dOCS+Bk/WXQK2pLWHL1/Xah2L2VQqII7wCCTrhJf7bTLx7cG1ckxlxLzoArHxbd4ZzHqWaZgvYkQpjQakNEFAYmwFgqJkvljxCd56BbgZThjbYd1bEi3BvPNmI9Q02QV8ps38E0RdI0Akv8Ucz0XGmA2/UvelaqaQgAN85PiuvbtUj3Z0WsPvXvS+1c2QBmxGsf9PBQ4Zg1Llyz8I58NEGW97N8nVc/ri4hwSt3PtqTJHM/hFEXyBBJzyDyvkhANY35st7XolbVxxB1R6Oum6KNp7a9vjr8KlC+9HTTtRQZlopBg2W+xV1dF/0DPRZF0ftfPcciAbExTOUaT/djrcOviMWrVA5J8tXwjOQoBNeY4mZOHbqGJ7b9bxrJdHTXbTrFI/BzIAFLAm6fNIa4X68LrrdTPQuONYcXd6JZ/n67M7n0H7adjxvpeTuEUSfIEEnPIXK+ccAVpn5Z3c+jyMdTTH1xMC4sGDXKVrAdjSfgGyKArZpfQqMk4+lprKPTAWASDhqC2wGxAFAx6nTVtpt/bzxZCNW7ntNLFpBwXCE1yBBJ7zIfWJmafVjMRWcX7rbavSDMkQLWNHeUxaTypiYDUpvYABjnDM/0czLPpSltVFDd3e3lTfXz52Wr25T7ks2/krMtoBG54QHIUEnPIfK+ScA/sXMVzdtwpoDdrvOyQ4nr/f5AQD2vegAWcDmGIqYGVd6gdSH7wnZ1r+tz4rpNmjitHx9dufzzsNYKml0TngREnTCqzwEYJ2Z+d3mJ2xmM3mD8zCxIDoa37JLH6H7C/JsFrCHNnGpnfIV+p0WsLSOLg/r37IoUIIhw4ZJfXjdxuh2M9Hy9WBDi1V+6dhLbPe8deBtZxxHlcr5UqkdIwhJkKATnkTlvBvANwCcAIAzXWfwrx8uws4TlveMbSQlRimLFrCtDdHtSLIgC9i0YYtwl01zfXQkHs/ydfzwqEPclqNb8Ui1TbtbAFRI7xhBSIIEnfAsxja2eQDOAkDn2U78fN0vsevELgDA5BFBq264LRoYJ+5HT4cF7KSZtpnhYJxqRPJYL0djJa+fA0B7HMvX9pPRz44Zm/HWgbdx3wf3i7e3ACinqXbCy5CgE55G5fw9AHeb+Y4zp3D/ul/g7YPvYOqIqVa9M2e7rK1H4ta1tFjA2kePc6Q3MABRGBsK4CIzL9shrrurC2ciESsvWr4KcXKYMmIKntr2e+fIHAAWqJyTZzvhaUjQCc+jcv44gNvNfMeZU3j440exbMdyWz3TvtMZGFfzjj2grq8UTbA70imM0bR737kUwvdR8VS5U+47Xl9ly88wtjc6LV8fqV7qdINrATBf5Xy51A4RRBogQSdyApXzPwK4GsARs6y21W4cw7frFrDiGjoANO3ZJbUvLhawQakNDEys9fMhw4ZhxMRJUh+u7bAdd2r5/oc22gW98WSjmDWn2ZdL7QxBpAkSdCJnUDlfD+BCAC+6Xd8tBDel2wJ2UtksMUsj9L4TdYhLQ0DckV2fWGnR8vVwY9itOqBbEJfRNDuRS5CgEzmFyvlxlfNbAXwVQI14rfFYdL18hiDoskfoQMy0e7n0BgYeaY1wb9HqrbS4JNPcespZtQ7AzSrn8ygAjsg1SNCJnETl/M8q5zMgeL93nDpjXRePUj3d4X4Ma19wTLvLPRJsYHKFmUhHhHukLToStwVNdp4Rq/1G5Tyock4nqBE5CQk6kevYjmSzjlJ1WMC2Nsrdj+44Gz1o2JYSKaAwdj6AfDMvO8K9YecOwMXydc0He5xVn5LaMEFkGBJ0IqdxrnE2HNVHYs5I973vhaS2S2ejS8X2byc7wv1wtWrLm3vQOzttXv8tNMVO5Dok6ER/oMpMrF6rL6v7C/IQEI7HTIcFbNGEgFhEgp461vr5yInnyrd8/WiDlRY/E+ZnxSAktVGCyAIk6ER/wFrz5NvrsXqtHgQn2nse2xczvdpnSNClEXWIkzzdDgDH66Jb08zp9tVrd1nbHA1C0hsmiAxDgk70B5ZD3zMMAFj8HyEs/o8QSsYVWRU6WpqlN0oWsNK42EykI8L9lPC39xf4rM+HQAv0zxBB5DRDst0BgugrKufNCmPzAKw1y8xRukk6LGAdI/QR0hsYOIy2EucFpT/8TGfUq935uTCYp3Iu/42PIDIMjdCJfoHKeQjAzRBG6k62rZa7G6lpt20NdpDUhw8sTpsJ2TMp/MVne7rcAuBa47NDEDkPCTrRbzD2DwcBLIaLsKvPL5fWVtPuGux4Y7VYRI5iqfOBmVCfX4G2piM91U2KnW/91a24BcAKAEESc6I/QaMKot9i7A1fCuFgl0kzGa6/f1HMASvJUP3SC/jwmadtZiUAJtO2p9RQGLsMwGYz7/MX4erv/wiX33xLys+MhFux5jdLsPdvIbH4SQBPkZ0r0V8hQSf6PQpjmyBsjQKAi26Yi6nXlGNS2Sz4Cv1x7ozS2lCPHa+vxo7XV6O1od55ebHKeaW0Dg9AFMbuBfDvYllRoASzbrkNF3/5Jgwdnh/nzigthw/hYLWK+q2bsX/9++hoPiFeflfl/LNye00Q3oIEnej3GCP1EByiblI8vRS+Qj8mlTFbeWuDhtaGehyq7nEP+2Mq5wtk9XUgozC2FMBdbtfGzbgQxdNK4R833irrbG9DR0szOlqacbx2P1ob4roBvgqgggLfiP4OCToxYOhJMFJgM3SRoOlbiSiMXQdgGYDzJDzuCICfqZwvk/AsgvA8JOjEgMIYrS8AUIHkD1VpgW5is5yCqdKLwthNAL4D/VS9ZDkK4CEAj6ucyz+ZhyA8Cgk6MWBRGCuD7lIWNP7rdsBKCEAtgE00Gs88CmPDAMwG8BkAVwPwOap0A9AA7DV+dqicb8xoJwnCI5CgEwRBEEQ/gASdIAiCIPoBJOgEQRAE0Q8gQScIgiCIfgAJOkEQBEH0A0jQCYIgCKIfQIJOEARBEP0AEnSCIAiC6AeQoBMEQRBEP4AEnSAIgiD6ASToBEEQBNEPIEEnCIIgiH4ACTpBEARB9ANI0AmCIAiiH0CCThD9CIWxYgBTAIwCMML4GQZgKIA8479DAZwC0ArgBIA9AGpUzo97qR2FsXMADDd+TqqctyfaP4IYiJCgE4REFMZGA/gO9PPVzwXQBaAFwDYAy1TO63q4dwqAZwEEAJwEsAbA/1M539ZLmwUA/g3AV402U6EbwAYAKwA8pXLencV2vgbgbgCzYD//vAv6y0EzgBro/6bbAHCV8y0p9ocg+g0k6AQhCYWxcgCvAiiKU+UkgB+rnD/jcm8BAA5ghst9fwTwA5XzTpf7hgL4GMAlKXbbjWdUzr+XpXbuBPBkCs/aB+BlAC+pnG+U0TmCyDUGZ7sDBNGP+FfEF3MAyAfwqMLYGJdrD8FdzAF9xL84zrV/hFyRBYBvK4wNyXQ7CmN+AP83xWdNAXAvgA0KY2sVxmbL6CBB5BIk6AQhj8sTqFMEXaAtFMauAHBHL/d9PU75LQm0mSx50Ke3M93OFwAUS3huOYB1CmN/VhgbJeF5BJETkKAThDwSFY+AI78Uvf+/eMJZoDCWB32dWTYtKueW0GaqHQB/J/n5NwP4QGFssuTnEoQncU6rEcSAxFgjvgz6tPdI6KPHJgC1AD5yW792uT/RF+Q84b6/B3B1Ave85lI2GXpkuWy2Z6mdVAPteuJCAOsVxq7sKSCRIPoDJOjEgEVhzAd9FPd/AFyH+KJ1UmHsTQCPqJy/H6dOTLR2D5w12j8HwK8SqN8O4AmXchnT0278PkvtFKSpnfEA/gvAl9L0fILwBCToxIBDYWwwgAoAlUhsVJgPXfhvVhh7GcAdLnupzybRhaHGf78H4IIE6v9B5fyYS/n4JNp8B3oUOACMhi7SY6Gv6fuhbw87BOBllfM/ZamdPKSPGxTGvqVy/lwa2yCIrEKCTgwoFMYmAHgewLUpPuKrAGYqjH1a5VwzC1XOuxXGIrDvm46HT2FsGICFCdRtB/BAnGtjE7jf5Ccq5zuSqJ+NdhLlGID7jbQfwEQA06D/Tf093PcdACToRL+FBJ0YMCiMXQLgLQAT+vioKQBWKYx9SuU8IpSfRIKCDuAn0IWoN5aqnDfGuTYugfsBffagJsG62WwnUbaqnDun6804hvkAnopz39UKY0NUzs+ktXcEkSUoyp0YEBgubG+i72JuwgD8g6PsZIL3FgO4L4F6R6HvT+/pOYlwuI8ilql2nFvl4uEaoKhyflrl/GkAe+PcVwjdwY8g+iUk6ES/xzAveRlAieRH329s6TJJ1Gv8Bujry73xC5Xz5h6uJxpE1pFgvWy30ydBF8jv4Vphgm0QRM5BU+7EQOA+JD4yU6EHdjVAF7LPAZgDd5vkYgBXAvibkU90hJ6I5TIH8Ide6pyTYHtBhbHPQPc9HwR9/3cyI+lMtZOooJ92K1QYGwTg54jd5y/SlkR/CCKn+F8AAAD//+3de7AkVWHH8W/AZVUEXEiLDaIIBkVRwJ5ogokKpRASTFSExASNicG3RqOkLMEGO4ikLEmhEisGHyigQlTKtyRZH0FBnHYhPMQHAiK22OILAssimD9Ojzu3mXtvz71z5+6c/X6qpph+nrPL3vvrPn36HANdUetl2Y7A6zvs+kPgJf2y/GRr/Zt7WfYC4L2MDuKDGT/QF3MP8IrWoCujdA3atcCXhs/fy7IfAcf1y/LcDsdPq5yugb5/L8sOJszCtiPhwuoJwB8Aey5y7DUdy5Bmjk3uit3zWbyZdRPwrBFhDkC/LN9PuHMfZbgZf1KB/tZ+WV7SYb+uQdu2DaHe7+i4/7TK6fou/17AeuDTwIeAtwPHsHiYf6Fflt6hK1oGumL33A77fHyhGbqa99bnazoefr48iUD/X7q9zgbL//nduZdlD9yCyhlncJ6l6HphIc0km9wVrWYktgM77Fr1smwfNne2WksYl313woQrRzH/ADC/HPq+3E5hAN9hnmfEIyz1znnYHoT5xbeEclYy0C8nTG0rRctAV8z2JTxnXcyrm89SfHTo+yQC/UjCFKIndNh3Ej+/XcZon1Y5KxXo1wKHd+iTIM00m9wVs3FGOFuKE/tluX5ouUvv9S7e0MuyZ3XYb83iuyxoI/O/s70a5azE76NLgKcNj+onxcpAV8xWakSwa4Hn9MuyaK2fRNM0hAuD9/ay7KGL7DdO0N5AaM6/rvmsB44ZMSb9apYzyd9HFXAscFC/LK+f4HmlLZZN7orZJJrAB24hvJ/+YeBT/bIc9Zx7koH0QOB9vSx7Wr8s52uK7vrze06/LI9ZRl2mVc64f3+bCBdt9zTffwFcCpwNfLZfluNMmCPNPANdMbuK0MFssTvM7wI/JnSG2wjcSrjDu7L5XNGxyXZSd+gDhwCvAU6bZ3vXn98Ny6zHtMoZJ9CPAD6zwMWOtNUx0BWtfllu7GXZBsKgIwu5rl+Wh06gyEk9Qx92Si/LLuyX5ZUjtnW9gFhuZ7BplTPO7yPDXGrxGbpi1+VVpaf3suyo+Tb2smxNL8uO7mXZB3pZdnovy+abJW2cQH8D3eZQXwu8uxnWdKnlLbdT27TKGef4lbh4kmaad+iK3b8Bx7PwhB0AZ/Wy7CHA+wnjfe8CPAY4mvAq2S5D+x7Ry7KDRkxrOk7InAFcBlwAbLfIvr9P6OD17tb6rgPZPHKxHZrBc/Yg3I1f17r7nVY54/w+2pbltwhIUTHQFbV+Wd7Sy7IzgOMW2fV+hGfVb2PxYN4LOAV44TKqtm2/LD/by7IXES4iFnNqL8su6Jflj4fWdZ3d7ahelq0njLO+kdDhbnfCe/oHAo8nXLwM3tm/tumMd/2Uyxnn95Gti1KLga6twRuBPwIe22HfrnfZTxmxbuxe1f2yPKuXZfuy+Pzo64BTgb8dWveTjsXsQOj53dXehOFnB2VNqxyb0aVl8CpX0euX5Z3AX9I9mLq4YcS6cQJ9uBn7BODiDsc8vwn/gSvGKG9cj1+FciQtg4GurULTS/wpwE0TON0m4MQR6+/sePzdbB43nmbO8GOYOy78KNsyt5n/Gx3LW4rhSWemVU7XgYBuby7SJA0x0LXV6Jfl1cATgY8s4zT/CRzQL8uLRmy7teM5bmi/ctUvy+8BL+9w7PAQqhcB3+pY5riGw3Va5XQZTQ7gBytREWnWGejaqvTL8qZ+Wf4FcDAh2LuE8M+ATwBH9cvy0H5ZfnOe/bqOFz5yrvN+WZ4NnLPAcecSeu0P9v818JaOZY7rNxcO0yoHuLHjMZ9biYpIs85Ocdoq9cvyi8AXe1m2FugBDyP0yF5H6NV9a/PZAFzecRCTLs/B7wDeusD2lxJaER4xtO6nwOv7Zfnv7Z2bTnUPAU7uUPY43rMK5awHXrHI/j/Dec2lkexVKk1QL8tOJPRYHzVt643AK/tlueBgN70sexThTn0jcB5wZr8sF3x1rJdlBwMvA57J8i7UbwL+oV+W561GOb0sO4fQgXGUrwOv7pflV5dRrhQtA12asF6W7Uxo0n8UsBNhoJrLgc/3y3LjCpd9X0JLw27NZ2dCq8NOhE51v2bzvOObCHf/P2/+e22/LDv1aF/JcnpZtj+h9/suhMFjbgYu65flVV3qJm2tDHRJkiJgoEuSFAEDXZKkCBjokiRFwECXJCkCBrokSREw0CVJioCBLklSBAx0aQrqotoVeDhhdrFbgG8neXr7wkdJUncGurSC6qI6Gng9cABzf942AV8B/jnJ08+vRt1mVV1UOwD3SfL0Z6tdF2lLYqBLK6QuqrcDr+yw65nAi5M8vWeFqzSz6qJ6BnAqYbjZnYA3JXl60qpWStrCONuatAKaAGqH+TXAd4DfJoxVvnawwTBf1O7Ao1e7EtKWzEBXNOqi2gV4DPAgwoQeX0vydNMqVefvWstnJnl67GChLqoEOBHYB3jJcguri2pPQrP+ncDFSZ7+fJnn25UwuUwC/AT4epKnC874Nub5tydMW3sb8I0kT7tMTzupstc0ZaeERx/fSvL0O9MqX1opNrlr5tVF9SDgNOBoYM3QptuAdwHHJ3l615TrdDnwuKFVz0vy9OwR+/3WOGFWF9UbgNc1i/8H/C6hyf6P2fzzfCdw6lKapOuiehTwNuAwwqxpA5uA84HXJnl68xjn+0NgeLrYJwN7AGcRLhZuS/J0hwWO7wEXAtsROhQO3EGYXhbg75M8/WCHuqwFTiLMOb9Ta/P3gHcCp9taolm1zWpXQFqOuqh2J3Qu+yvmhjnAA4DjgE/WRTXti9dftJaPa8JyjiXcmd6fME3pOuAhhD/7nzD34nwtcGJdVK8a58R1UT0ZuIRwcbBta/N2hL/jS5q/867WDNV3HSHQP0IIcwiPIBayXXPc9q319xs653Ud6/JxQgfFdpgD7MXmi0JpJhnomnXvAh7RfL8bOAV4BvCBoX0OA8YKtwn4TGv5ccBVdVGtr4vqxXVRjQqVpdgLuAo4HbistS2vi2q7Liepi2pH4IPMDbsvA2cA3x1atyfwvqVWFsiB4Tvyby2y/y+BS7l3aP+gWX8pcOVihdZFdShw+NCqG4F/At4KfI7wb+fLSZ5+eLFzSVsqn6FrZtVFtR8hvAc+lOTp8c33TzXNtYOOVC8nhN5i51xDeAY/n9uSPG3ffY9yOvDnhOfaA9sABzeff6mL6oPAG5M8/XGH883ni8BhSZ5uqovqvsDlhOfyALsAhwKf6nCevwEeOrR8fpKnRwPURbWuOe8ezban10V1YJKnG5ZQ310J4flhwoVC+yJkjiRPrwSeWBfVSwgXbwPvGfORwv6t5fckefqmwUJdVPsQHitIM8s7dM2yZ7eW2+9zXzz0/Xfqotqtwzn3I9z9zfd5W5eKJXl6B/BU4Gxg1DPZ+wEvAq6si+qgLuecxzmDjn9Jnm4EPt3annU8z7Nay2cMvjTve5/f2n44S/e6JE+PSfL0pCRPL1jGecbx/dbya+qiOqkuqr0Bkjz9dpKn10+pLtKK8A5ds+yRreUX1kX1Z0PLj2lt3wv44cpWabPmTv55dVG9hdCT/dmE16/m7AZ8rC6qvSfUi/yG1nLX590Pby1f0VpuN423/+67ugV4xxKPXY5PEkJ90AqxE+EtgxProrqC8BjhX5M8vXMV6iZNhHfommW7tJafCjxn6LNva3u7Y9Uom1j4Dv2WcSuZ5OnVSZ6+itBkfRjwP61ddmVynbE2tpbv2/G4nVvL7YuLW1vLD+hco7kuSvL07iUeu2TNMLtHAN8csfmxhA5xG+qievBUKyZNkHfommXt8LqYhQP3xsVOmOTpVWx+VjxRTY/2C+ui+i+gZO7z9XZrwlKtay13fR/9duaG9P0Jr78NtC+GfjpmvQbaFwZTk+TpFXVR7U94vPDXhAvA+w/tsi+h9eCo6ddOWj4DXbPsu63lc5M8feeq1GSEuqh2TPL0l+31SZ7eUxfVNcwN9F9NqNhHtJbbz47ncx1zOwM+kvAK28A+c3fv/KrYpLRf71vSa4jNeATnAec1g9u8FnjT0C6HLK160uqzyV2z7LOt5WObXuq/URfVXnVRPWmKdRqU+yTg+3VRvbkJjuFtu3Hv4Lh6iUU9bOi865jb6x/u3VFwPutbyy8YOu/2hEcYwz7a8byT0n4EMHYrSl1Ufzo8FkDTZ+FkYHjQoe1XYcwCaSL8h6uZVhdVn7k9ua8GPkYY2KUHPLP5fkCSp9WU6rQf8CU2P5e+FbiI8Ax+HeFVsh2HDrkZeFiXDll1UZ0MHD+06h5CT/rvEZqKh5vuv57k6RM61nk3Qse34Wb3/yC84/5M5r729ekkT4/oeN5DgP8eWnV2kqfP63Js6zwHAMOvyf2KcLGyJ3BakqfvXeT4w4BPEH7nfYLw/+cOwnP14Y6UFyd5upy3DqRVY5O7Zt0xhAFQBiOPPZp7T+LxIMKAJi+dUp1uA65nc6DvwPyved0BHL2M3tXbAM8fsX4j8JquJ0ny9Id1Ub2M0Nt7MErcoHPhsOu59zj1Ky7J08vqotoAHNisug9hhDyAN9ZFdfZ84/bXRbUN4XXDwSA7RzafttuBf5xcraXpssldMy3J02uAgwijfY0aRvVm4ASmOFJc8z7z7wGvYP6R0H5FeGTw+CRPv7yM4s4i/BmH/QA4MsnTr4xzomY89GcQZoVru4vwLnovydMfLaWiE/Bc4Nsj1v+UoUcPbc3Y7E8mjNU+X6e8i4FDkjy9aLmVlFaLTe6KRvPK0ZMId+QbCcH0tdWebKMZvGT/pl53ARXw1aXMiDaiyf1Y4FxCM/6DCXfQX1ju+9RNb/D9Cb3AbwIuHWdSlpVSF9W2wFMInfTuAjYkefqNMY5fQ7jY2pvwZ6uBS5I8XfQNCGlLZ6BLM2RUoCd5euZq1UfSlsMmd0mSImCgS5IUAQNdmm3jzqcuKVK+tibNlgsIU47eCNywij3OJW1h7BQnSVIEDHRJkiJgoEuSFAEDXZKkCBjokiRFwECXJCkCBrokSREw0CVJioCBLklSBAx0SZIiYKBLkhQBA12SpAgY6JIkRcBAlyQpAga6JEkRMNAlSYqAgS5JUgQMdEmSImCgS5IUAQNdkqQIGOiSJEXAQJckKQIGuiRJETDQJUmKgIEuSVIEDHRJkiJgoEuSFAEDXZKkCBjokiRFwECXJCkCBrokSREw0CVJioCBLklSBAx0SZIiYKBLkhQBA12SpAgY6JIkRcBAlyQpAga6JEkRMNAlSYqAgS5JUgQMdEmSImCgS5IUAQNdkqQIGOiSJEXAQJckKQIGuiRJETDQJUmKgIEuSVIEDHRJkiJgoEuSFAEDXZKkCBjokiRFwECXJCkCBrokSREw0CVJioCBLklSBAx0SZIiYKBLkhQBA12SpAgY6JIkRcBAlyQpAga6JEkRMNAlSYqAgS5JUgQMdEmSImCgS5IUAQNdkqQIGOiSJEXAQJckKQIGuiRJETDQJUmKgIEuSVIEDHRJkiJgoEuSFAEDXZKkCBjokiRFwECXJCkCBrokSREw0CVJioCBLklSBAx0SZIiYKBLkhQBA12SpAgY6JIkRcBAlyQpAga6JEkRMNAlSYqAgS5JUgQMdEmSImCgS5IUAQNdkqQIGOiSJEXAQJckKQIGuiRJETDQJUmKgIEuSVIEDHRJkiJgoEuSFAEDXZKkCBjokiRFwECXJCkCBrokSREw0CVJioCBLklSBAx0SZIiYKBLkhQBA12SpAgY6JIkRcBAlyQpAga6JEkRMNAlSYqAgS5JUgQMdEmSIvD/7IwNndjlg1EAAAAASUVORK5CYII=;clipPath=inset(20.67% 30.67% 22.67% 30.67%);" vertex="1" parent="0B4loqaDKJ7nYiXQ2XOH-33">
          <mxGeometry x="27.710000000000065" y="20" width="54.59" height="80" as="geometry" />
        </mxCell>
        <mxCell id="0B4loqaDKJ7nYiXQ2XOH-41" value="" style="group" vertex="1" connectable="0" parent="1">
          <mxGeometry x="455" y="50" width="200" height="200" as="geometry" />
        </mxCell>
        <mxCell id="0B4loqaDKJ7nYiXQ2XOH-40" value="" style="ellipse;shape=doubleEllipse;whiteSpace=wrap;html=1;aspect=fixed;" vertex="1" parent="0B4loqaDKJ7nYiXQ2XOH-41">
          <mxGeometry width="200" height="200" as="geometry" />
        </mxCell>
        <mxCell id="0B4loqaDKJ7nYiXQ2XOH-21" value="" style="shape=image;verticalLabelPosition=bottom;labelBackgroundColor=default;verticalAlign=top;aspect=fixed;imageAspect=0;image=data:image/png,iVBORw0KGgoAAAANSUhEUgAAAfQAAAH0CAYAAADL1t+KAAAACXBIWXMAAA7EAAAOxAGVKw4bAAAAM3RFWHRDb21tZW50AHhyOmQ6REFGU0RnQVF3aFk6MyxqOjQxMDgxNzA5MzQyLHQ6MjIxMTE1MjKfTp7RAAAE82lUWHRYTUw6Y29tLmFkb2JlLnhtcAAAAAAAaHR0cDovL25zLmFkb2JlLmNvbS94YXAvMS4wLwA8eDp4bXBtZXRhIHhtbG5zOng9J2Fkb2JlOm5zOm1ldGEvJz4KICAgICAgICA8cmRmOlJERiB4bWxuczpyZGY9J2h0dHA6Ly93d3cudzMub3JnLzE5OTkvMDIvMjItcmRmLXN5bnRheC1ucyMnPgoKICAgICAgICA8cmRmOkRlc2NyaXB0aW9uIHJkZjphYm91dD0nJwogICAgICAgIHhtbG5zOmRjPSdodHRwOi8vcHVybC5vcmcvZGMvZWxlbWVudHMvMS4xLyc+CiAgICAgICAgPGRjOnRpdGxlPgogICAgICAgIDxyZGY6QWx0PgogICAgICAgIDxyZGY6bGkgeG1sOmxhbmc9J3gtZGVmYXVsdCc+R3J1cG8gLSAxPC9yZGY6bGk+CiAgICAgICAgPC9yZGY6QWx0PgogICAgICAgIDwvZGM6dGl0bGU+CiAgICAgICAgPC9yZGY6RGVzY3JpcHRpb24+CgogICAgICAgIDxyZGY6RGVzY3JpcHRpb24gcmRmOmFib3V0PScnCiAgICAgICAgeG1sbnM6QXR0cmliPSdodHRwOi8vbnMuYXR0cmlidXRpb24uY29tL2Fkcy8xLjAvJz4KICAgICAgICA8QXR0cmliOkFkcz4KICAgICAgICA8cmRmOlNlcT4KICAgICAgICA8cmRmOmxpIHJkZjpwYXJzZVR5cGU9J1Jlc291cmNlJz4KICAgICAgICA8QXR0cmliOkNyZWF0ZWQ+MjAyMi0xMS0xNTwvQXR0cmliOkNyZWF0ZWQ+CiAgICAgICAgPEF0dHJpYjpFeHRJZD5kMDdiMWYzNi0yODdlLTRhZTctYjAxZS00MWQ5MzQ5YTE1NGE8L0F0dHJpYjpFeHRJZD4KICAgICAgICA8QXR0cmliOkZiSWQ+NTI1MjY1OTE0MTc5NTgwPC9BdHRyaWI6RmJJZD4KICAgICAgICA8QXR0cmliOlRvdWNoVHlwZT4yPC9BdHRyaWI6VG91Y2hUeXBlPgogICAgICAgIDwvcmRmOmxpPgogICAgICAgIDwvcmRmOlNlcT4KICAgICAgICA8L0F0dHJpYjpBZHM+CiAgICAgICAgPC9yZGY6RGVzY3JpcHRpb24+CgogICAgICAgIDxyZGY6RGVzY3JpcHRpb24gcmRmOmFib3V0PScnCiAgICAgICAgeG1sbnM6cGRmPSdodHRwOi8vbnMuYWRvYmUuY29tL3BkZi8xLjMvJz4KICAgICAgICA8cGRmOkF1dGhvcj5SdWJlbnMgTHlyYTwvcGRmOkF1dGhvcj4KICAgICAgICA8L3JkZjpEZXNjcmlwdGlvbj4KCiAgICAgICAgPHJkZjpEZXNjcmlwdGlvbiByZGY6YWJvdXQ9JycKICAgICAgICB4bWxuczp4bXA9J2h0dHA6Ly9ucy5hZG9iZS5jb20veGFwLzEuMC8nPgogICAgICAgIDx4bXA6Q3JlYXRvclRvb2w+Q2FudmE8L3htcDpDcmVhdG9yVG9vbD4KICAgICAgICA8L3JkZjpEZXNjcmlwdGlvbj4KICAgICAgICA8L3JkZjpSREY+CiAgICAgICAgPC94OnhtcG1ldGE+ySqKYQAASn1JREFUeJzs29uvHmUVwOG15vv23t20WGpoQSEmnElJUYOQkKCSmBCJh7v+c/4LvTTGoF5UjSEhECOIWKkcLoBQpNJaetj7m3d5IVFQKoUeNl08z/VkZn1f8r6/mUwmAwC47uVODwAAXD5BB4AGBB0AGhB0AGhA0AGgAUEHgAYEHQAaEHQAaEDQAaABQQeABgQdABoQdABoQNABoAFBB4AGBB0AGhB0AGhA0AGgAUEHgAYEHQAaEHQAaEDQAaABQQeABgQdABoQdABoQNABoAFBB4AGBB0AGhB0AGhA0AGgAUEHgAYEHQAaEHQAaEDQAaABQQeABgQdABoQdABoQNABoAFBB4AGBB0AGhB0AGhA0AGgAUEHgAYEHQAaEHQAaEDQAaABQQeABgQdABoQdABoQNABoAFBB4AGBB0AGhB0AGhA0AGgAUEHgAYEHQAaEHQAaEDQAaABQQeABgQdABoQdABoQNABoAFBB4AGBB0AGhB0AGhA0AGgAUEHgAYEHQAaEHQAaEDQAaABQQeABgQdABoQdABoQNABoAFBB4AGBB0AGhB0AGhA0AGgAUEHgAYEHQAaEHQAaEDQAaABQQeABgQdABoQdABoQNABoAFBB4AGBB0AGhB0AGhA0AGgAUEHgAYEHQAaEHQAaEDQAaABQQeABgQdABoQdABoQNABoAFBB4AGBB0AGhB0AGhA0AGgAUEHgAYEHQAaEHQAaEDQAaABQQeABgQdABoQdABoQNABoAFBB4AGBB0AGhB0AGhA0AGgAUEHgAYEHQAaEHQAaEDQAaABQQeABgQdABoQdABoQNABoAFBB4AGBB0AGhB0AGhA0AGgAUEHgAYEHQAaEHQAaEDQAaABQQeABgQdABoQdABoQNABoAFBB4AGBB0AGhB0AGhA0AGgAUEHgAYEHQAaEHQAaEDQAaABQQeABgQdABoQdABoQNABoAFBB4AGBB0AGhB0AGhA0AGgAUEHgAYEHQAaEHQAaEDQ4Xpz95Oxa7Gcdtdabs0Xciwra54zF/O0WC0u6RRzRNWYKmNZyzpX7++OWu0dI9ZHxdGjV3d+4KoQdPi8uvvJmDKmPWtjMc/ztByxGLVYrxibUfGlacobxqgbRtZmVqzlFHuyYuMTz5sRo+JcjTiTkasp5rOrKd+vZf1jOfLsFMtzW/NYZS7n9c1pPrV+2xzP/aSuwS8GLoOgw+fJ7YenPRunlttRa7sWtXlhjpsXUxyoipsyYl/GdCCi9kfVVyLjyxGxr6L2RuWuzNgfGXvik9KbEVXxXlT9LSK2MuJkRbwbU7yTle9m5okx4nRlnVxMcWI71t5ej/FOZm3N82I+szq3iteOjmvwbwCfgqDDDvvSwSfWYmtrPXK5Z3uebl3k6qtzTLctp7x9HuOuzLgrKg9ExK055e6oDxf7Sizhj7kDqJwr682M+mvF9MqU+dKo+UTW9NZc4431aTpROc6OxQ3bZw7tWsWRI57gYYcJOuyAG+99fG2tFrsuRO2Lsbgzc747c3HnGHVfZt1TkXdmfjje/71Ur0Y/P247+OA6mVGj3suM41Xx8jTly2OM16eYXl2tTa/OF7ZPLsd8/uzrv966CoMBl0DQ4RrZe+gHy8WFC5tbEftqjHuj8v6c8v4a+WBmPRCZ+6Iqr028P42PmydHVZ3MiD9X5vNR49iUdSwyXsrlxsnIcf70n55a7cS08EUl6HA1HT6cm8+/v7Gcz++rzLuj8lBkPFAVX4+KBzJzb3xkHe50vC/F/2wbI6pOZ8axinimIl6cMv6YMR3PkadO5bQVx3/unTtcZYIOV8EtDz6xOL+12pxr7ZYY4xtR9UhEfbMiD2Xk/oj40Pdl10PE/5+PbCOrqnonM1/IzGej6vdzTC+MOd7czPns31/51bxTU0J3gg5X0P6Djy+2t5Z7VlPdUaMezlw8HBWPRNS9Ebn5nyOv94hfzEe2lLMR8XJFPFcxnsmKZ6dp+cq0a3n61As/E3a4wgQdroCb7/vxYjVv7dmu+a6IeiwyHouIhzLy9ohY/9dRXSN+Mf/eXi5U1BsZ+YfI+F1F/qYiji/X8/TpF58SdrhCBB0ux8HDeeP2qd1j1D0V8e3M+G5EPJQRt0XE8osX8YvJiIgREW9FxHMR9duIOLpcTn/ZWI8zbz//C+/Y4TIJOnxGe+/70caora/VGN+piO9HxLc+CPmakF9MRkTMEfFWVT1bUU9VxtHVxvTa9sGbzseRIzs8H1y/BB0+pRvv/94i53FgVD4aufhhVD4aUXdExIaQX6qMitqOyNci6unM/GlN09MV4+2zx37pczf4DP4JAAD//+zdeZxcVZn4/89zbvVenU53QgIkIVslgYAsYRMRCaRCWJVBI+OATo+iON9xRsfxO+P4/fqTGWf8Oeo4jjoqKGOj4hYRWWQJFYziiMoOIWslhCULIemku6u3qrrn+f5xKxCa7q6q7ltd1d3n/XqVkq57zz3pdNdzz3PPeY4L6I5TqOXLJbqvul6yehJqr1DlEjBLgAYXyEdKAO1BzFbQXyHc5kn2mSrSXfu3/I/7pjpOEQrbmslxJrlo7BIv0mmOUd9eLip/ichlQIxXJ7w5o1AFHA0sQTnRqtT61Oyva1nc2d+edEHdcQrkArrjDOsGGo+L1orJnIrhAwZ5P3AGMKAgjDN6UgccJ2JOwNpZov4BmTpvf3bqvCyHdpa7c45T8VxAd5yhxC6R+mkvNImXvUzRj4qYy4C5oO73pnQEaEZkoYWlnmf8SET2RqbN784eeK7cfXOciuY+mBxnMKtXU3ewL2oy9h2IfEpEcqNylwEeI7WIzBYxJytMF7UvVTXPP5A5uNP9AzjOEFxAd5xB1KWPrhJfzzYifyfIGaBV5e7TZCNggBYRWSIqcyNGX8k0zdujh3a6YjSOMwgX0B1ngKnzlgvCTIy53oh3BdgKn/gmwUsExOT+P9/r8HnjQh0ic304tVoi/fVNJyf7Dm1227Q6zgAuoDvOQE0Lq0DeYsR8BGFmRaXZjwjaYgQJln2pQlaVHlXtUdV+0G7Qg4oeUrQD6EY1o6r9qtoLagUVxBgRT8QYXrspKPPfcXDVgpmJ4Syf/nTVjNi2zIEdPeXulONUkki5O+A4lUYiEgE5WcSbr1rmGicSjL5FQFUVq2kr2i3QDXSrSocoLyvaDrLbCJ0a/F6ngF2i0gMo6FSFY0WoEfAVmaaqM1E9RsVOE7RBLfUi1KHaiPFqgmuSO70Sbmo0gjJLIt4/YHVmdFH8G6ltiefL3SvHqRQuoDvOkZa8Xaymp1SpH0OIlGVwfngUrgrW70M4ZJFDWN0NZqsRkijbUHaAdoBmUHyErBHxLYiCFSWDFQugYj1EqkREjKI+RBQiohpRISLYJjGRBagep9gTBf9EtWYaSjPYFjGRahUNkhVa5rLr1s4Q8T6I6rQpiy76cue2tRvL2yHHqQwuoDvOEabYlKgyQ5H5Opa559cH8R5r2CPKSyL6FGIeV/QJgb1ABiSDkEa9bHfy3mKia+9QbzQuXm7AbLXYCEo1qtUi2mLVng7yFnz/VGuYgXCUETMll+kv38hd/WbEXG3VTq+NrbyhL/nAk+XpiONUjsp8WuY4ZTIlttyoyikW7z/EmPNLPhoVgyCo9TNqZLegL6nlt1n17okYfwPYjIhJ+2IzvVsfHNOhcePxK4yftlViTLVYqVZPlir+ClE5H7wFgj1axKtWbPkCu5ge1D6AmM+ktq19qjydcJzK4AK64xyhJXax8bHHZ7H/LmIuLk1Az00+A6y1HSL6vEEeFhO5zWr2j9bSn7WRTPq5+ypmeVbj4otQ1LOarRL16hU5U9ReaUTOUmQuItOAXGAf4+AeBPVENiKf6dvsRurO5DVuAno0Fm8BTgLmADOBeoI62n1AD0E68nlgQyqZ6CpXP53xLfKWC4kc0qle2vyTMVV/ozbkSXFiyAW8fWp1i4jeKxHvp1h9SSSSEcR2bLkn3GuGrGHRSlTVWN+vQuRoY8yVBq5C5ARUjno1HT+WgV1Mj6hd64m54ZAbqTuTVMUG9GgsLsB5wDuBOLC0wFOzwFPAWuAXqWTij6XpoTMhLV/OlJdMLZgPq0S+qJoNZ55JbkSOysui9gkR8xM/03CXn44crJ7aaSUSoeOZX4ZyqTEz+xyqq2sx2X6pNrXT1ZgrVLhKhdMFc3QQ2MfwKYGYXtTeZ8T8n85tazeN3YUdpzJUXEDPBfKrgX8ETg6hyYeBL6eSiZ+F0JYzCUQXxSMoZ6vyVfG8ZdhRZL6DZWeqqh3AE4jcAnJH97b7D4XV30oyZV682QqXq5FWETkVoRlUxuwZu5hOVH8sJvO5Gql6fv+WB8bmuo5TASqqsEw0Fp8HrAH+niCtHoY5wLurWxacW92y4Lfp9h0T8oPUCU+6fYetnjb/oIg0grwFYQRlXwXEKNCv1j5jxd6c9fhcX2PdQ5kN9ww523y86z+0oy99aMfTVUfFHlTVQ6g2C9IEUvVamqKUtAYxc0UjGLEbpkTO7e7ufrr0l3WcClAxAT0ai58L3A+cUqJLLCQI7H9Mt+94oUTXcCYIr2Wuj9KOlRkixBApPPUexK2swougd4D3ObH1t/Ul79vPnq2VUKGl5DIHtnc2HHfyo/j9T6hVA3KUCNFXK+WUVj3CAmttCsyzvYvq0+zZU+JLOk75VURAj8biZwH3AkeV+FKNwJ9Utyx4MN2+Y3eJr+WMY9n2nepNPaFdDNsxerTAAsQY0GGCkYAYq0inor8zqv/uKd9M7UhszRzaUjEz1sdK397NfvrAc7vqm2N/xNiXFG0EmSZIzRiM1qcgMj8bSe/2fJLZ/S+UueSf45Re2QN6NBafTjAyP2aMLlkLrKhuWXBLun1H/xhd0xmHsoe22WjzCfsRNqtoNUoTYuoxuZ1NDg82RSzi+Qh9qvY5Vb0dq1/qNtWJ/u1rJ3298f6DO3rS7c89Vde8cIOiVYjMEJEopf/8mYLqMZ5vtkemLXgx0/5cmUvcOU5plT2gV7cs+DpwwRhfthmoSbfvuD+sBqOxuFS3LDi6umVBS3XLgr50+44JMSKLxuLV1S0LGtPtO/rG4FpedcuC5uqWBZJu35Ep9fUK0Xdwq+1vT+6tnjb3tyq6K9j4RFKi2geaBe1W1V2i+iyq60W5qVojt3Q998AO2pOTIr1eqP6DO/bWN8ceU7HtwAyQ5uDZeslS8J4Y04JIPcqWxpZFB3oPbnf/Js6EVdZZ7tFY/BTgcYJ9jwuVAO4GngQO5M6dDZwPvJfCR/qdwLxUMnFwkH61AouGOK8rlUx8/ohj3wb8FbCS4EYBgrXxiVQycUXumFrg0wX06eupZGLQh33RWPxj5H8kcWcqmfjDIOd+CmgY4pxnU8nED484tgG4CvhTgvkMxxB8j/uAF4Bf5a4zqsXS0Vj8WOBS4M3AmcAsYNoRh/QArwAbgN8Dv0klE78ZzTXDEF14Ub2ii0WIgR6NqgFeAt1SLfb59uT6VLn7WOmaF8Rr0qIXqMiHBHmbQDNoMZ8BRRCAfSi3GOHrnX1TX+SlNS6oOxNSuQP6TcAHCzx8N/C+VDKxbpj2pgBfAf6iwDavOTKYHdHOXcDlQ5yTBaYAaeA/CYL5YDpSycTUXHtTgTfcOAzitFQyMWilq2gs/jTwpjznX59KJm4a5Nw9wNFDnPNMKpk4OXfc+cB3gFgBff0V8LFUMlHUFOJoLH4q8HFgNcHjj2I8AfwX0JZKJiZEBmQyi8bOPx0iHwJzGSJHo+qVpBhN8Ghku6r9clarf9C//Z7O8C/iOOVXorvi/KKxeDXwrgIP7wRWDRfMAVLJRGcqmXg/8PMC2z27wOOOFAGOB77E0MF8PHlTNBafFo3F30uQ/SgkmEPwmGR9NBY/r5CDo7G4F43F/xH4A0EmpdhgDnAawQ1HIhqLzx/B+U4FSSV//ZgIXwJ7K/A8ItmSjDGCTWTmichqz2ROn7Jw1QiWITpO5StbQCeoAtec96jA51LJxIYi2v5CgcfNKaLNI10LfGyE51aivwNupPjd95qBu6Kx+ILhDorG4h7wY+BzBOV6R2s58Eg0Fl8WQltOGXVtW7dNkZtU/e+AbkIkXZrEoXrAKaK8U/GPmz17dcUV1XKc0Srn9qlnFXhcBnhDGjmPZwhSs/lsL7Ldw/5mhOdVqn8cxblNwDeAi4c55isUno0p1DTgjmgs/rZUMvFcyG07Y6g7mdjetGjFt7LoQeDDIrIUpSr09LvSLLBKYWN3TcetQEe4F3Cc8ipnQC+0Nvsjg01cG04qmegBPlJ8lwrm9pF/vVXRWPyCVDLxq4FvRGPxSyjdv8VsgszCRSVq3xkjHdvWHWxatOInWRVU9PpcUK8ON6grIPMRuTKDv6F26eUP9228uyJWUzhOGMqZci803e1GX2PLEkw+WwckizjvfQO/kKvL//8VcG4W+B7B7PqzCZ7P/29gRwHnrozG4iuL6KdToTq2rTsYIfIT4FugW0r0TN1DOA0xl3t+5phgbqbjTAzlHGlOL/C4QWekRmPxcwhGZ6PxVCqZeO8o25hIHgOuTSUTmw9/IRqLx4HvM/Qs+cOujMbiH0glE0cW7ziPYFlaPq2pZOLWAV9bH43FbyYoOnRmnvM/CrhdOCaAjuS9B5sWX/ZTX/uaUHM9MI9QBx4KyHRglfj+4/ULOl/p2cGEra3vTC7lDOh1BR43VHWnevIv48onjI1aOoDvEizj2k2wXhtgvC2r6gSuSiUTr6tzn0omEtFY/MPAL/KcP5Vg7f6WI762ooDr3jlIMD987YPRWPyjwO/ytHF+NBavTSUTJS9+45Rex9ZfHqyNrfxxRP0mFe8vRMzRqA1vqK4KyGLgEuP5T7O8dRPr29zadGfcK2dAH28BbzDbgYtTyUQxqelK9aOBwfwIdwG7CIq/DOdUXh/Qzy/gusPeKKSSiYejsfhzwHDL1KLAW4AHC7ieMw70JR94oWHhiptV7XTEuzrYsS3UmFsLcp6gDze8vO/FbugKs3HHKYdyPkMvdHRczj7m85EJEswBHhrqjVwa/ZkC2hhYpa+QNe1b8h/C5vyHMOzSOWf86d6+bgfINxSbQOgL93m6AsxVlYvJpk9oPH6Fm+jqjHvlDJaFLhmZUtJejNy2VDJxX7k7EaJ8+0sW8u/VOODPheyeV8jIqJDKXoXOyXDGkZ7tiaeMMV9B7RMihD1JzgDnoHqBn/Wnhtmw45RDOQN6oUvR5pa0FyP3hprp41w6z/uF5DtfvfnKleEtpIhMIe0WckxLAcc441Cqpen3KvJtVF8Md9dVBZiBygqsOaFh3nJXQc4Z18qZZiokjQpwVjQWb0olEwNHiC8DPxjinAjB5iKltK/E7Y+1MD4pj7wpGOuZw26m8kT18Josx196J5m+ExT5XyKmAQ1vJ1QROV3EnCuGjQQbPjnOuFTOgF7oCLca+ADw5SO/mCsFO+iSs2gsfiKlD+gTbUZ1U573C6m9/mr6PJVMZKKx+EHyl/ctZFRUyEh/fwHHOONU9+Z7DkyJLf82mDehshIkpI1cFJAWhHMVs6554cpDB7c/MBEm7DqTUDlT7r8v4thPRWPxobYzHcxfF9uZClE/zHuF1r0fqXxLAAspBDRwomO+5/IAMws4Jt8aeJh4GRNngM7k+m3GyLfAPh9u6h1QzkA5w0eG2mbYcSpe2QJ6Kpk4APy2wMOnAfdHY/G3DHdQNBavicbinweuH23/QpYt8LjjB/tibsvR2eF1Z1Cro7H4oD8P0Vh8NsHe6PlsHfDnRwo4J9+/aRPBcrh8irlBdMYpiZgHgTWo9oUX1BWQGQpvs2qPmznzokpeWeM4Qyr3D+43izh2PvA/0Vj8zmgs/sFoLH5WNBZfGI3FY9FY/IJoLP5/gQ3AP5Smq6PSTbDJTD4ficbir0ttR2PxRuCrJenV651GUG71dXI7pf07hT2eeXzAnwtZF/7+aCw+bZj3/4bhMxcAz6aSiecLuJYzznVuvL9L4Nuq+rggfoiz3o3AmRg9qbdRR7K1r+OUXbnXXq4B/pWgvGOhrsi9xo1UMqHRWHwv+dPWpwG/jcbi3wZeJKi8dj1wQom7eNjno7H4GcDtQDtwHEGN9nMLOPexVDIxMOV+D8GSs+GWHs4i2IL1g6lk4tnDX8zd2HyUwmrB/6yAY5wJItPf9Zypafy2WrsQY2YGld/CIHOAs33D7zj9Qy/y2E2uepwzrpQ1oOcmTn2SYK/sie4xCnsOfXruVS7vYmRbnb5hxUEqmdgfjcW/Dnwqz7nnABuisfgGgop0dQQp/nwT9SB4dv6VIvvqjJLeAPTgcRDDrCJnp72CsBvL7fgjGV9LbZNF9R5FV4uyKpwJcgpINXAeVu9u6HhhT3dhWTXHqRjlHqGTSiZ+Eo3Fzwf+stx9KbF1wJXl7kSJHAQGrcdOkK7/MwrLwpyUexXjM4NkBpwS0r9H2EcLvbzVwkx2FlnGWTDSzEa5jif5Dt3FXr9321pqF604IMKtRu0pImZWWKN0heNBThTNPIrbL90ZZ8oe0HM+DiymsM08RqKPwpZdldL3gc8SbGIyEjsJ1siWc/Q+lH9MJROvDPZGKploj8biVxLc0Az3rHwk/iOVTHwr5DadfF7BqDIL4a9MDUvJFjk89hDge6TZCcUHdABf1HpqEiC/At4djK5HP0oXpB54sxFZd9QJb+t6ZdNvwlvw7jglVu5JcQDkdsm6Argl5KYzwD8Dfx5yu0XLFcb5xxGe/jJwOfCb8Hr0Bj0jPO+HwE3DHZBKJp4C3k5h+5sXwgL/BnwipPacIglERGnBZxY+s4t8zUJpQkb++ZPZ+qCKkXY13IravSEuYxOFM7Ni5ndLo6sc54wrFRHQAVLJRG8qmWglSEtvCKHJ+4HzUsnEZ4C7KaweeEnlRpNfKPK0tcBbcxPGCtnIZKQ+SjCKLsaNwPtSyUTeoVEqmfgdcAbQRuHL+AazCbgolUx8csDe685YCWKnAhbN/VfxL0VGN6S2hqyqPq7wFEomrBnvIjJXsEvJdLs16c64UjEB/bBUMnEHwYSoywnS1MUUDNlAsMTrpFQycXEqmfhDrs0e4N6w+zoSqWTiH4CrgCfyHPoIcG0qmVh1xI5upQzoB4GLCWbVDzeStgR7v1+QSiY+nEomCn5+mkomDqaSib8AlgBf5I3r1ofSAdxJMMo/KZVMFHvj4UxA/ZsewMPrEDFrUD0UzihdQbVKVE4H72iWnl9xn5GOM5SQyy2FLxqLC8Hz9aUEs8RbCGZBZwkqk7UTVCT7YyqZGFflP6Ox+AkEM7yPJpjR3U3wrPx/UsnE9hCvs4f81dbelUombssdL8Ay4ExgBlBD8Px+F7A+lUy8HGLfjgHOIth6tZng+9BH8G97kGDb1qeKuXFwSkvfj4flZOBGIpxZdL7FAwz/heXzcjMvjaYvtadcI17vwbnip78nRt6iqt5o2gsIim5D5a/UVq3vee4eN9vdGRcqZVLckHLp3C2UdnRaFqlkYhNBCrmi5L7nj+Vepb7WHuCOUl/HmZj6mhdpY+//HFDDfb7Vk42RpjBmvIsyV1Tmidhq3PI1Z5xw6STHccav9Tfg+dorlt+A7A0t6ShUW6MnpasyzZx+esVnMh0HXEB3HGecEyXrG5sUY59GNTv6oH54hG9P9XxzbGPXMSGk8R2n9FxAdxxnXDu4IwGYFMg60IOYMAbUgionW7Uzstk+9znpjAvuB9VxnHGvp6q5x6p5GGWvhFSB3YiZGlFzbMRSzfLl4TTqOCXkArrjOOPfxjU2orZdYKuqjqbOwREU39iTMzXa5PWHMux3nJJyAd1xnAnBGpPyRR61ql3IaD/aFBCMsqQqI9Mbdte6z0qn4rkfUsdxJgQ/m+1WtX9E5FBos92NzLMRpmZr0+6z0ql4Fb8O3QnFeeT/t941Fh1xnFLpe+7BTDS24iVEXxZ0noYR1ZVZoI1q1KXcnYrnAvokcETpWMeZ0ESlB2Wz4i9DTAg7sEmdUWaZjFTD6jSsCaWfjlMKLqA74Vq6WqJ9h2rVq7JqIumeLXeGNOfYcfITMT0Wu1mRlAgto47nKAox65t6onSTGn2LjlMq7rmQE6r6bFcDwoXgn42m68rdH2dy0YjpRcxzIL1hPUdX7FFqqK9qzrq0u1PRXEB3QtMSO9sYP7tMjXwC9T8hNruoIRZ3VbacMdPVJP1W7AuCdktIFeMEme2hjXWmxwV0p6K5gO6EY/Vq6Tf1xyryp4KcKsJy4N0qzKhfstJ9EDpj4w/3WvG1E9g/+ufnEFSMk6MUW581boTuVDYX0J1Q1G3oalDrXSGGS8GfCtKIcDXwNrXUlrt/ziQi2q/oPlVrw0i7i6FZPK9WvOoQOuc4peMCujNqzQvinqSzy0R5N8qxhwdGgswVlVbja6xhnku9O2NE6APdpdAXUotHiWqth+9G6E5FcwHdGZ3Vq8UanW2EPxVjTgGqAHJ7UkdEOBfhPRphmku9O2NBxEuDeQUlHcq8OJVa0GoRF9CdyuaWrTmjUvd0Z9RXuQyRVag2v+65pSrIq6n3p9TndiBdrr6Wmn6AWgwz8Gmk2GriVUCGPqrYg9Aj3wm5bx+imgzTEJqweNgi+2ZJ47FLvkNPuD0LXxbJGNF2A5kg5T7aZ+mKiky14rksk1PRXEB3Rmz6krd7vdneZYq5StA5g35wqiLIXOD9YnVDw7z4pu6diWLCyfiRZRZ1XI3HqUXnviKgWfZKlhuBZ0PvW4YWtVwpNbwZqCsqoHug/XRJli+XpG8hsyoZVNoF0mENqRWOsqouoDsVzQV0Z4RWSzp76DgRVgPLOJxqH5wnwltUeJ9GIl+oW3z5gd6td49RP8eQpZmgzO7FI2xhK0EWYyPhTNF+jRIFzkD5E4TGIs8F5RXgB4yDgO4pCliF8Oq1qtZIiM05Tim4gO6MSP2C9kYLl4BZBQNS7W+ggERFeLdin8Cm1wD+GHV1LFl8LApFp9wDvYBfklpkBsWSxiebC9DFnAvQgxkf/2Yeig37hoiwdll3nNJxk+KcorXEzo6I0WUqciUwt6DPzuB5+mzBXmd8u7hhXrzk/XQmJzFkQNsFMmG1qdi0xbqg7lQ0N0J3inSDZOWh40TlnSBnMHyq/fWUiMCbVfiAVtV8FugoWTedca02Fp8tMBts0Z9RWZtVUTMHwQtjShyAwHzQc+piF/YWd6KAiIqVQ431suXlp9eOLHfjOAVwAd0pSv2ChxqtsgrkYiBPqn0gBZEGMfouazOPAz8sUTedcc5DjlP0o8armZlbAlkc1SjqTx/JqQMaAsCId5mKOY2iHqZoENCRbiV7v81WbS/ufMcpjgvoTuGWnBvB12WKuVIKTbUPlEu9G2s/1DAv/kT3zsSm8DvqjHcG2WnR/SgrQaeiyMjG2uFkyRWdj9r5Izg1o6qPCLJFfc8Fc6ek3DN0p0A3SJ2tO07wrhLkbIpJtQ+keCJyFp5eXxdbPjW8PjoTRVdy7W4PblSbeQTVLOqD2uJeYVIt/vqqivX3qs3+SDzz2/1b7nQB3SkpF9CdgtTH/thogtHSpUDT6EY+CkKdGPkTxLsirD46E4tn2SjwPcXuQsw4m5AmIHQDCU/ljq4t93WXu0fOxOcCupPf0tUepE8FrgqKxITw2aoKyLEecl3DkhVvGn2DzkRzcEciK8a7R9Tepkpn8Dx63Mio6jMIbY19tbvK3RlncnAB3cnjBqnr7zhO4J2CnEOY8y6UCMgysnywLnZJS2jtOhNG19b7Dxq1/63YRxEZJxUGRUH3q9ofiPEf2b377nHSb2e8c5PinGHVL3yoUSAuKlcEFcbCzHwqIA2CXIFkHgfaQmx8XNPrEJS5KMvwqX61VGuhg1TBx/I8Ppvkh3SVqp9jwfhsFY8bVe0SETM79OfjoRIQelF7f8SaX3RuSRS3zM1xRsEFdGdoS5d7mtY3CWY1yJySXENVMDLLU/vnDUtWPNG9Zd1TJbnOeBOURHkzHv9KHVLUfZQQ1JtLcy+Wr8D4DuiHdq7PNi5ceZ+qnqXwlyLSMKKlbGMja60+a4x+u6Gvdm9nuXvjTCou5e4M7oYbpC7rzTHIu0XkXILtQ0pzLdUqxCwjywdbFl40rTQXGWcsgqVWlRlkmF/0y2eWKo0IE2JDka7tD3QZuFHVPlp4mmKsCaAdItwsoo/t2eNS7c7YcgHdGVTTrb+NGp8LUbkSpb5kwfw1UUEu6TP27aW+0DgSVIVXwBb50iP+a4LwLM8Z5T/V+i9jKu2jS0AkDXJ3lR+5vWvr+v5y98iZfCrtt8KpBEct99JWT8TIn4nIrDG5pqrByGyjvLdhyYrTxuSazrhycEfCF7hPRG5RSw9SUR9f1qp9FsPX6/sjr5S7M87kVFG/EU4FuOEG6pojs4zwp4K8lWA37DG6uFYjsowsH2hZeNH0MbqoM4507Uj0GuUbKvaRcvflNQJoj2C/IchTu3ffPWGyIs744gK68zpTb/1t1LN6AchqlJoxzdgGl2oUZFW/uNS7MzhRXjRWvozaPeVPvQuIWFVuq8lU3da1dW1oO7w5TrHK/dvgVJKjlnv9WV2imD8XMceUpQ+qBpE5ovpnDUtWLCtLH5yKZkWswAOilZF6F5vdJJ58uTZTdaisHXEmPRfQncANN1B3VM1ME5FrRXgbqiPcDCMEojUYczpZ/qLOpd6dAbq2P4Cn2gf2W4pfxtS7AJoR4UuCbHCpdqfcXEB3AJj6g9/WV6Wzy0X1GnQsn5sPIrj0FDHmYsS6Wu/OGwhoFm8X6n0Jq3vHPvUuIAZV/VGqsW5N19a1bomaU3YuoDvMOGal8X2N+XA94h1V7v4AQepdOc5TfU/DkhWn1y6Il7tHTgU5uCNB7/a1WU/telS/q1bHPPVubXaTZOXz9olfuo1XnIrgKsVNcg3HnEyqIX0UEnm/wbwtqMBVKZlDrUbMGWTtnwu8BLwcausA78dgMYxsfKV4KIqVtjB75hQqAt0Zozer6NmCdwFSZFW9ERFA+yKin6dKN5X6ao5TKBfQJ7Fjjrmcnoa+OoteYFWuCb5aKcE8R2gSMStF5fH6xRd+v2frg35obc9CUE5FOIfDxVYL5wG9KE8iPDuC850QHNyR0MaFK1/yVL+m2EUYMxtsCUvJCYjx1fo/7Kn17sh6lVq1zpmMXECfxHqr+41VWWgNfyWY6RVZH1vVgMw3aq+2yKbaBZc/0rcjpJKabydCD3H1+DRS5BjdYBBexucbUst2XEAvm67tD/Q3xlb+Gvi+qv61iGks5QYu1mafNka+WpvWztS2B0p2Hccplgvok9SU2W+VjOdPU2OuMypvRSop1f4GNSpyJj5Xi/gvArtDaXUmYp+jzlRRB0XWPDeA0KVZasmG0htnFCJWOzJGf6DIGQIrELzwf5wF1HZ6ol/VdPem1PO/r9hfGGdycpPiJqFjj70c49XXGDUXiuVagIocnb9KEaHZGFaJSV9Uv/DCmhAbt0XXSX+tSrqO+Om7E6qDOxLWV2+nqNyE8jyYkH+gBUQyVuRH/RHvl6mmKS4j41QcF9AnoS4vZXyjC63hb8SY8bG7mWJQWWAs7wJZVrs0PvpdxCr5HsYpWu/2tb1G+A3oj1RtBxLq82211n/ciHy7xko7T691Pz1OxXEBfZJpOu5c8LTZN/Z6EXlLENXGw2eTAtSqmLMR3ilWjx11k24+04RTReSAwk+B3wHZcP6NBVTbPfQmsf7Grq1rw5uY6TghcgF9Ejn22CuIEK3CRFYK8mdAhafaB1JEaBGRVeLrhfULL6wrd4+cytKevNdatdtRvQVlO5hRPhIRQPqsyE/TvrmvKxXpC6WjjlMCLqBPIg1NVSYb8Y9Xz/vYa6l2KfIVMin6+kYwMaPmXSJyRuOSi6vC75QznvVuf7Abw28Uuwa1h0aXeldVtY8K5ntVVdX7eNml2p3K5Wa5TyKHJFPvG/s+8BaDto/gg85DqQOtDqdHkgXpLP4+QQQxJ6A2rqo7gF3h9MeZKGq0+pWMzdyuwqkIqxCqin+yJIC+LHALfvrZ1HO/cusZnIrmAvokkiJTZ5A+tdkfAbbYQCpIi8DZwMJRd0YMWLtP1a5RMEhRvRFBrCDtwQ2G47xee/JevzG2YgvKD1EWgBwPWkRGUgDpscptvtW1/T1VqZJ11nFC4gL6JNJHX9cUam7u8VQl4xc1XlGjVIksEmgCWTjaiXQighXdjeFL2Uxxj37UKJ4RiajxjcVtWekMqiu5rrsxtvI3it4Oej0ixRRPUlX7iFr9sfq6l5cTLtXuVDwX0CcR3bi+rwN2jvT8qtjKekW7w3mSLigiYrQ7/dy6g8We7RYBO4WoIrI3Q+YOhTcBFyNU578XFUB3GdEfesZ/pve59enS99RxRs9NinMKJmAkpJ8ZVUWhVnxvZhjtjawTZbuyM0bak/f6ENkE/FRVt6KSZ8mZAJKyyC+skKipoWss+uk4YXAB3SmYIqJhTnUv9xJ4tw59UuhK3pdS0V+D3qH5J4Mq2D+C/VlG9aVXNq53lQCdccMFdKdgomQkxGy3CJ4VdZPanJKr0eo9KHcDv0PpH/xmTgB9QeCnEdWn0skHXardGVdcQHcK5kEX0BlOa4pB64zK0eG05zhDa0/e6xthg6j9GeiWN6beBaBThTvV2HU1NTakn3PHGTsuoDsFU6v9IL0htQZQa0RnhNOe4wyvK7kuJaLrVfXuQVLvCvoIam9PW33Bpdqd8cgFdKdgVtWC9gGjT0UGz8/rLLZ8k+KcSaeK2j3A3aL6MEr/ERUIdwr6Mw/7ZDr5K5dqd8YlF9CdglkPq6odoCEU2VAQqVVl7ujbcpzC5FLvTyvcBroFER+RDhW92xpdV1NNR7n76Dgj5QK6UzDjRbKqpl01nOfoYkwEOC6MthynUF3Jdd1qZJ3CPYIeEPQxUX6R8e3zLtXujGcuoDsFq9KoL4ZDIuGszVUVAVoa5l06JYz2HKdQtVq1V0TuUtXvK9wqxnsqvd0VkHHGNxfQnYKlTcQH9gNFV3YbnCLKVEx6cTjtOU5h2pP3+iL6lKp8Xa25C1PvSgg7454r/eoUrMfz/Xqre0XZn1uzO7oGVQWR6ap2GfBoGH10nEJ1bU10ww3dwZ9uKGtfHCcMLqA7hdu4RiOL44cs0hFOhTcFkSZE3hRGa45TvBvK3QHHCY1LuTtF8a3pUav7VLUnjPZETETEzGfp6tow2nMcx5msXEB3iiKe7VfhBUReCaM9RUWwsxr6O44Poz3HcZzJygV0pyh9vVVZUXYLuj+U3U2sCsosxJ43+sYcx3EmLxfQnaJku17JeMa8ALIvnBZVxJgpqJ7N0tVuTofjOM4IuYDuFOfgo+ph94DuIqSd11RMBJjXTOecMNpzHMeZjFxAd4qWqa5NIbIDaA+lQWsNwrxMJrsilPYcx3EmIRfQnaL1eJl+i24D3RvKc3RUjPGmiZW3sfwGL4QGHcdxJh0X0J2i2V0bM1VGkiKyJ6w2FalCdHF098NuTbrjOM4IuIDuFO/Ai2pV9vjWPq/BdqqjZ61RzHx8uyqU9hzHcSYZF9CdEZEe6RIrz6CyN5wWVRAzFbHn1Zyw0u3A5jiOUyQX0J0R6TxnSp9U6ZMivBDOc3QAWwW8KZLNXjhl6aQcqMsgJXXD+ua+1trIWhx41sj7JaPsieM4g3Lrfp2RWbPGRhavei6LfR5IA9WjblNVRLzparlQ1d5JWLPoh2JRwKOGPkyRN7cGULJkiGBeDVGGKnyEXoqd2ucBWapQDMrhcOcJVFNDL8Xs0i1AFsWnisNB0yD4VBHJ9a+YWvwG6KEaP/c9MqCKIHhSM8K/q+LTW+R5juMMywV0Z8RshEOkeQw4HwglTa5Qq8ib/Ux2VePxK37ctXldKNvADOqfyZr380P6eZx0kaNFA3j0SYQd1BDUtReSZPgclpvJFtkXD0TpJMIzgOKhKA9gWU0/Efwi2go2wvNF2YVhV66/ewS+Rj8/B6qKCugeiE8vUZ4BIIsVJYnwcfqZWnQ1Ag/weI5q9hd5puM4w3ApL2cUVpvGhe2nq8gXQM4HDeXnScR0W/V/Lp7+XWrLg6HUjHccx5no3JpfZxQ2qrQsTXtkT0Q4AagJpVmRCEqdqr7U1BDb2NO5o3SjdMdxnAnCTYpzRqW/prvTiv4OeCm0RlWNGDNbMJf5EevKwTqO4xTAjdCd0Xllp18zbVE36JkgCwnvJrFKhCYrelCnL37SHthezFNkx3GcSccFdGfUamcu7vN9O11ETgJpCqdVETB1qtQostlfsmwXL20Mp2nHcZwJyAV0Z9T691/j10zbnUY4E5hDeKN0T0SajGJNf/oJ/8D27pDadRzHmXDcLHcnFE2LLprqq34cuB6YQVHrooYhYlG2+qpfyHqRH2e23udWL08y2spcIFrAoS9IG12l7s9oaCuLgapB3uqXNpJj3R9nYnHr0J1QdGxr6mg8vuMe9fUClBbC+tlSNSBzRXinZ+2WzLzlD7NzvZv1PrncBFxUwHFXAz8tcV9GTFtpATYyeGZ0M3DC2PbImWjcLHcnJGvUWLNJVB8EDoac/Kk1Imd5at/V4EVmhdmw44yhi3CPOZ0SciN0JzQdWxs7mxZ33uOrXYHSTGg/Xyog08TI5Sg76xav/H7v1gcOhtO244yZeLk7UAm0lSXAimEOaZO2XPVFpyguoDshWqNw8WZU1yGyBJXpoT1LVzWIzAOuNpbdVQtW3JvZsc5NknPGkwvK3YEK8UmgdZj3vz9G/ZhwXMrdCVXH1sZOMd4vQTZD0VW+h6dUAacA10aEM6cvWTn6DWEcZwxoK/OBBeXuR7lpK6cC1wxzyJ5Kn9hYyVxAd0K2Rj1Tu0mtfxehP0tXgAaB84zIe/qyupjYJe5n2BkPLi53B8pNWzkNuIfBZ/kfducYdWdCcil3J3SHNp+Wii763V2qeqHAcsKq8Q4EQV2aBblUoT1q7H+nlrduZ31bMRuMOk5e2sos4GxgNkEQOgBsA/4gbUXvp7cy5O4NSlupBU4HjgVagClAN3CIoP9PSBv7Qr5mI7AEWAg0AQ0E36/+3LVfBE4CPgvUDdPUK8A/j7Ivc4ALCXZ/7AWSwHpp41AB50aAGHA8wfcumutvL8HfYx+wBdgubUXtfzhmXEB3SuAGNVWrd/iZjh+r6vGCHBfWTmwBFZBjxcifomobdu26uRt2hNe+M5FoKxcBPxjmkPOljU25YwV4H/ARgsA42M9tl7by38C/SNvgW8BqK/8E/OURX2rO082Ytr4h0O6XNpbmOQ9tZRrwYeBKgkdSw42A0VaeB34DfFPaeDhf+0O0cQbB92kFwXK70f5+bwHeKW3sHnCdgd/HIx2QtmCpn7ayEPhP4NJB+nIn8I7BGtBWjgH+AriE4OZt2O9dTp+28j/AfcB3pY0DBZwzJlxAd0qic+Oa/mjs4vuU7JsRcy1KQ2gT5ABQQ3Cj8B7UpupjK9p6kuv2hHgBZ+KoAY4a5v1TgE3ayvHAd4Bz87TXCHwUuFJbueTwzcAgxwx3zYEiRR5/eDT+/xMUcxpu5DvQXOC9wHu1lUeBD0obTxZ4zaXAjcBbi+nrMJ4Ebga+LW30D/L+cN/Ho7SV6QRzE9YSZAcG84abDW2lAfg34ANAbZF9riW4kVkB/JO2cjPwyUqYme+ePzolk0o2vqzI90GfRIpOUeanalCOA7lGkGujiy+eyyV/7X6mnWIt1VbOAR4hfzA/0lzgrlxwGFPaygnAY8DHKC6YD3QG8Adt5WMFXPMdwKOEF8xfBq6VNr4+RDAvxDnAbQwdzN8gN0HxUeCvKD6YD1QP/DXweO4RTVm5Dz+nhNaoqjyh1t6iqvtAQq7wpoB6giwBc51a+4H67ZvnE7vElTR2inEpwWStQsrLDrQQ+FS43RmetjIbSED+dHyBqoH/0FauG+aaC4HvMbqbh4FmAg9qKzNH0cYXCeY4FERbqQfuInhOHqYlwM+1tbyFg1xAd0qqd/vanmxa70T1PkTSpbmKRgQWiuj7jNXrGrV/cfOCuKvI5RTqdGDqKM6/bqw+yHPXuYdg0lvYvqGtnD7Ee39LMMFuOBmgjeDZ+juBT8Prn4kPYgbw9SL6ONCSIo//MHDiKK43nLOAPylR2wVxz9Cdkut/0e6rikVuAT0RkTNQLcGHn/VA5oBcq2Ias8J3m5Zc9EzHlrUluolwnFfNAE4lSIGX2vXAmwo4bjPwM4LJoj5wJvDnBM+kh1JFMBP90kHeKyRQvU/a+PERf/65tvIt4CmGvwG5Uls5duCEuBJ5TwHH9AE/Bx4COgkerbyPwkb1f0bwfS8LF9CdMbBePe+iR33rfxM1nwM5JtxZ7zlBNblZYK622Olq/VunLIr/unNbojP0a01U85ZXNVV5U9UnohHPRLL20MEdiclUke8hgs1gdhOM5D4FHF3AeWfw+oD+H7y2UcwignT1cHbyxmDzusJM2oqhsPT+FwkmaR25lPN72spXgd8S3IAM5RJt5dQjJ8nllnPl+x68MCCYAyBt7NdWfgx8fJhzIwQ3HHfkuUYY5hdwzMXSxq+P/IK28m/AL8lfT6CQ9kvGBXRnTHRsWdsTjZ1/l1C1QIVPoFIf7qz3HFVBmC7IpSizLDqnLrbytl4i+0je63ZpG8zS1TV12c7jxfpngl3oW1oQIqgvaSOd9QtX7EHsU+Kbh7ufW9dR7u6W0K3Ae6Xt1R/MB7WVXxLskJavlsLrZmJLGy8SrL9GW+kr4Np90sbv8xzzZsg78er3wD8c8Xc4sk/bcsvA/itPG5fB62a9TyX/49lBl+/lvJLnXAjWfYehg+DGah+v3RA9esT7tzD8PIDMwGAOIG1YbeVL5A/ow90slZwL6M6YSSV/3R49Pn6T+hwL+gEJeUu2V6kC0ghylhU5StTOryX7Ixu7ZEM6ea9LwR9hyoIVc/y+A+8QY1YgcjISmSqaW4srgIgVa/ss7BTP/KFu4UU/6d2+9nfl7XVJ9AEfGRgIpY0d2srdBM+Eh1PwLOtRWFXAMT8ZLJgf4ZfkD+jnA/96xJ8PAAcZfi39Ym2lcYiyrW/Jcz2A0S45zQL/B/iKtDHk77i08XejuEYh+9WXdUKuC+jOmEodnd3dsLfqa5K1cxGzMgi+paAA1QaJIdKKtYtE+m+tW3ThPb3bHpxMKeTBzVseaYh4b82qvEdE4og5GtU6VF9biqCH/0ebRLwWEVkcUT2+YdGKb3Z319/D7rsm0s3RM8NUEyvkg3wsJsWdVsAx79JWLhzm/UImQr9u0pi0odrKTwgmlA0lCvxIW/mgtAXBObdO/u+BK/JcL8PrR9Ej8Ulp499HenKuoNA8giI5s4FjCG5gGgmWplUxslUQY8oFdGdsrV+vcvJFm3zffNlT5iMSK11QB1Q9RKYbIytRnWcty2piK36osCmdXBf+2vhxoHHxqnmq9h0W/kREThbVJlTNcI9ARG2VIs0i5jzBmxKt7+1PBZWyJspjjN5h3quUG5dCCs8Us45+KIOlvz9NkIqfM8x5lwHP5yrR9RNMJiskCN43VMW9Au0HvlbsSdrKFOBa4O0E69nzzeKveG7ZmjPmUk+vzWTF/BrRzym8iJQ4S6UKqvWInGhEPlSFfKlK9LqmhSumNS+IT5o167VL400NC1deZdX+C8jfGuQcQacGVfcKiMuqqLV1onIqYj7eNP+Ck0vfa+cIYT1nzqc2t177VbmAewnkLXNaRVAP/UQKC+YdBIVZRuO3w6XZB9JWRFv5BPACweOHVUyAYA4uoDtlktl6f6+iP1Pr/ydqU2Py6Ek1ArSImPNFzSet4Ztp47+7PnbBxP49iF3iNcQuOieS5rMCnxXkStA5qK1Gi11toKjaWkSWWTHvaJh36WjWbzvFGcubzzdUv5M2nuWNs/lH42VgpbTx/Cjbea7QA3Pr+H9BsBJgLOY9jCmXcnfKJtvjd4nHLV61aVD0E8FEtlJncBVVrUHMHISjFXOK+HZlY+yCH3Ulf7WuxBcfW7NXR2pq20/y6H8HYi5CzAkoU4I6AKP5PitYO8U3cmlVJHMX8ERYXXaG1V7AMWsg/85iBXjDIwhtpYmg9vkxo2y7H/gu8OlRptoPSxVx7OcIUuyFyBBsGvMSQWYiAlxdXNfGlgvoTtn074LqOd4BW22+YfrVqujfj01QB9QaVWqMmBied5yqnB1dFH/Gqr2npmnaLw4+tqaYD4mK0jB/RZ1UydlqD16lylki3kJBpqLqFT8iH1LEM96crM0uxgX0sVJI8PuStPHHsC+cqx1/B8Ga+uH0516HWaCLYOnaBoJ1/mukjTFf/qitHEVh6f2NBAV2fiFtry051Fbm4gK64wxlPek3r1bzYu8BOvtvlIytA/lUUHNmjOZaqTVALWKWgiwGzk13tl/TsHDlr9OeuS2z9f5tY9OR0WteuPKoLKy06CX4epoYM1fE1AWb2NhSpGtrRYhNnbe84dDO9W7lwOgUsm3nswQTz4ZzIgwf0HNr0c/I0847Dwez3PasCYav9vZF4IvSVtCa83K5jPy16B8H3iptg06SrPhHcy6gO+W1Zg19q1dr9bba/Z7f/Q2xmaONyPvHNKjD4cBebcTMEZFZin9OxLdXVS1csQFPEx6Rh7q2rn1x7DpUmOYF8bqs2FMU3pERew5ITERmCsYoalCbv5ERUVS1CjiG2tpGwAX00ZmprZgB1d0GWkuwDGw47yZIZw8qtzyrFThumDZ6jxyZAn9H/trxN1d4MIegPG8+tw4RzAEKmQTq1qE7k9yaNaRP/5Ca6q491Wn+SXx7UJAPjVn6/UhqRRUPI00RMWeoyqnW2ot99MX6hfFnxDMPVBH5/aGtDS/CmlJFy6EtXS01tq8pYtNniJ+Np9EzRMwcYBbi1YMKquiwcSE0olZqrO1znyOjFwWuAb4/zDEPkb/Ay8XaynXSxneGeP+TDB/M4Y3r7odb137YL7WVHwC7IO9WqL0Ez6SfGeObgGkFHLN4sC9qK8cSZCHyma6tzJQ2Xi6qZyFxv4hOZXjsJizYvtM/9GJd14tfMDbdIfAJkCllWeqsiqovQJURc4yIHGPVLlNrL0+T3heN9b8krHxGRZ9U5cm+vuod9TX9aUXwgwYwIuoZwUYsqRk+rF8/+LXmtdJYsxf6Ldao+GIRY4moISO++GJbqrXqNF/NKZH+9rMUXQgyHeQoMV6diKKqoP6YfXsARCRjVXZrtTdYdTDnNcOtcT/Sd7WVawjqulugU9r45OE3pY10rvzovw5x/mE3aStvB27ntRngC4B3ESw9y+f2AX8uJNW8EPhMAccdSbWVDcBXgO/mqXAXhkL2XL9OW3mFYHOW/QS12S8B/pLCZsVHgIe0lQeBfmnjoyPt7Ei4gO5Ulsdu0l5WvxKdd/BG8axVzEcwMjPEyVzFU4sqCEREzEyQmYKeZNW/QC0dIhyqr+s/gLIX5QXQFwhKWb6oqoew7KvbY7pk4YpBP7CytqNGlTkIHuixwGyQGcBJEesdEyHSbNFmI7YJMU3GmCCAEwTxUtblGZoAkvbQHV2b17nNb4a3t8DjPF5f3vUVeC2g5/wHwY5rw42yhaA6W74KbYPpJNic5khPE2yeEjYh2DnuZoIKd6ulraSPbl4o4BgP+L+510gtyr3S4AK6M+mt0dTOG/Y1LvjjN8WkX1HVjyGyuDTbrhYp90xaQQRTK0ZqQWYGX7OApg3SA/Sh9PpKRpR+o5LWIVIN1aarylrq8BDQOqNSi6VGxTSKMcGVDj8LV0Xt2I7Eh6Cqfo9v5AUmTrW4kpA2OrSVzRS2/Wa+tnq1lUuB31CaQjP/W9rYNeBrXyPYPrSQiXsjdQnBjnT5auaPxj3AP5Ww/bKr+Fl7zmR1A1077mk3nvwIw6cVHkJMISmzMaRBgFcfVZ9cmK8WI1PFmKPFmPnGeIuNibzJeJHTPa/qjMFe4nmnGPEWG+MtMuLNNsZMN8Y0Aqj6qM3mrmOplNgpxnQLek9NxGwsd1/GiRvDaihX4OVSgvXRYVGCYD5wdI608RTBSLPUEzOu0ta8u5mNmLTxKMHEwtF4Ooy+lIoL6E5F69jyQFc2wi/V8GlFb0ekG6QyotqgNFdq1r4W7O3hV3aIlx88/7b+EeflUuqVSMSq2uezlp8d2nz/vnJ3Z5z4KkGFslBIG38gWKL23wQ7jY3GZuASaeNLwxxzF8E68lL7XyVu/1qCdebF2k2QPTgd3ri9aqVwAd2peH0bE301Gf29qP6LVb1J4SWQTP4znRJQRHZZ7E29nc2/p2LvOipLbjnaOwl2LNta4Gk787TZKW18gGCXsM8SBOZCR9E9wJ3Ae4CTpI37hzowN2reRGHLtkbrvFI2nptVfwZBxbh8N6MKPEVwk7FA2vi5tJElmOfwefIX+tk+yu4WbdJsTOFMAKd/SGp6XpoRyaYvE6QVlWVg63E/x2NEMhjZZbP+V73qKd/p2ny7m90+QtrKEoKJZvMJNgYxBCVMXyYIBE+OZOlTbgexNxPMOp+ae0UIqrV1EYw0nwS25Fnzfri9s4FfMXRBln0E69p/NWDt+pFtCMH8ga8BKwr4azRKW1HlXEckV9f9TIJtaY8mWDp4eEndLoK/05DL6rQVA7yNYGLfUbnzUwQ3Yr+XthFlAkbFfRA6407tohUNEcxZotqqShyR6aDV5e7XhCamw1p/g2e8G71M/c8P7fyFKyQzCWgrjwHLhjnkb6WNrxTY1lSCUW2+ya3HSFvBKwOcI7iUuzPu9G1b111r6h4So/+M6BeBR8B0Vfaz9XEri8jzYH8gJvLX0zLpn7hgPjloK4sYPphD/u1UXyVtHCL/mnyfoHiOMwJuhO6Ma1MWrmrMGj1bVK8R5XyEY0Fryt2v8U8UYZ9Vu0lE/9tK/T29W+8u+MPbGf+0lYtg6GfrOQlgVYHp+2uAH+Q57BlpG5Nn9RPS/wMAAP//7d3Lr51VHcfh71r7HHqB0lIU7eEShKTFRqMJGGIcWJVI4mViwrwD/w87c+bUxFFHRkNwYFB0oqBEGYhEJGophSoGSi32Br2dvd/l4GBi0haKtAV+fZ4/YL8rO3nzOevsd/1e59D5UDtx4JcnP7pz1xOn59ftH4vpqy35VpLPrE1SG1fy3Gxh7XgyDraMn4wxHrllPu0/ePDRc+/3qrjqLmUs6wNJ/jR259fJhX9Dz9rGcUfe+cUySfLDS1wbF2CHThkbtn/5+lmbbW+L8fWR9mCSnUm2JMNPS++oJWtPPv99jPHEbEyPjNn0h7QcO/n84+/v0nhfjN1Zn7WH6N5udvzl9FLWnrg/dZWuV46gU8uePe2GHz+1ZZxZvTctX0vvn0+yvQn7RbwV8tYOjjY9k9Z+OvWlJ0faoTN//fnVf/kMHyhjd76b88fPXgmvJPli23vei2F4FwSdklZWvrH0+rr51llWP9taezCzdn8b2ZG1cZnd8emWJKdHy4GM8Ux6+9k0y1Ory5tfnS9vPZenzxsYxjVo7M51SX6V5AtX8DK/S7K77c3+K3iNa4KgU9rKyjeXTq87tfXsrH26JV9qrX8uGZ/KyMeSD8Bs+KuuJRnH0tqBMfLc6PlFn7WnpvU3v3Jq845zeXzP+71APmDe+tf795J8O5dvnvtqkt8n+X7bmx9dps+85gk614bbHlq6ccOxTfP0u3umBzLGfUk+OUa7s7VsrL1jbxlrx4EOt2TfyPTH0cbjy3325zG7/tCJDbeczdM/qPwFcBmM3bklaw+23ZmLD5p5O6eyNjjnn0l+0/bm+OVbHYmgc835Tttw91ObltrYNrK4fxr93tays2dsH8m2pC3XiHtLkikZJ5P24kj+NpJne8uTyXh+MZ09evrAb43PhUIEnWvWpnu+smE6t27T1M/cvdT6fWPKjtHa9p7cMzI+/uGL+/9GPAdH2r6WsX+0PDNaf7aP2eHWZm+efP7R9/oyD+ADSNBh165+/eGNG3NmXD9m87tmyX3TmLYn7c4kt7fktox2U9ro598yVzP4F71d58k4MtJeXDs/ngNTG8+NzJ5rYxya1o03z+y86VwefvjD9NcJ8C4JOvzXrl2Zne193dHljVlMm6ZprMza+ETS7mqj3THauCMtt2ZkpSUfSdrSWtDf6Ta61I5e0u04knE6azOxDyV5eW006/jH1LJvJC8ttdmR1ZY3z/Qbz+YvIg7XCkGHC9qTjTe/2Jc3v7o8731dT7thkcW21sbtGbm1jbaSZNtoY1tLtoxkc5ItLW1Lkg3vfefekjHOjtaOtowjLTk2kn+1tJfHGIfT89oY41Ab/eU266/2tjg1rVs6e3LHprmdOFybBB0uyZ5sWtnX+w1HlxfJcl/Nuqkttkyz3NIzNo/kxjGypaVtbi2bMsaWkbEhLeszclNL25CMC95vo6W3kWMjOZLWZy3jZKb2ejJOL9KOz9p0pCcnpvQjPXltWvQ3p6W22mfz+Rvz5XleeMwAGEDQ4f+286F2w5j35ZybrbZ5X6wuek+fzXpfmi/mG0em6zLLdX3RN/e09WkXCXpGH2OcmEY7OnrvvS1O97P9jb68PK2OxbTU+mI2zRfH+vJCvIGLEXS4knbtalv/vbX3c1PLuHCLp2nejo8xLZJFXnjsKi8QqELQAaAAQQeAAgQdAAoQdAAoQNABoABBB4ACBB0AChB0AChA0AGgAEEHgAIEHQAKEHQAKEDQAaAAQQeAAgQdAAoQdAAoQNABoABBB4ACBB0AChB0AChA0AGgAEEHgAIEHQAKEHQAKEDQAaAAQQeAAgQdAAoQdAAoQNABoABBB4ACBB0AChB0AChA0AGgAEEHgAIEHQAKEHQAKEDQAaAAQQeAAgQdAAoQdAAoQNABoABBB4ACBB0AChB0AChA0AGgAEEHgAIEHQAKEHQAKEDQAaAAQQeAAgQdAAoQdAAoQNABoABBB4ACBB0AChB0AChA0AGgAEEHgAIEHQAKEHQAKEDQAaAAQQeAAgQdAAoQdAAoQNABoABBB4ACBB0AChB0AChA0AGgAEEHgAIEHQAKEHQAKEDQAaAAQQeAAgQdAAoQdAAoQNABoABBB4ACBB0AChB0AChA0AGgAEEHgAIEHQAKEHQAKEDQAaAAQQeAAgQdAAoQdAAoQNABoABBB4ACBB0AChB0AChA0AGgAEEHgAIEHQAKEHQAKEDQAaAAQQeAAgQdAAoQdAAoQNABoABBB4ACBB0AChB0AChA0AGgAEEHgAIEHQAKEHQAKEDQAaAAQQeAAgQdAAoQdAAoQNABoABBB4ACBB0AChB0AChA0AGgAEEHgAIEHQAKEHQAKEDQAaAAQQeAAgQdAAoQdAAoQNABoABBB4ACBB0AChB0AChA0AGgAEEHgAIEHQAKEHQAKEDQAaAAQQeAAgQdAAoQdAAoQNABoABBB4ACBB0AChB0AChA0AGgAEEHgAIEHQAKEHQAKEDQAaAAQQeAAgQdAAoQdAAoQNABoABBB4ACBB0AChB0AChA0AGggP8AQtClzegVvbgAAAAASUVORK5CYII=;clipPath=inset(28% 4.67% 29% 5%);" vertex="1" parent="0B4loqaDKJ7nYiXQ2XOH-41">
          <mxGeometry x="15.960000000000036" y="60" width="168.08" height="80" as="geometry" />
        </mxCell>
        <mxCell id="0B4loqaDKJ7nYiXQ2XOH-42" style="edgeStyle=orthogonalEdgeStyle;rounded=0;orthogonalLoop=1;jettySize=auto;html=1;" edge="1" parent="1" source="0B4loqaDKJ7nYiXQ2XOH-27" target="0B4loqaDKJ7nYiXQ2XOH-5">
          <mxGeometry relative="1" as="geometry" />
        </mxCell>
        <mxCell id="0B4loqaDKJ7nYiXQ2XOH-43" style="edgeStyle=orthogonalEdgeStyle;rounded=0;orthogonalLoop=1;jettySize=auto;html=1;entryX=0;entryY=1;entryDx=0;entryDy=0;" edge="1" parent="1" source="0B4loqaDKJ7nYiXQ2XOH-27" target="0B4loqaDKJ7nYiXQ2XOH-40">
          <mxGeometry relative="1" as="geometry">
            <Array as="points">
              <mxPoint x="280" y="221" />
            </Array>
          </mxGeometry>
        </mxCell>
        <mxCell id="0B4loqaDKJ7nYiXQ2XOH-44" style="edgeStyle=orthogonalEdgeStyle;rounded=0;orthogonalLoop=1;jettySize=auto;html=1;" edge="1" parent="1" source="0B4loqaDKJ7nYiXQ2XOH-30" target="0B4loqaDKJ7nYiXQ2XOH-40">
          <mxGeometry relative="1" as="geometry" />
        </mxCell>
        <mxCell id="0B4loqaDKJ7nYiXQ2XOH-45" value="" style="rounded=1;whiteSpace=wrap;html=1;strokeWidth=2;fillWeight=4;hachureGap=8;hachureAngle=45;fillColor=#1ba1e2;sketch=1;" vertex="1" parent="1">
          <mxGeometry x="495" y="520" width="120" height="60" as="geometry" />
        </mxCell>
        <mxCell id="0B4loqaDKJ7nYiXQ2XOH-46" style="edgeStyle=orthogonalEdgeStyle;rounded=0;orthogonalLoop=1;jettySize=auto;html=1;" edge="1" parent="1" source="0B4loqaDKJ7nYiXQ2XOH-30" target="0B4loqaDKJ7nYiXQ2XOH-45">
          <mxGeometry relative="1" as="geometry" />
        </mxCell>
        <mxCell id="0B4loqaDKJ7nYiXQ2XOH-51" value="" style="rounded=1;whiteSpace=wrap;html=1;strokeWidth=2;fillWeight=4;hachureGap=8;hachureAngle=45;fillColor=#1ba1e2;sketch=1;" vertex="1" parent="1">
          <mxGeometry x="760" y="520" width="120" height="60" as="geometry" />
        </mxCell>
        <mxCell id="0B4loqaDKJ7nYiXQ2XOH-52" style="edgeStyle=orthogonalEdgeStyle;rounded=0;orthogonalLoop=1;jettySize=auto;html=1;" edge="1" parent="1" source="0B4loqaDKJ7nYiXQ2XOH-23" target="0B4loqaDKJ7nYiXQ2XOH-51">
          <mxGeometry relative="1" as="geometry" />
        </mxCell>
        <mxCell id="0B4loqaDKJ7nYiXQ2XOH-53" style="edgeStyle=orthogonalEdgeStyle;rounded=0;orthogonalLoop=1;jettySize=auto;html=1;entryX=1;entryY=1;entryDx=0;entryDy=0;" edge="1" parent="1" source="0B4loqaDKJ7nYiXQ2XOH-34" target="0B4loqaDKJ7nYiXQ2XOH-40">
          <mxGeometry relative="1" as="geometry">
            <Array as="points">
              <mxPoint x="820" y="221" />
            </Array>
          </mxGeometry>
        </mxCell>
      </root>
    </mxGraphModel>
  </diagram>
</mxfile>
